<svg xmlns="http://www.w3.org/2000/svg" width="64.349" height="48.883" viewBox="0 0 64.349 48.883"><defs><style>.a{fill:#caeaff;}.a,.b{stroke:#52a8ef;stroke-width:3px;}.b{fill:#fff;}</style></defs><g transform="translate(-730.727 -580.052)"><path class="a" d="M752.077,622.68h6.17a2.862,2.862,0,0,0,2.582-2.5h12.033V596.062a2.789,2.789,0,0,0-2.789-2.788H740.251a2.789,2.789,0,0,0-2.789,2.788v24.117h12.033A2.863,2.863,0,0,0,752.077,622.68Z"/><path class="b" d="M760.829,620.179a2.862,2.862,0,0,1-2.582,2.5h-6.17a2.863,2.863,0,0,1-2.582-2.5H732.227v3.567c0,2.037,1.322,3.689,2.952,3.689h39.968c1.629,0,2.95-1.652,2.95-3.689v-3.567Z"/><line class="b" x2="4.381" transform="translate(752.972 598.846)"/><path class="b" d="M780.231,585.135a12.229,12.229,0,1,1-17.292,0A12.225,12.225,0,0,1,780.231,585.135Z"/><line class="b" x2="13.454" y2="13.451" transform="translate(780.561 602.758)"/></g></svg>