<svg xmlns="http://www.w3.org/2000/svg" width="28.004" height="46.192" viewBox="0 0 28.004 46.192"><defs><style>.a{fill:#fff;}.a,.b,.c{stroke:#52a8ef;stroke-width:3px;}.a,.c{stroke-linecap:round;stroke-linejoin:round;}.b{fill:#caeaff;}.c{fill:none;}</style></defs><g transform="translate(-125.751 -454.261)"><g transform="translate(127.252 455.776)"><path class="a" d="M146.483,484.877a4.238,4.238,0,0,0,.258-1.676c0-2.022.939-3.779,3.465-7.243s3.319-10.754-1.154-15.81c-4.01-4.525-8.421-4.424-9.3-4.352-.876-.072-5.289-.172-9.3,4.352-4.478,5.055-3.683,12.342-1.157,15.81s3.466,5.221,3.466,7.243a4.272,4.272,0,0,0,.257,1.676" transform="translate(-127.252 -455.776)"/><g transform="translate(5.673 31.995)"><path class="b" d="M134,493.813v5.646A5.537,5.537,0,0,0,139.534,505h2.583a5.537,5.537,0,0,0,5.537-5.537v-5.646Z" transform="translate(-133.996 -493.813)"/><line class="a" x2="13.395" transform="translate(0.132 4.549)"/></g></g><line class="c" y2="6.729" transform="translate(139.753 472.005)"/></g></svg>