<svg xmlns="http://www.w3.org/2000/svg" width="51.758" height="41.279" viewBox="0 0 51.758 41.279"><defs><style>.a{fill:#caeaff;stroke-linecap:round;stroke-linejoin:round;}.a,.b{stroke:#52a8ef;stroke-width:3px;}.b{fill:#fff;}</style></defs><g transform="translate(-115.489 -584.764)"><path class="a" d="M165.747,623.614a.868.868,0,0,1-.79.929h-7.409a.869.869,0,0,1-.791-.929V587.193a.869.869,0,0,1,.791-.929h7.409a.868.868,0,0,1,.79.929Z"/><path class="b" d="M152.491,623.614a.868.868,0,0,1-.79.929H144.29a.868.868,0,0,1-.789-.929V596.477a.869.869,0,0,1,.789-.929H151.7a.868.868,0,0,1,.79.929Z"/><path class="a" d="M139.235,623.614a.868.868,0,0,1-.789.929h-7.411a.868.868,0,0,1-.789-.929V605.761a.868.868,0,0,1,.789-.929h7.411a.868.868,0,0,1,.789.929Z"/><path class="b" d="M125.978,623.614a.868.868,0,0,1-.789.929h-7.411a.868.868,0,0,1-.789-.929v-8.57a.868.868,0,0,1,.789-.928h7.411a.868.868,0,0,1,.789.928Z"/></g></svg>