<svg xmlns="http://www.w3.org/2000/svg" width="52.085" height="46.248" viewBox="0 0 52.085 46.248"><defs><style>.a{fill:#caeaff;}.a,.b,.c{stroke:#52a8ef;stroke-width:3px;}.b{fill:#fff;}.c{fill:none;}</style></defs><g transform="translate(-239.917 -707.024)"><rect class="a" width="49.085" height="37.758" transform="translate(241.417 708.524)"/><path class="b" d="M261.5,733.479a4.889,4.889,0,1,1-4.889-4.888A4.888,4.888,0,0,1,261.5,733.479Z"/><path class="b" d="M262.775,744.154a5.8,5.8,0,0,0-5.8-5.8h-.725a5.8,5.8,0,0,0-5.8,5.8v7.618h12.321Z"/><path class="b" d="M280.193,733.479a4.889,4.889,0,1,1-4.888-4.888A4.888,4.888,0,0,1,280.193,733.479Z"/><path class="b" d="M281.466,744.154a5.8,5.8,0,0,0-5.8-5.8h-.724a5.8,5.8,0,0,0-5.8,5.8v7.618h12.322Z"/><line class="c" x1="11.651" transform="translate(269.327 719.41)"/></g></svg>