<svg xmlns="http://www.w3.org/2000/svg" xmlns:xlink="http://www.w3.org/1999/xlink" width="1079.999" height="566.305" viewBox="0 0 1079.999 566.305"><defs><style>.a,.c,.g,.j,.m,.o,.s,.t,.u{fill:none;}.b,.q,.v{fill:#fff;}.c{stroke:#596c9b;stroke-width:0.4px;}.d{fill:#106adc;}.e{fill:#235188;}.f{fill:#234d83;}.g,.j{stroke:#626478;}.g{stroke-width:0.35px;}.h{mix-blend-mode:multiply;isolation:isolate;}.i{clip-path:url(#a);}.j,.m,.o{stroke-width:0.25px;}.k{clip-path:url(#f);}.l{clip-path:url(#g);}.m,.o{stroke:#235188;}.m{stroke-dasharray:0.75 0.5;}.n{clip-path:url(#i);}.p,.x{fill:#626478;}.q{font-size:19px;font-family:NotoSansKR-Medium, Noto Sans KR;font-weight:500;}.q,.r{letter-spacing:-0.06em;}.r{fill:#555;font-size:18px;font-family:NotoSansKR-Regular, Noto Sans KR;}.s,.t{stroke:#505050;}.s{stroke-miterlimit:10;}.s,.t,.u,.v{stroke-width:2px;}.t,.u,.v{stroke-linejoin:round;}.u,.v{stroke:#494949;stroke-linecap:round;}.w{fill:#494949;}.x{font-size:43px;font-family:Montserrat-Bold, Montserrat;font-weight:700;letter-spacing:-0.02em;}</style><clipPath id="a"><rect class="a" width="153.951" height="18.825"/></clipPath><clipPath id="f"><rect class="a" width="153.949" height="18.825"/></clipPath><clipPath id="g"><rect class="a" width="1077.667" height="18.825"/></clipPath><clipPath id="i"><rect class="a" width="18.825" height="138.099"/></clipPath></defs><g transform="translate(-420 -648.963)"><g transform="translate(420.001 648.963)"><path class="b" d="M-1563.7,14.814c-.509,0-12.479.16-12.479,12.48V130.5c0,.511.159,12.482,12.479,12.482h911.062c.509,0,12.48-.16,12.48-12.482V27.294c0-.509-.16-12.48-12.48-12.48Z" transform="translate(1699.452 418.658)"/><path class="c" d="M-1563.7,14.814c-.509,0-12.479.16-12.479,12.48V130.5c0,.511.159,12.482,12.479,12.482h911.062c.509,0,12.48-.16,12.48-12.482V27.294c0-.509-.16-12.48-12.48-12.48Z" transform="translate(1699.452 418.658)"/><path class="d" d="M-1601.925,14.614s-19.405,0-19.405,19.405V124s0,19.405,19.405,19.405h43.415s19.406,0,19.406-19.405V34.019s0-19.405-19.406-19.405Z" transform="translate(1641.579 418.402)"/><path d="M-835.684-134.777a1.28,1.28,0,0,0,1.278-1.339,1.311,1.311,0,0,0-1.278-1.374,1.314,1.314,0,0,0-1.28,1.376,1.281,1.281,0,0,0,1.28,1.337m-2.095-9.349h-2.871v-6.866h-1.591v17.438h1.591v-9.253h2.871ZM-851.7-148h6.5v-1.319h-8.087V-137.9h1.376a41.231,41.231,0,0,0,8.224-.621l-.173-1.319a42.388,42.388,0,0,1-7.836.582Zm-6.344,14.392h1.591v-17.379h-1.591Zm-9.988-15.69h-1.59v11.211h1.435a41.341,41.341,0,0,0,8.534-.815l-.176-1.358a41.091,41.091,0,0,1-8.2.815Zm-19.378,7.526h15.75v-1.28h-15.75Zm12.124,3.238h-8.555v-2.035h-1.57v6.75h11.7v-6.75h-1.572Zm0,3.434h-8.555v-2.211h8.555Zm2.734-10.456c-3.083-.388-6.148-2.307-6.148-4.461v-.776h-1.629v.776c0,2.211-3.044,4.073-6.168,4.461l.582,1.28c2.716-.427,5.314-1.784,6.4-3.724,1.1,1.94,3.685,3.3,6.38,3.724Zm-19.181,5.276h-1.552v.931a5.136,5.136,0,0,1-2.5,4.132,4.834,4.834,0,0,1-2.405-4.132v-.931h-1.531v.931a4.941,4.941,0,0,1-3.491,4.326l.794,1.2a6.1,6.1,0,0,0,3.434-3.22,5.55,5.55,0,0,0,3.238,3.375,6.051,6.051,0,0,0,3.222-3.434,5.785,5.785,0,0,0,3.491,3.279l.794-1.2a4.736,4.736,0,0,1-3.491-4.326Zm-7.41-1.57c2.638,0,4.559-1.65,4.559-4.055s-1.921-4.053-4.559-4.053c-2.619,0-4.52,1.648-4.52,4.053s1.9,4.055,4.52,4.055m0-6.789a2.79,2.79,0,0,1,3.005,2.734,2.779,2.779,0,0,1-3.005,2.736,2.745,2.745,0,0,1-2.966-2.736,2.755,2.755,0,0,1,2.966-2.734m9.349-2.328h-1.59v9.931h1.59ZM-909.29-141.2H-925v1.319h7.021v6.3h1.59v-6.3h7.117Zm-.758-3.163c-3.16-.466-6.264-2.617-6.264-5.043v-.97h-1.668v.97c0,2.483-3.065,4.577-6.227,5.043l.641,1.28c2.715-.465,5.332-1.958,6.419-4.073,1.125,2.095,3.744,3.608,6.439,4.073Zm-22.422-2.5v-4.19h-1.59v9.62h1.59v-4.112h2.581v-1.319Zm-9.444,10.182h9.444v-3.859h-11.056v1.182h9.486v1.513h-9.426v4.055h11.637v-1.223h-10.086Zm5.294-7.875c0-1.764-1.647-2.85-4.169-2.85-2.5,0-4.151,1.086-4.151,2.85s1.648,2.852,4.151,2.852c2.522,0,4.169-1.086,4.169-2.852m-6.807,0c0-1.047,1.027-1.668,2.638-1.668s2.656.621,2.656,1.668-1.047,1.668-2.656,1.668-2.638-.621-2.638-1.668m7.777-4.849H-940v-1.764h-1.591v1.764h-4.324v1.223h10.259Zm-18.038,9.719c-3.626,0-5.819,1.086-5.819,3.044,0,1.94,2.193,3.026,5.819,3.026s5.819-1.086,5.819-3.026c0-1.958-2.191-3.044-5.819-3.044m0,4.849c-2.656,0-4.247-.659-4.247-1.8,0-1.164,1.59-1.823,4.247-1.823,2.638,0,4.228.659,4.228,1.823,0,1.146-1.59,1.8-4.228,1.8m-.911-8.943c0-1.784-1.513-2.966-3.706-2.966s-3.724,1.182-3.724,2.966c0,1.823,1.533,2.987,3.724,2.987s3.706-1.164,3.706-2.987m-5.995,0c0-1.066.913-1.784,2.289-1.784,1.358,0,2.289.719,2.289,1.784,0,1.086-.931,1.8-2.289,1.8-1.376,0-2.289-.719-2.289-1.8m6.693-5.139h-3.628v-1.94h-1.57v1.94h-3.646v1.26h8.844Zm2.191,3.957h2.211v4.984h1.534v-11.017H-949.5v4.733h-2.211v-4.383h-1.513V-140.6h1.513Zm-23,9.91v-1.862h9.659v-4.19h-11.268v1.262h9.7v1.725h-9.659v4.326h11.811v-1.262Zm5.917-8.669a6.016,6.016,0,0,1-4.4-5.431v-1.319h-1.591v1.319a6.314,6.314,0,0,1-4.422,5.759l.815,1.241a7.384,7.384,0,0,0,4.422-4.324,7.4,7.4,0,0,0,4.384,4Zm3.724-7.254h-1.59v9h1.59Zm-19.649,10.239a1.292,1.292,0,0,0,1.28-1.337,1.3,1.3,0,0,0-1.28-1.376A1.3,1.3,0,0,0-986-142.069a1.291,1.291,0,0,0,1.278,1.337m-8.359,1.4h1.591v-11.619h-1.591Zm-10.068,2.074h10.068v3.667h1.591v-4.927h-11.658Zm8.69-4.422c-1.513.215-3.122.331-4.733.408V-142.4c2.056-.194,3.357-1.146,3.357-2.56,0-1.59-1.65-2.6-4.151-2.6-2.464,0-4.112,1.009-4.112,2.6,0,1.4,1.28,2.346,3.315,2.56v1.2c-1.725.057-3.413.057-4.867.057l.233,1.262a70.6,70.6,0,0,0,11.056-.68Zm-8.146-3.277c0-.913,1.047-1.474,2.619-1.474,1.609,0,2.638.561,2.638,1.474,0,.892-1.029,1.474-2.638,1.474-1.572,0-2.619-.582-2.619-1.474m7.72-4.443h-4.306v-1.686h-1.591v1.686h-4.285v1.2h10.182Zm-14.837,15.809h1.59v-17.4h-1.59Zm-11.658-15.517v1.28h6.538c-.331,4.13-2.658,7.466-7.332,9.7l.854,1.3c5.78-2.832,8.087-7.254,8.087-12.277Zm-21.974,7.409h15.768v-1.2h-15.768Zm3.491,5.12h10.319v-3.706h-11.93v1.145h10.357v1.454h-10.319v3.861H-1029v-1.145h-10.862Zm8.689-11.366h-10.163v3.724h12.044v-1.146h-10.474v-1.492h10.163v-3.628h-11.772v1.125h10.2Zm-13.112,5.565h-2.581a28.652,28.652,0,0,0,.486-5.974v-1.513h-11.677v1.28h10.125v.233a25.712,25.712,0,0,1-.543,5.974h-11.542v1.3H-1053v7.505h1.611v-7.505h7.1Zm-27.62,7.1v-4.169h-1.611v5.47h11.62v-1.3Zm7.914-7.526v4.676h1.608v-12.84h-1.608v2.715h-4.422a4.458,4.458,0,0,0-3.551-1.629,4.291,4.291,0,0,0-4.479,4.363,4.291,4.291,0,0,0,4.479,4.365,4.449,4.449,0,0,0,3.569-1.65Zm0-4.169v2.889h-3.745a4.365,4.365,0,0,0,.233-1.435,4.4,4.4,0,0,0-.233-1.454Zm-10.94,1.454a2.872,2.872,0,0,1,2.967-2.966,2.868,2.868,0,0,1,2.948,2.966,2.869,2.869,0,0,1-2.948,2.969,2.873,2.873,0,0,1-2.967-2.969m-6.654-1.047h-2.578v-4.422h-1.591v10.106h1.591v-4.345h2.578Zm-4.151,8.3h-7.8v-1.841h-1.57v6.284h10.94v-6.284h-1.573Zm0,3.163h-7.8v-1.921h7.8Zm-2.579-8.961c0-1.844-1.688-3.026-4.171-3.026s-4.151,1.182-4.151,3.026c0,1.862,1.668,3.044,4.151,3.044s4.171-1.182,4.171-3.044m-6.809,0c0-1.125,1.048-1.844,2.638-1.844s2.659.719,2.659,1.844c0,1.143-1.068,1.841-2.659,1.841s-2.638-.7-2.638-1.841m7.779-5.141h-4.345v-1.958h-1.59v1.958h-4.326v1.28h10.261Zm-11.27,7.642v-1.28h-15.729v1.28h3.957v2.387a2.708,2.708,0,0,0-2.056,2.483c0,2,2.229,3.1,5.953,3.1s5.956-1.107,5.956-3.1a2.688,2.688,0,0,0-2-2.464v-2.405Zm-3.53,4.869c0,1.2-1.629,1.862-4.345,1.862-2.734,0-4.345-.659-4.345-1.862,0-1.164,1.611-1.862,4.345-1.862,2.715,0,4.345.7,4.345,1.862m-1.979-2.891a12.645,12.645,0,0,0-2.366-.194,13.954,13.954,0,0,0-2.307.176v-1.96h4.673Zm-2.366-4.557c3.783,0,6.111-1.184,6.111-3.24s-2.327-3.259-6.111-3.259c-3.763,0-6.109,1.2-6.109,3.259s2.346,3.24,6.109,3.24m0-5.257c2.754,0,4.482.737,4.482,2.017,0,1.262-1.727,2.017-4.482,2.017s-4.479-.755-4.479-2.017c0-1.28,1.725-2.017,4.479-2.017m-16.06-1.609v6.574h-3.587v1.319h3.587v9.543h1.59V-151.01Zm-10.358,7.777h5.7v-1.28h-5.7V-148.1h6.46v-1.319h-8.051v11.656h1.339a42.208,42.208,0,0,0,7.952-.543l-.175-1.3a39.3,39.3,0,0,1-7.526.543Zm-14-4.984c1.689,0,2.891,1.823,2.891,4.634,0,2.832-1.2,4.655-2.891,4.655-1.707,0-2.909-1.823-2.909-4.655,0-2.811,1.2-4.634,2.909-4.634m0-1.435c-2.578,0-4.422,2.366-4.422,6.07s1.844,6.072,4.422,6.072,4.422-2.366,4.422-6.072-1.841-6.07-4.422-6.07m7.585,16.1h1.59v-17.436h-1.59Zm-16.08-.039h1.513v-17.4h-1.513Zm-3.491-10.766h-3.742v1.319h3.742v8.573h1.495v-16.1h-1.495Zm-7.544-3.22h4.965v-1.28h-6.537v11.076h1.125a28.392,28.392,0,0,0,6.439-.5l-.155-1.3a27.2,27.2,0,0,1-5.837.486Zm-18.387,12.413v-4.053h-1.59v5.353h11.6v-1.3Zm5.159-7.544a36.162,36.162,0,0,1-7.352.561v-6.109h6.382v-1.3h-7.971v8.71h1.317a40.475,40.475,0,0,0,7.8-.564Zm-2.1-3.452v1.28h4.888v6.595h1.609v-12.685h-1.609v4.81Zm-12.2,6.807h-1.552v.331a4.575,4.575,0,0,1-2.483,3.879,4.558,4.558,0,0,1-2.4-3.879v-.331h-1.552v.331a4.564,4.564,0,0,1-3.491,4.053l.716,1.184a5.733,5.733,0,0,0,3.53-3.065,5.362,5.362,0,0,0,3.22,3.2,5.469,5.469,0,0,0,3.24-3.22,5.7,5.7,0,0,0,3.53,3.085l.755-1.184a4.478,4.478,0,0,1-3.509-4.053Zm-7.642-.7h1.591v-2.889a47.736,47.736,0,0,0,4.965-.543l-.116-1.125a88.378,88.378,0,0,1-11.211.582l.194,1.28c1.376,0,2.928-.021,4.578-.1Zm.892-5.082c2.578,0,4.285-1.027,4.285-2.715,0-1.668-1.707-2.715-4.285-2.715s-4.288,1.047-4.288,2.715c0,1.689,1.707,2.715,4.288,2.715m0-4.267c1.707,0,2.793.582,2.793,1.552s-1.086,1.572-2.793,1.572c-1.689,0-2.793-.6-2.793-1.572s1.1-1.552,2.793-1.552m3.569,7.215v1.164h3.51v1.068h1.59v-11.017h-1.59v8.785Zm-13.093-8.824v3.975h-3.432v1.3h3.432v3.471h-3.548v1.3h3.548v7.389h1.59V-151.01Zm-10.513,7.815h5.994v-6.225h-7.6v1.28h6.031v3.646h-5.992v6.866H-1221a46.635,46.635,0,0,0,7.681-.525l-.137-1.319a44.116,44.116,0,0,1-7.293.525Zm-6.147-7.8v6.633h-3.784c-.251-3.258-1.958-5.294-4.306-5.294-2.54,0-4.344,2.366-4.344,6.07s1.8,6.072,4.344,6.072c2.426,0,4.151-2.134,4.306-5.547h3.784v9.5h1.59v-17.438Zm-8.089,12.064c-1.668,0-2.832-1.823-2.832-4.655,0-2.811,1.164-4.634,2.832-4.634,1.65,0,2.814,1.823,2.814,4.634,0,2.832-1.164,4.655-2.814,4.655m-25.621-1.919h15.77v-1.28h-15.77ZM-1257-139.1h-1.591v5.082h12.044v-1.3H-1257Zm10.357-6.654h-10.241v-4.6h-1.59v5.9h11.831ZM-1264-133.592h1.513v-17.4H-1264Zm-3.453-10.629h-2.19c-.194-3.279-1.59-5.315-3.685-5.315-2.27,0-3.724,2.328-3.724,6.031,0,3.763,1.454,6.09,3.724,6.09,2.133,0,3.548-2.095,3.685-5.508h2.19v8.477h1.513V-150.6h-1.513Zm-5.875,5.333c-1.4,0-2.27-1.764-2.27-4.616,0-2.793.874-4.557,2.27-4.557,1.358,0,2.25,1.764,2.25,4.557,0,2.852-.892,4.616-2.25,4.616m-15.809,3.608v-4.073h-1.609v5.374h11.617v-1.3Zm5.451-6.807a5.972,5.972,0,0,1-4.228-5.335v-.853h3.82v-1.3h-9.289v1.3h3.879v.874a6.343,6.343,0,0,1-4.383,5.7l.833,1.241a7.421,7.421,0,0,0,4.384-4.326,7.183,7.183,0,0,0,4.19,3.939Zm-1.029-4.094v1.3h3.491v6.652h1.611v-12.742h-1.611v4.79Zm-20.85-2.035c1.686,0,2.889,1.823,2.889,4.634,0,2.832-1.2,4.655-2.889,4.655-1.707,0-2.909-1.823-2.909-4.655,0-2.811,1.2-4.634,2.909-4.634m0-1.435c-2.581,0-4.422,2.366-4.422,6.07s1.841,6.072,4.422,6.072,4.423-2.366,4.423-6.072-1.844-6.07-4.423-6.07m7.583,16.1h1.59v-17.436h-1.59Zm-20.384-17.456v7.35h-2.231V-150.6h-1.493v16.158h1.493v-7.914h2.231v8.746h1.531v-17.4Zm-8.128.523h-1.57v2.464h-3.53v1.3h8.63v-1.3h-3.53Zm-.776,4.927A3.7,3.7,0,0,0-1331-141.6a3.7,3.7,0,0,0,3.724,3.977,3.7,3.7,0,0,0,3.724-3.977,3.7,3.7,0,0,0-3.724-3.957m0,6.615a2.4,2.4,0,0,1-2.307-2.658,2.385,2.385,0,0,1,2.307-2.617,2.4,2.4,0,0,1,2.309,2.617,2.412,2.412,0,0,1-2.309,2.658m-12.336-2.832v-1.707h5.237v-1.241h-10.241v-1.707h9.68v-1.2h-9.68v-1.611h10.145v-1.241H-1346.2v7h5v1.707h-7.078v1.28h15.749v-1.28Zm-.794,2.6c-3.783,0-5.956.97-5.956,2.772,0,1.823,2.172,2.793,5.956,2.793s5.953-.97,5.953-2.793c0-1.8-2.172-2.772-5.953-2.772m0,4.363c-2.793,0-4.365-.543-4.365-1.59,0-1.027,1.572-1.59,4.365-1.59,2.811,0,4.363.564,4.363,1.59,0,1.047-1.552,1.59-4.363,1.59m-28.8-6.884h15.768v-1.2h-15.768Zm3.491,5.12h10.319v-3.706h-11.927v1.145h10.357v1.454h-10.319v3.861h12.432v-1.145h-10.862Zm8.69-11.366h-10.164v3.724h12.046v-1.146h-10.474v-1.492h10.164v-3.628h-11.775v1.125h10.2Zm-28.862,12.025h15.77v-1.319h-15.77Zm14.995-6.323c-3.046-.582-6.344-3.22-6.344-6.188v-1.337h-1.668v1.337c0,2.969-3.277,5.586-6.323,6.188l.719,1.319a9.558,9.558,0,0,0,6.44-5.025,9.44,9.44,0,0,0,6.458,5.025Zm-29.115-1.417h5.043v4.577h-5.043Zm-1.57-5.858v11.736h8.185v-11.736h-1.572v4.6h-5.043v-4.6Zm11.656,15.943h1.591v-17.418h-1.591Zm-16.583-17.418v5.9h-4.034v1.3h4.034v10.221h1.591v-17.418Zm-6.654,1.495h-1.59v3.122a9.188,9.188,0,0,1-4.5,7.836l.97,1.262a9.659,9.659,0,0,0,4.326-5.819,9.316,9.316,0,0,0,4.363,5.508l.931-1.262a8.671,8.671,0,0,1-4.5-7.526Zm-13.771,15.884h1.513v-17.379h-1.513Zm-3.491-12.53H-1433a14.991,14.991,0,0,0,.233-2.638h-6.672v1.3h5.1a11.132,11.132,0,0,1-5.876,9l.931,1.125a12.519,12.519,0,0,0,5.993-7.507h2.87v3.065h-3.142v1.3h3.142v6.013h1.513v-16.042h-1.513Zm-21.646,10.862v-4.169h-1.609v5.47h11.617v-1.3Zm7.913-7.526v4.676h1.611v-12.84h-1.611v2.715h-4.422a4.457,4.457,0,0,0-3.548-1.629,4.292,4.292,0,0,0-4.482,4.363,4.293,4.293,0,0,0,4.482,4.365,4.452,4.452,0,0,0,3.569-1.65Zm0-4.169v2.889h-3.742a4.365,4.365,0,0,0,.232-1.435,4.4,4.4,0,0,0-.232-1.454Zm-10.939,1.454a2.874,2.874,0,0,1,2.969-2.966,2.869,2.869,0,0,1,2.948,2.966,2.87,2.87,0,0,1-2.948,2.969,2.875,2.875,0,0,1-2.969-2.969m-6.478,1.552h-2.87v-7h-1.59v17.379h1.59v-9.038h2.87Zm-10.4-3.918h3.861v-1.319h-9.408v1.319h3.977v2.211a9.1,9.1,0,0,1-4.578,7.487l.931,1.262a9.821,9.821,0,0,0,4.441-5.762,9.4,9.4,0,0,0,4.365,5.335l.91-1.28a8.368,8.368,0,0,1-4.5-7.042Zm-6.789,5.508h-2.578a28.786,28.786,0,0,0,.484-5.974v-1.513h-11.676v1.28h10.125v.233a25.723,25.723,0,0,1-.543,5.974h-11.54v1.3h7.021v7.505h1.609v-7.505h7.1Zm-27.62,7.1v-4.169h-1.609v5.47h11.617v-1.3Zm7.913-7.526v4.676h1.611v-12.84h-1.611v2.715h-4.422a4.457,4.457,0,0,0-3.549-1.629,4.292,4.292,0,0,0-4.482,4.363,4.293,4.293,0,0,0,4.482,4.365,4.453,4.453,0,0,0,3.569-1.65Zm0-4.169v2.889h-3.742a4.365,4.365,0,0,0,.233-1.435,4.4,4.4,0,0,0-.233-1.454Zm-10.939,1.454a2.874,2.874,0,0,1,2.969-2.966,2.869,2.869,0,0,1,2.948,2.966,2.87,2.87,0,0,1-2.948,2.969,2.875,2.875,0,0,1-2.969-2.969m-9.23-.173v-5.276h-1.591v12.7h1.591v-6.109h2.578V-145.7Zm-9.253,6.129h-1.59v5.586h11.6v-1.3h-10.009Zm-3.51-10.068v1.3h6.4c-.331,3.065-3.008,5.527-7.1,6.807l.639,1.262c5-1.572,8.167-4.87,8.167-9.369Zm-5.529,4.345v-1.319h-2.772v-4.363h-1.59v17.379h1.59v-6.517h2.772v-1.319h-2.772v-3.861Zm-11.521-4.363c-2.56,0-4.384,2.366-4.384,6.051,0,3.724,1.823,6.09,4.384,6.09s4.365-2.366,4.365-6.09c0-3.685-1.8-6.051-4.365-6.051m0,10.725c-1.687,0-2.871-1.841-2.871-4.673,0-2.793,1.184-4.616,2.871-4.616,1.668,0,2.852,1.823,2.852,4.616,0,2.832-1.184,4.673-2.852,4.673M-1569.8-141.8v1.28h7.233v3.375h1.59v-3.375h6.983v-1.28Zm3.587,3.085h-1.57v4.733h12.025v-1.3h-10.455Zm10.125-11.715h-1.57v2.211h-8.457v-2.211h-1.572v6.944h11.6Zm-1.57,5.682h-8.457V-147h8.457Z" transform="translate(1707.637 204.894)"/><path class="e" d="M-1572.585-142.525a2.479,2.479,0,0,0,2.423-2.6,2.484,2.484,0,0,0-2.423-2.617,2.473,2.473,0,0,0-2.424,2.617,2.468,2.468,0,0,0,2.424,2.6" transform="translate(1700.957 209.285)"/><path d="M-686.916-150.779a1.28,1.28,0,0,0,1.278-1.337,1.313,1.313,0,0,0-1.278-1.374,1.313,1.313,0,0,0-1.28,1.374,1.281,1.281,0,0,0,1.28,1.337m-2.095-9.347h-2.871v-6.866h-1.591v17.438h1.591v-9.253h2.871ZM-702.937-164h6.5v-1.319h-8.087V-153.9h1.376a41.227,41.227,0,0,0,8.224-.621l-.174-1.319a42.387,42.387,0,0,1-7.836.582Zm-6.344,14.392h1.59v-17.379h-1.59Zm-9.988-15.692h-1.591v11.213h1.435a41.19,41.19,0,0,0,8.534-.817l-.176-1.358a40.93,40.93,0,0,1-8.2.817Zm-19.378,7.528h15.75v-1.28h-15.75Zm12.124,3.238h-8.555v-2.035h-1.57v6.75h11.695v-6.75h-1.57Zm0,3.434h-8.553v-2.211h8.553Zm2.734-10.456c-3.083-.388-6.148-2.309-6.148-4.461v-.776h-1.629v.776c0,2.211-3.046,4.073-6.168,4.461l.582,1.28c2.716-.427,5.314-1.784,6.4-3.724,1.1,1.94,3.685,3.3,6.38,3.724Zm-19.181,5.276h-1.552v.931a5.136,5.136,0,0,1-2.5,4.133,4.835,4.835,0,0,1-2.405-4.133v-.931h-1.531v.931a4.941,4.941,0,0,1-3.491,4.326l.794,1.2a6.112,6.112,0,0,0,3.434-3.22,5.549,5.549,0,0,0,3.238,3.375,6.046,6.046,0,0,0,3.22-3.434,5.8,5.8,0,0,0,3.491,3.279l.8-1.2a4.739,4.739,0,0,1-3.491-4.326Zm-7.409-1.57c2.638,0,4.557-1.65,4.557-4.055s-1.919-4.055-4.557-4.055c-2.619,0-4.52,1.65-4.52,4.055s1.9,4.055,4.52,4.055m0-6.789a2.79,2.79,0,0,1,3.005,2.734,2.779,2.779,0,0,1-3.005,2.736,2.747,2.747,0,0,1-2.969-2.736,2.757,2.757,0,0,1,2.969-2.734m9.349-2.328h-1.591v9.931h1.591Zm-19.494,9.776h-15.711v1.319h7.021v6.3h1.591v-6.3h7.119Zm-.756-3.163c-3.163-.465-6.266-2.617-6.266-5.043v-.97h-1.668v.97c0,2.483-3.064,4.577-6.225,5.043l.639,1.28c2.716-.466,5.335-1.958,6.421-4.073,1.125,2.095,3.742,3.608,6.44,4.073Zm-22.422-2.5v-4.19h-1.59v9.62h1.59v-4.112h2.578v-1.319Zm-9.447,10.182h9.447v-3.859h-11.056v1.182h9.484v1.513H-794.7v4.055h11.637v-1.223h-10.086Zm5.3-7.875c0-1.764-1.65-2.85-4.171-2.85-2.5,0-4.151,1.086-4.151,2.85s1.65,2.85,4.151,2.85c2.521,0,4.171-1.084,4.171-2.85m-6.809,0c0-1.047,1.029-1.668,2.638-1.668s2.659.621,2.659,1.668-1.047,1.668-2.659,1.668-2.638-.621-2.638-1.668m7.779-4.849h-4.345v-1.764h-1.591v1.764h-4.326v1.223h10.262Zm-11.27,8.436v-1.278h-15.729v1.278h7.079v2h-5.333v1.262h10.453v4.053h1.591v-5.314h-5.121v-2Zm-14.294-2.248c2.85-.292,5.392-1.339,6.44-3.085,1.047,1.746,3.569,2.793,6.419,3.085l.5-1.2c-3.3-.329-5.935-1.666-6.07-3.605h5.392v-1.262h-5.452v-1.8h-1.59v1.8h-5.449v1.262h5.372c-.135,1.94-2.772,3.277-6.052,3.605Zm-4.616-2.62v-5.159h-1.59V-154.4h1.59v-6.111h2.579v-1.319Zm-9.232,6.168h-1.59v5.684h11.6v-1.3H-826.3Zm5.8-3.7a36.841,36.841,0,0,1-7.681.582V-164.2h6.111v-1.28h-7.7v7.991h1.358a37.731,37.731,0,0,0,8.089-.6Zm-22.344,6.323v-3.279h5.568v-1.28H-847.98v-2.813h10.3v-5.294h-11.909v1.3h10.358v2.715h-10.319v5.372h5.1v3.279h-7.081v1.3h15.809v-1.3Zm-25.37,1.143H-852.4v-1.319h-15.807Zm7.875-12.706c2.754,0,4.81,1.417,4.81,3.512,0,2.115-2.056,3.512-4.81,3.512-2.734,0-4.81-1.4-4.81-3.512,0-2.095,2.076-3.512,4.81-3.512m0-1.3c-3.607,0-6.323,1.921-6.323,4.81,0,2.909,2.716,4.81,6.323,4.81s6.323-1.9,6.323-4.81c0-2.889-2.715-4.81-6.323-4.81m-11.811-1.086v4.539h-3.393v1.3h3.393v4.58h1.591v-10.417Zm-10.029,12.646h10.029v4.771h1.591v-6.052h-11.619Zm7.564-4.151a5.986,5.986,0,0,1-4.226-5.315v-.7h3.82v-1.3h-9.292v1.3h3.879v.7a6.32,6.32,0,0,1-4.381,5.7l.833,1.262a7.375,7.375,0,0,0,4.363-4.345,7.22,7.22,0,0,0,4.21,3.936Zm-14.255,8.9h1.59v-17.4h-1.59Zm-11.656-15.517v1.28h6.535c-.329,4.13-2.656,7.466-7.332,9.7l.854,1.3c5.78-2.832,8.089-7.254,8.089-12.276Zm-5.064,9.776H-904v-11.617h-1.591Zm-10.065,2.074h10.065v3.667H-904v-4.927h-11.656Zm8.689-4.422c-1.513.215-3.124.331-4.732.408V-158.4c2.056-.192,3.354-1.143,3.354-2.558,0-1.593-1.647-2.6-4.151-2.6-2.462,0-4.112,1.006-4.112,2.6,0,1.4,1.28,2.346,3.318,2.558v1.2c-1.727.057-3.414.057-4.87.057l.233,1.262a70.561,70.561,0,0,0,11.055-.68Zm-8.146-3.277c0-.913,1.047-1.474,2.617-1.474,1.611,0,2.638.561,2.638,1.474,0,.892-1.027,1.474-2.638,1.474-1.57,0-2.617-.582-2.617-1.474m7.719-4.443h-4.306v-1.686h-1.59v1.686h-4.288v1.2h10.184Zm-31.809,7.2h15.75v-1.28H-939.2Zm3.51,5.41h10.223v-3.918H-937.3v1.2h10.259v1.552h-10.2v4.171h12.3v-1.241h-10.745Zm4.365-7.875c3.82,0,6.109-1.047,6.109-3.005s-2.289-3.028-6.109-3.028-6.111,1.068-6.111,3.028,2.289,3.005,6.111,3.005m0-4.828c2.85,0,4.479.659,4.479,1.823s-1.629,1.821-4.479,1.821-4.482-.659-4.482-1.821,1.629-1.823,4.482-1.823m-12.685,7.117v-2.462a2.871,2.871,0,0,0,2.113-2.6c0-2.038-2.327-3.24-6.108-3.24-3.763,0-6.111,1.2-6.111,3.24a2.863,2.863,0,0,0,2.133,2.617v2.444h-3.9v1.28h15.75v-1.28Zm-8.477-5.061c0-1.262,1.707-2,4.482-2s4.479.737,4.479,2c0,1.241-1.707,2-4.479,2s-4.482-.755-4.482-2m2.076,3.024a14.815,14.815,0,0,0,2.405.2,14.874,14.874,0,0,0,2.423-.2v2.038h-4.829ZM-948-155.8c-3.724,0-5.956,1.1-5.956,3.1s2.232,3.083,5.956,3.083c3.742,0,5.953-1.086,5.953-3.083s-2.211-3.1-5.953-3.1m0,4.965c-2.736,0-4.345-.68-4.345-1.862s1.609-1.862,4.345-1.862c2.715,0,4.345.678,4.345,1.862s-1.629,1.862-4.345,1.862m-21.977-8.826h5.043v4.577h-5.043Zm-1.57-5.858v11.736h8.185v-11.736h-1.572v4.6h-5.043v-4.6Zm11.656,15.943h1.591v-17.418h-1.591Zm-17.475-10.145h-2.775v-7.272h-1.59v17.4h1.59v-8.787h2.775Zm-11.037-.406h-1.57v5.353c-1.3.039-2.581.059-3.685.059l.173,1.319a71.175,71.175,0,0,0,10.784-.659l-.1-1.164c-1.766.233-3.706.329-5.607.406Zm4,2.891a43.17,43.17,0,0,0,.486-6.9v-.952h-8.787v1.3h7.236a36.809,36.809,0,0,1-.525,6.4ZM-996.67-161.7v-5.276h-1.591v12.7h1.591v-6.111h2.581V-161.7Zm-9.251,6.127h-1.59v5.588h11.6v-1.3h-10.008Zm-3.512-10.065v1.3h6.4c-.329,3.065-3.005,5.527-7.1,6.807l.641,1.26c5-1.57,8.165-4.867,8.165-9.367Zm-4.771,16.08h1.59v-17.438h-1.59Zm-6.478-15.925h-1.57v3.124a9.141,9.141,0,0,1-4.676,7.854l.97,1.3a9.658,9.658,0,0,0,4.5-5.839,9.455,9.455,0,0,0,4.482,5.508l.949-1.28a8.654,8.654,0,0,1-4.655-7.544Zm-13.616,4.228v-5.721h-1.59v13.034h1.59v-5.974h2.581v-1.339Zm-9.233,6.284h-1.591v4.986h11.6v-1.3h-10.008Zm5.082-4.422c0-1.94-1.707-3.22-4.169-3.22s-4.151,1.28-4.151,3.22c0,1.96,1.686,3.24,4.151,3.24s4.169-1.28,4.169-3.24m-6.807,0c0-1.2,1.047-1.978,2.638-1.978,1.57,0,2.656.776,2.656,1.978,0,1.223-1.086,2-2.656,2-1.591,0-2.638-.776-2.638-2m7.776-5.47h-4.344v-2.113h-1.59v2.113h-4.324v1.28h10.259Zm-15.108,11.715v-4.712a3.946,3.946,0,0,0,2.289-3.569c0-2.715-2.62-4.461-6.323-4.461-3.685,0-6.323,1.746-6.323,4.461a3.972,3.972,0,0,0,2.327,3.587v4.694h-3.879v1.319h15.806v-1.319Zm-4.034-11.5c2.793,0,4.81,1.28,4.81,3.22s-2.017,3.22-4.81,3.22-4.792-1.28-4.792-3.22,2-3.22,4.792-3.22m-2.405,7.409a10.433,10.433,0,0,0,2.405.269,10.792,10.792,0,0,0,2.444-.269v4.091h-4.849Zm-17.573,6.186v-1.9h9.737v-4.169h-11.366v1.241h9.794v1.746h-9.737v4.345h11.969v-1.262Zm6.4-9.331c-.835.1-1.688.2-2.56.253v-4.443h1.707v-1.26h-9.331v1.26h1.707v4.676c-.755.021-1.492.021-2.172.021l.155,1.319a78.447,78.447,0,0,0,10.572-.659Zm-6.925-4.19h2.832v4.52c-.949.059-1.9.1-2.832.116Zm10.262-2.423h-1.59v9.039h1.59Zm-21.977,17.4h1.513v-17.4h-1.513Zm-3.453-10.629h-2.19c-.194-3.279-1.591-5.315-3.685-5.315-2.27,0-3.724,2.325-3.724,6.031,0,3.763,1.453,6.09,3.724,6.09,2.133,0,3.548-2.095,3.685-5.508h2.19v8.477h1.513V-166.6h-1.513Zm-5.876,5.333c-1.4,0-2.27-1.764-2.27-4.616,0-2.793.874-4.557,2.27-4.557,1.358,0,2.25,1.764,2.25,4.557,0,2.852-.892,4.616-2.25,4.616m-4.87-3.491h-2.579a28.765,28.765,0,0,0,.484-5.974v-1.513h-11.677v1.28h10.125v.233a25.712,25.712,0,0,1-.543,5.974h-11.539v1.3h7.021v7.505h1.609v-7.505h7.1Zm-27.62,7.1v-4.169h-1.609v5.47h11.617v-1.3Zm7.914-7.526v4.676h1.611v-12.84h-1.611v2.715h-4.422a4.45,4.45,0,0,0-3.548-1.629,4.292,4.292,0,0,0-4.482,4.363,4.293,4.293,0,0,0,4.482,4.365,4.453,4.453,0,0,0,3.569-1.65Zm0-4.169v2.889h-3.742a4.359,4.359,0,0,0,.233-1.435,4.39,4.39,0,0,0-.233-1.454Zm-10.939,1.454a2.873,2.873,0,0,1,2.968-2.966,2.868,2.868,0,0,1,2.948,2.966,2.87,2.87,0,0,1-2.948,2.969,2.875,2.875,0,0,1-2.968-2.969m-6.478,1.474h-2.871v-6.923h-1.59v17.379h1.59v-9.116h2.871Zm-11.617-5.6c-2.56,0-4.383,2.366-4.383,6.07s1.823,6.07,4.383,6.07,4.363-2.364,4.363-6.07-1.8-6.07-4.363-6.07m0,10.725c-1.688,0-2.87-1.823-2.87-4.655,0-2.811,1.182-4.635,2.87-4.635,1.668,0,2.85,1.823,2.85,4.635,0,2.832-1.182,4.655-2.85,4.655m-7.818-7.875v-4.169h-1.59v10.163h1.59v-4.676h2.581V-162.8Zm-9.271,8.224h9.426v-1.28h-11.017v6.013h11.327v-1.28h-9.737Zm4.539-11.444h-1.552v2.658h-4.927v-2.658h-1.57v8.108h8.048Zm-1.552,6.827h-4.927V-162.1h4.927Zm-19.918,7.914v-3.763h-1.591v5.063h12.3v-1.3Zm.969-3.083h1.591V-157.8c1.57-.1,3.181-.272,4.712-.5l-.135-1.143a94.5,94.5,0,0,1-11.211.5l.212,1.317c1.435,0,3.1-.018,4.831-.1Zm.621-5.858c2.54,0,4.286-1.184,4.286-3.046,0-1.823-1.746-3.026-4.286-3.026s-4.287,1.2-4.287,3.026c0,1.862,1.745,3.046,4.287,3.046m0-4.888c1.648,0,2.773.737,2.773,1.841,0,1.125-1.125,1.862-2.773,1.862s-2.775-.737-2.775-1.862c0-1.1,1.125-1.841,2.775-1.841m3.548,8.4v1.182h3.53v1.787h1.591v-13.249h-1.591v10.28Zm-13.151,7.119h1.59v-17.379h-1.59Zm-6.439-14.3h4.094v-1.319h-9.719v1.319h4.035v2.211a8.891,8.891,0,0,1-4.617,7.466l.931,1.282a9.765,9.765,0,0,0,4.482-5.741,9.188,9.188,0,0,0,4.557,5.315l.892-1.28a8.1,8.1,0,0,1-4.655-7.042Zm-27.173,5.684h15.75v-1.28h-15.75Zm3.51,5.41h10.223v-3.918h-11.832v1.2h10.259v1.552h-10.2v4.171h12.3v-1.241h-10.748Zm4.365-7.875c3.822,0,6.109-1.047,6.109-3.005s-2.286-3.028-6.109-3.028-6.108,1.068-6.108,3.028,2.288,3.005,6.108,3.005m0-4.828c2.852,0,4.482.659,4.482,1.823s-1.629,1.821-4.482,1.821-4.479-.659-4.479-1.821,1.627-1.823,4.479-1.823m-15.943,9.426c-3.569,0-5.8,1.182-5.8,3.238s2.229,3.24,5.8,3.24,5.78-1.184,5.78-3.24-2.211-3.238-5.78-3.238m0,5.237c-2.617,0-4.208-.737-4.208-2s1.591-2.017,4.208-2.017,4.21.758,4.21,2.017-1.59,2-4.21,2m1.668-7.681a5.991,5.991,0,0,1-4.228-5.315v-.6h3.822v-1.28h-9.292v1.28h3.879v.6a6.412,6.412,0,0,1-4.383,5.8l.835,1.262a7.532,7.532,0,0,0,4.383-4.422,7.146,7.146,0,0,0,4.19,3.918Zm-.97-3.959v1.3h3.434v4.559h1.609v-10.357h-1.609v4.5Zm-9.853,2.754h-2.772v-7.272h-1.591v17.4h1.591v-8.787h2.772Zm-11.035-.406h-1.572v5.353c-1.3.039-2.579.059-3.685.059l.176,1.319a71.189,71.189,0,0,0,10.784-.659l-.1-1.164c-1.764.233-3.7.329-5.6.406Zm4,2.891a43.384,43.384,0,0,0,.484-6.9v-.952h-8.785v1.3h7.234a36.986,36.986,0,0,1-.523,6.4Zm-25.215,5.953v-4.073h-1.611v5.374h11.619v-1.3Zm5.449-6.807a5.974,5.974,0,0,1-4.228-5.335v-.853h3.822v-1.3h-9.292v1.3h3.879v.874a6.335,6.335,0,0,1-4.384,5.7l.835,1.244a7.433,7.433,0,0,0,4.384-4.326,7.176,7.176,0,0,0,4.19,3.939Zm-1.027-4.094v1.3h3.491v6.652h1.608v-12.742h-1.608v4.79Zm-29.87,8.806a62.14,62.14,0,0,0,11.268-.755l-.135-1.184a78.353,78.353,0,0,1-11.327.6Zm12.276,3.822h1.591v-17.438h-1.591Zm-6.943-14.8a2.809,2.809,0,0,1,3.1,2.736,2.821,2.821,0,0,1-3.1,2.734,2.822,2.822,0,0,1-3.1-2.734,2.811,2.811,0,0,1,3.1-2.736m0-1.358c-2.7,0-4.655,1.65-4.655,4.094,0,2.423,1.96,4.091,4.655,4.091,2.715,0,4.655-1.668,4.655-4.091,0-2.444-1.94-4.094-4.655-4.094m-6.574,7.332h-2.581a28.652,28.652,0,0,0,.486-5.974v-1.513h-11.676v1.28h10.125v.233a25.7,25.7,0,0,1-.543,5.974h-11.542v1.3h7.021v7.505h1.611v-7.505h7.1Zm-27.62,7.1v-4.169h-1.611v5.47h11.62v-1.3Zm7.913-7.526v4.676h1.609v-12.84h-1.609v2.715h-4.422a4.45,4.45,0,0,0-3.55-1.629,4.29,4.29,0,0,0-4.479,4.363,4.291,4.291,0,0,0,4.479,4.365,4.45,4.45,0,0,0,3.569-1.65Zm0-4.169v2.889h-3.745a4.359,4.359,0,0,0,.233-1.435,4.39,4.39,0,0,0-.233-1.454Zm-10.939,1.454a2.871,2.871,0,0,1,2.967-2.966,2.867,2.867,0,0,1,2.948,2.966,2.869,2.869,0,0,1-2.948,2.969,2.873,2.873,0,0,1-2.967-2.969m-10.086,11.93h1.591v-17.379h-1.591Zm-6.439-14.3h4.092v-1.319h-9.716v1.319h4.035v2.211a8.9,8.9,0,0,1-4.617,7.466l.931,1.282a9.754,9.754,0,0,0,4.479-5.741,9.2,9.2,0,0,0,4.559,5.315l.892-1.28a8.1,8.1,0,0,1-4.655-7.042Zm-6.633,4.073h-2.581v-7.177h-1.591v17.4h1.591v-8.9h2.581Zm-10.455-5.294v1.319h2.676c-.135,3.685-.911,7.485-3.587,10.57l1.28.874c3.2-3.783,3.8-8.573,3.8-12.763Zm-5.294,0v1.319h3.2a13.91,13.91,0,0,1-3.763,9.388l1.241.89c3.163-3.334,4.034-7.407,4.034-11.6Zm-8.5,7.681v-1.823h5.431v-1.241h-10.533v-1.823h10.163v-4.228h-11.772v1.239h10.2v1.8h-10.163v4.249h5.061v1.823h-7.1v1.3h15.789v-1.3Zm-6.943,3.936h10.512v3.745h1.59v-5.043h-12.1Zm-18.426-3.9h15.749v-1.319h-15.749Zm7.854,1.492c-3.7,0-5.953,1.125-5.953,3.142s2.25,3.142,5.953,3.142,5.956-1.125,5.956-3.142-2.25-3.142-5.956-3.142m0,5.043c-2.734,0-4.345-.678-4.345-1.9s1.611-1.9,4.345-1.9,4.345.68,4.345,1.9-1.629,1.9-4.345,1.9m6.052-10.8h-10.337v-3.357h10.22v-1.28h-11.811v5.915h11.927Zm-19.125,3.277v-1.28h-15.75v1.28h7.081v1.707h-5.18v1.2h10.262v1.552h-10.2v4.133h12.3v-1.241h-10.745v-1.727h10.22v-3.918h-5.061v-1.707Zm-2.036-8.03h-11.655v5.294h11.655Zm-1.572,4.034h-8.534v-2.772h8.534Zm-12.685,2.656h-2.772v-7.272h-1.591v17.4h1.591v-8.787h2.772Zm-11.035-.406h-1.572v5.353c-1.3.039-2.578.059-3.685.059l.176,1.319a71.193,71.193,0,0,0,10.784-.659l-.1-1.164c-1.764.233-3.7.329-5.6.406Zm4,2.891a43.32,43.32,0,0,0,.484-6.9v-.952h-8.785v1.3h7.233a36.974,36.974,0,0,1-.522,6.4Zm-21.025,6.207v-2.017h9.6v-4.267H-1458.2v1.28h9.62v1.784h-9.582v4.479h11.754v-1.26Zm7.991-12.2v2.074h-4.539v1.244h4.539v1.8h1.609v-8.883h-1.609v2.521h-3.939a7.836,7.836,0,0,0,.176-1.668h-7.779v1.3h6.051c-.29,2.754-2.715,4.828-6.962,5.817l.582,1.3c3.84-.91,6.5-2.772,7.583-5.508Zm-20.929-3.781v6.574h-3.587v1.319h3.587v9.543h1.591V-167.01Zm-10.357,7.777h5.7v-1.28h-5.7V-164.1h6.46v-1.319h-8.051v11.656h1.339a42.2,42.2,0,0,0,7.952-.543l-.176-1.3a39.088,39.088,0,0,1-7.526.545Zm-3.3,2.56h-15.788v1.28h7.06v5.819h1.591v-5.819h7.138Zm-2-9.62h-1.591v2.385h-8.632v-2.385h-1.57v7.526h11.793Zm-1.591,6.227h-8.632v-2.56h8.632Zm-16.215,4.733h1.59v-11.617h-1.59Zm-10.068,2.074h10.068v3.667h1.59v-4.927h-11.658Zm8.689-4.422c-1.513.215-3.122.331-4.733.408V-158.4c2.056-.192,3.357-1.143,3.357-2.558,0-1.593-1.65-2.6-4.151-2.6-2.464,0-4.112,1.006-4.112,2.6,0,1.4,1.28,2.346,3.316,2.558v1.2c-1.725.057-3.414.057-4.867.057l.233,1.262a70.593,70.593,0,0,0,11.056-.68Zm-8.147-3.277c0-.913,1.047-1.474,2.62-1.474,1.609,0,2.638.561,2.638,1.474,0,.892-1.029,1.474-2.638,1.474-1.572,0-2.62-.582-2.62-1.474m7.72-4.443h-4.306v-1.686h-1.59v1.686h-4.286v1.2h10.182Zm-14.837,15.809h1.591v-17.4h-1.591Zm-11.658-15.517v1.28h6.538c-.331,4.13-2.658,7.466-7.332,9.7l.853,1.3c5.78-2.832,8.087-7.254,8.087-12.276Zm-6.225,6.729h-2.581a28.638,28.638,0,0,0,.486-5.974v-1.513h-11.676v1.28h10.124v.233a25.707,25.707,0,0,1-.543,5.974h-11.542v1.3h7.022v7.505h1.611v-7.505h7.1Zm-27.62,7.1v-4.169h-1.611v5.47h11.619v-1.3Zm7.913-7.526v4.676h1.609v-12.84h-1.609v2.715h-4.422a4.45,4.45,0,0,0-3.549-1.629,4.291,4.291,0,0,0-4.482,4.363,4.292,4.292,0,0,0,4.482,4.365,4.453,4.453,0,0,0,3.569-1.65Zm0-4.169v2.889h-3.742a4.427,4.427,0,0,0,.233-1.435,4.457,4.457,0,0,0-.233-1.454Zm-10.939,1.454a2.873,2.873,0,0,1,2.969-2.966,2.866,2.866,0,0,1,2.946,2.966,2.868,2.868,0,0,1-2.946,2.969,2.875,2.875,0,0,1-2.969-2.969" transform="translate(1707.81 186.384)"/><path class="e" d="M-1572.585-158.525a2.479,2.479,0,0,0,2.423-2.6,2.484,2.484,0,0,0-2.423-2.617,2.473,2.473,0,0,0-2.424,2.617,2.468,2.468,0,0,0,2.424,2.6" transform="translate(1700.957 190.775)"/><path class="d" d="M-1601.925-175.149s-19.405,0-19.405,19.405v50.452s0,19.405,19.405,19.405h40.179s19.405,0,19.405-19.405v-50.452s0-19.405-19.405-19.405Z" transform="translate(1641.579 175.149)"/><path class="f" d="M-1366.893-82.506v-24.827s0-13.746,13.746-13.746h112.608s13.746,0,13.746,13.746v24.827Z" transform="translate(1967.736 244.46)"/><path class="f" d="M-1297.038-82.506v-24.827s0-13.746,13.746-13.746h112.608s13.746,0,13.746,13.746v24.827Z" transform="translate(2057.282 244.46)"/><path class="f" d="M-1436.748-82.506v-24.827s0-13.746,13.746-13.746h112.608s13.746,0,13.746,13.746v24.827Z" transform="translate(1878.191 244.46)"/><path class="f" d="M-1576.459-82.506v-24.827s0-13.746,13.746-13.746H-1450.1s13.746,0,13.746,13.746v24.827Z" transform="translate(1699.098 244.46)"/><rect class="b" width="139.302" height="237.573" transform="translate(601.242 160.356)"/><rect class="g" width="139.302" height="237.573" transform="translate(601.242 160.356)"/><rect class="b" width="139.302" height="237.573" transform="translate(760.645 160.356)"/><rect class="g" width="139.302" height="237.573" transform="translate(760.645 160.356)"/><path class="f" d="M-1227.182-82.506v-24.827s0-13.746,13.746-13.746h112.608s13.746,0,13.746,13.746v24.827Z" transform="translate(2146.829 244.46)"/><rect class="b" width="139.302" height="237.573" transform="translate(920.046 160.356)"/><rect class="g" width="139.302" height="237.573" transform="translate(920.046 160.356)"/><rect class="b" width="139.302" height="237.573" transform="translate(441.842 160.356)"/><rect class="g" width="139.302" height="237.573" transform="translate(441.842 160.356)"/><rect class="b" width="139.302" height="237.573" transform="translate(123.038 160.356)"/><rect class="g" width="139.302" height="237.573" transform="translate(123.038 160.356)"/><path class="f" d="M-1506.6-82.506v-24.827s0-13.746,13.746-13.746h112.609s13.746,0,13.746,13.746v24.827Z" transform="translate(1788.644 244.46)"/><rect class="b" width="139.302" height="237.573" transform="translate(282.439 160.356)"/><rect class="g" width="139.302" height="237.573" transform="translate(282.439 160.356)"/><g class="h" transform="translate(593.918 274.724)"><g class="i"><line class="j" x2="112.878" transform="translate(20.537 16.259)"/></g></g><g class="h" transform="translate(753.32 274.724)"><g class="i"><line class="j" x2="112.878" transform="translate(20.536 16.259)"/></g></g><g class="h" transform="translate(115.713 274.724)"><g class="i"><line class="j" x2="112.878" transform="translate(20.537 16.259)"/></g></g><g class="h" transform="translate(912.721 274.724)"><g class="i"><line class="j" x2="112.878" transform="translate(20.537 16.259)"/></g></g><g class="h" transform="translate(434.517 274.724)"><g class="i"><line class="j" x2="112.878" transform="translate(20.537 16.259)"/></g></g><g class="h" transform="translate(275.116 274.724)"><g class="k"><line class="j" x2="112.878" transform="translate(20.536 16.259)"/></g></g><path d="M-1461.762-85.77v3.163h-3.386v.719h3.386v4.472h.847V-85.77Zm-8.513,9.935h8.513v4.265h.847v-4.968h-9.36Zm5.974-2.971a5.389,5.389,0,0,1-3.626-4.648v-1.613h-.815v1.581a5.582,5.582,0,0,1-3.642,5.032l.447.687a6.355,6.355,0,0,0,3.642-3.929,6.321,6.321,0,0,0,3.53,3.578Zm-22.091.687v.7h6.07v3.051h.846v-3.051h5.974v-.7Zm2.556,2.38h-.831v3.818h9.727v-.719h-8.9Zm8.594-9.584h-.846v2.013h-7.7v-2.013h-.846v5.591h9.392Zm-.846,4.872h-7.7v-2.156h7.7Zm-27.857,6.821h12.874v-.719h-12.874Zm11.308-5.159h-8.753v-4.856h8.609v-.719h-9.44v6.293h9.583Zm-21.548,6.15v-3.514h-.846v4.233h9.552v-.719Zm3.258-5.958a23.384,23.384,0,0,1-5.319.479h-.048v-2.636h4.153v-3.8h-5.032v.687h4.2v2.428h-4.153V-77.4h.878a25.55,25.55,0,0,0,5.431-.479Zm1.422,3.115h.815V-85.514h-.815V-81.6h-2.029v.719h2.029Zm3.546-10.271h-.815v10.67h.815Zm-25.781,12.235h12.874v-.719h-12.874Zm11.341-4.393h-8.737v-2.62h8.29v-.7h-8.29v-2.492h8.594v-.719H-1530v7.252h9.6Zm-16.085-.751h-2.22a22.769,22.769,0,0,0,.415-4.9V-84.78h-9.328v.7h8.5v.511a20.424,20.424,0,0,1-.463,4.9h-9.728v.719h5.99v6.389h.847v-6.389h5.99Zm-23.177,6.022v-3.674h-.846v4.393h9.3v-.719Zm7.172-6.661v4.089h.847V-85.754h-.847v2.348h-3.9a3.654,3.654,0,0,0-2.971-1.406,3.4,3.4,0,0,0-3.594,3.466,3.4,3.4,0,0,0,3.594,3.482,3.579,3.579,0,0,0,2.987-1.438Zm0-3.386v2.668h-3.5a3.911,3.911,0,0,0,.224-1.326,4.005,4.005,0,0,0-.24-1.342Zm-9.647,1.342a2.689,2.689,0,0,1,2.779-2.715,2.689,2.689,0,0,1,2.779,2.715,2.7,2.7,0,0,1-2.779,2.747,2.7,2.7,0,0,1-2.779-2.747m-8.511,4.632h3.927v-.78h-3.927Z" transform="translate(1706.546 289.722)"/><path d="M-1490.051-84.639h12.874v-.719h-12.874Zm11.309-5.159h-8.753v-4.856h8.609v-.719h-9.44v6.293h9.584Zm-12.331,1.262h-12.874v.719h5.974v5.223h.847v-5.223h6.054Zm-6.469-1.486c2.923,0,4.872-1.2,4.872-3.083,0-1.869-1.948-3.051-4.872-3.051-2.907,0-4.856,1.182-4.856,3.051,0,1.885,1.948,3.083,4.856,3.083m0-5.431c2.364,0,4.009.958,4.009,2.348,0,1.406-1.645,2.38-4.009,2.38-2.348,0-3.993-.974-3.993-2.38,0-1.39,1.645-2.348,3.993-2.348m-7.012,4.5h-2.492v-5.814h-.846v14.2h.846V-90.23h2.492Zm-11.868,4.153v-3.754h5.463v-4.84h-6.342v.735h5.511v3.37h-5.463v5.207h1.086a35.138,35.138,0,0,0,6.948-.527l-.08-.735a33.084,33.084,0,0,1-6.869.543Zm-4.552-3.977a20.52,20.52,0,0,0,.351-4.249V-96h-9.44v.719h8.626v.256c0,.431,0,.91-.032,1.422l-8.913.351.128.687,8.753-.383a16.853,16.853,0,0,1-.352,2.172h-9.871v.719h12.81v-.719Zm-8.322,5.415h8.8v-3.051h-9.68v.7h8.849v1.661h-8.8V-82.8h10.143v-.7h-9.312Zm-20.014.719h12.874v-.719h-12.874ZM-1538-89.8h-8.753v-4.856h8.609v-.719h-9.44v6.293H-1538Zm-14.615-6.948V-87h-3.434v.7h3.434v3.722h.846V-96.747Zm-1.2,7.124a67.33,67.33,0,0,1-9.44.5l.144.751c1.2,0,2.587-.016,4.025-.08v5.431h.846v-5.463a42.316,42.316,0,0,0,4.489-.463Zm-4.792-.926c2.108,0,3.53-1.07,3.53-2.715s-1.422-2.715-3.53-2.715-3.53,1.07-3.53,2.715,1.422,2.715,3.53,2.715m0-4.76c1.6,0,2.715.863,2.715,2.045s-1.118,2.045-2.715,2.045c-1.614,0-2.732-.863-2.732-2.045s1.118-2.045,2.732-2.045m-12.042,7.587h3.927v-.78h-3.927Z" transform="translate(1706.546 275.63)"/><path d="M-1473.1-74.747v3.834h-2.236v-3.594h-.815v8.226h.815v-3.913h2.236v3.977h.815v-8.53Zm-8.546,10.127h8.514v4.041h.846v-4.76h-9.36Zm4.536-3.195a4.616,4.616,0,0,1-3.019-4.009v-2.061h-.814v2.061a5.294,5.294,0,0,1-3.083,4.361l.479.655a5.993,5.993,0,0,0,3.019-3.418,5.363,5.363,0,0,0,2.971,3.083Zm-10.239-6.948v3.834h-3.466v.719h3.466v3.642h.846v-8.194Zm-8.179,13.945h9.025v-5.127h-9.025Zm.815-4.441h7.379v3.738h-7.379Zm-2.444-8.546v.719h5.447c-.208,2.731-2.6,4.776-6.134,5.782l.367.7c4.025-1.166,6.677-3.722,6.677-7.2Z" transform="translate(1799.877 303.832)"/><path d="M-1413.605-76.313c-2.907,0-4.648.879-4.648,2.4s1.741,2.38,4.648,2.38c2.923,0,4.664-.863,4.664-2.38s-1.741-2.4-4.664-2.4m0,4.105c-2.3,0-3.786-.639-3.786-1.709s1.485-1.709,3.786-1.709c2.316,0,3.8.639,3.8,1.709s-1.486,1.709-3.8,1.709m.208-7.539c0-1.6-1.278-2.62-3.147-2.62s-3.147,1.022-3.147,2.62c0,1.581,1.278,2.62,3.147,2.62s3.147-1.038,3.147-2.62m-5.495,0c0-1.134.959-1.933,2.348-1.933s2.332.8,2.332,1.933-.942,1.933-2.332,1.933-2.348-.8-2.348-1.933m6.358-4.2h-3.578v-1.869h-.847v1.869h-3.626v.7h8.051Zm-.1,1.837v.719h2.747v2.013h-2.763v.7h2.763v2.22h.846v-9.232h-.846v3.578Zm-9.041,4.265v-.719H-1434.5v.719h6.006v1.837h-4.377v4.3h9.616v-4.3h-4.392v-1.837Zm-2.412,5.415h-7.97v-2.875h7.97Zm-9.264-7.14c2.124-.3,4.456-1.166,5.271-2.779.815,1.613,3.147,2.476,5.287,2.779l.255-.687c-2.332-.256-5.08-1.374-5.1-3.322h4.616v-.7h-4.632v-1.549h-.847v1.549h-4.616v.7h4.584c-.016,1.949-2.764,3.067-5.1,3.322Zm-4.105-2.524v-3.578h-.846v8.162h.846v-3.85h2.22V-82.1Zm-3.881,6.261,4.153-.016v-.719h-9.153v.719h4.137v.016c0,1.8-2.54,3.227-4.664,3.626l.335.655c1.917-.367,4.009-1.438,4.76-3,.783,1.549,2.875,2.636,4.76,3.019l.335-.671c-2.108-.4-4.664-1.837-4.664-3.626m.016-8.849h-6.373v5.958h6.373Zm-.814,5.255h-4.728V-83.98h4.728Zm-10.543-.335h-2.492v-5.91h-.846v14.184h.846v-7.555h2.492Zm-8.753-3.674h3.338v-.735h-7.571v.735h3.4v2.38a7.784,7.784,0,0,1-3.882,6.1l.527.7a8.763,8.763,0,0,0,3.77-4.952,8.252,8.252,0,0,0,3.689,4.6l.5-.687a7.216,7.216,0,0,1-3.77-5.766Zm-8.913,4.936V-80.69a2.322,2.322,0,0,0,1.805-2.124c0-1.645-1.869-2.572-4.92-2.572-3.035,0-4.888.926-4.888,2.572a2.341,2.341,0,0,0,1.821,2.14V-78.5h-3.323v.719h12.811V-78.5Zm-7.14-4.313c0-1.166,1.581-1.885,4.025-1.885,2.476,0,4.057.719,4.057,1.885s-1.581,1.9-4.057,1.9c-2.444,0-4.025-.735-4.025-1.9m1.8,2.38a11.411,11.411,0,0,0,2.22.208,11.978,11.978,0,0,0,2.284-.208V-78.5h-4.5Zm2.236,3.945c-3.019,0-4.824.879-4.824,2.476s1.805,2.492,4.824,2.492,4.824-.895,4.824-2.492-1.805-2.476-4.824-2.476m0,4.281c-2.428,0-3.977-.671-3.977-1.8,0-1.118,1.549-1.8,3.977-1.8s3.977.687,3.977,1.8c0,1.134-1.549,1.8-3.977,1.8m-7.028-7.555h-2.492v-5.926h-.847v14.2h.847v-7.555h2.492Zm-8.817-4.616h-.815v2.843a7.848,7.848,0,0,1-3.785,6.261l.527.687a8.7,8.7,0,0,0,3.69-5,8.24,8.24,0,0,0,3.674,4.7l.527-.655a7.537,7.537,0,0,1-3.818-5.99Zm-11.913,7.747h3.927v-.78h-3.927Z" transform="translate(1795.571 289.641)"/><path d="M-1405.858-96.657v3.834h-2.236v-3.594h-.815v8.226h.815V-92.1h2.236v3.977h.814v-8.53ZM-1414.4-86.53h8.514v4.041h.846v-4.76h-9.36Zm4.536-3.195a4.616,4.616,0,0,1-3.019-4.009v-2.061h-.814v2.061a5.3,5.3,0,0,1-3.083,4.361l.479.655a6,6,0,0,0,3.019-3.418,5.361,5.361,0,0,0,2.971,3.083Zm-10.239-6.948v3.834h-3.466v.719h3.466v3.642h.846v-8.194Zm-8.178,13.945h9.025v-5.127h-9.025Zm.815-4.441h7.38v3.738h-7.38Zm-2.444-8.546V-95h5.447c-.208,2.731-2.6,4.776-6.134,5.782l.367.7c4.025-1.166,6.677-3.722,6.677-7.2Zm-5.191,4.92h-2.492v-5.894h-.846v14.2h.846v-7.587h2.492Zm-11.788,4.041V-90.6h5.351v-.719h-5.351v-3.29h5.734v-.719h-6.581v9.3h1.07a35.314,35.314,0,0,0,6.8-.5l-.112-.719a33.83,33.83,0,0,1-6.693.5Zm-4.217,4.265h.814V-96.673h-.814Zm-2.78-8.737h-2.524v-3.706h-5.287v8.482h5.287v-4.057h2.524v7.268h.815V-96.322h-.815Zm-3.322,4.073h-3.69v-7.092h3.69Zm-9.488-5.782h-2.22v-3.754h-.847v8.226h.847V-92.2h2.22Zm-3.067,6.884h-7.06v-1.757h-.846v5.1h8.754v-5.1h-.847Zm0,2.636h-7.06v-1.933h7.06Zm-2.492-7.667c0-1.517-1.326-2.46-3.338-2.46-2.029,0-3.354.942-3.354,2.476,0,1.517,1.325,2.46,3.354,2.46,2.013,0,3.338-.942,3.338-2.476m-5.894,0c0-1.054,1.022-1.789,2.556-1.789,1.517,0,2.54.735,2.54,1.8,0,1.054-1.022,1.789-2.54,1.789s-2.556-.735-2.556-1.8m6.756-4.009h-3.769v-1.741h-.847v1.741h-3.786v.7h8.4Zm-15.526,6.054v-1.725h4.409v-.687h-8.641v-1.757h8.178v-.687h-8.178v-1.661h8.578v-.687H-1492v5.479h4.233v1.725h-5.974v.719h12.811v-.719Zm-.415,2.045c-3.083,0-4.824.767-4.824,2.22,0,1.47,1.741,2.236,4.824,2.236s4.824-.767,4.824-2.236c0-1.454-1.741-2.22-4.824-2.22m0,3.786c-2.476,0-3.977-.559-3.977-1.565,0-.974,1.5-1.565,3.977-1.565s3.977.591,3.977,1.565c0,1.006-1.5,1.565-3.977,1.565m-13.862-4.425h3.927v-.78h-3.927Z" transform="translate(1795.571 275.541)"/><path d="M-1353.925-51.639h12.874v-.719h-12.874Zm11.309-5.159h-8.753v-4.856h8.609v-.719h-9.44v6.293h9.584Zm-18.369,4.632v-2.987h4.7v-.719h-9.009V-58.6h8.673v-4.025h-9.552v.7h8.721v2.62h-8.673v4.153h4.3v2.987h-5.99v.735h12.89v-.735Zm-20.749-4.217v.719h6.134v3.147h.847v-3.147h5.91v-.719Zm2.572,2.38h-.831v4.073h9.728v-.735h-8.9Zm3.85-3.77c2.987,0,4.9-1.07,4.9-2.8s-1.917-2.779-4.9-2.779c-2.955,0-4.872,1.054-4.872,2.779s1.917,2.8,4.872,2.8m0-4.872c2.4,0,4.025.831,4.025,2.077s-1.63,2.077-4.025,2.077c-2.364,0-3.993-.831-3.993-2.077s1.63-2.077,3.993-2.077m-7.012,4.7h-2.492v-5.814h-.847v14.2h.847V-57.23h2.492Zm-11.788,4.025v-7.715h5.719v-.719h-6.565v9.169h1.07a33.912,33.912,0,0,0,6.8-.511l-.112-.735a33.639,33.639,0,0,1-6.693.511Zm-12.235-2.588v-2.364h-.846v2.364h-5.99v.719h12.906v-.719Zm-5.4,3.051h8.945v3.881h.846v-4.6h-9.792Zm10.558-5.4c-2.125-.319-5.143-1.9-5.143-3.961v-.751h-.863v.751c0,2.092-3,3.642-5.144,3.961l.336.687c1.981-.367,4.408-1.533,5.239-3.306.863,1.741,3.29,2.939,5.239,3.306Zm-19.791,6.389v-5.191h-.83v5.191h-5.255v.719h12.826v-.719Zm4.169-8.306a30.341,30.341,0,0,1-.511,6.293l.863.128a33.057,33.057,0,0,0,.495-6.421V-62.2h-9.711v.7h8.865Z" transform="translate(1890.602 317.932)"/><path d="M-1339.018-74.77v5.559h-3.259v.735h3.259v7.923h.847V-74.77Zm-9.2,9.951v-3.85h5.015v-.719h-5.015v-3.29h5.7v-.735h-6.549V-64.1h1.054a32.31,32.31,0,0,0,6.581-.479l-.08-.719a30.312,30.312,0,0,1-6.5.479Zm-11.277-8.034c1.582,0,2.7,1.693,2.7,4.121s-1.118,4.137-2.7,4.137c-1.6,0-2.715-1.709-2.715-4.137s1.118-4.121,2.715-4.121m0-.751c-2.076,0-3.53,1.917-3.53,4.872,0,2.971,1.453,4.872,3.53,4.872,2.061,0,3.514-1.9,3.514-4.872,0-2.955-1.453-4.872-3.514-4.872m6.533,13.034h.846V-74.754h-.846Zm-13.417,0h.831V-74.754h-.831Zm-2.811-8.641h-3.4v.719h3.4v7.14h.815V-74.371h-.815Zm-6.885,4.329v-7.332h4.441v-.719h-5.287v8.785h.879a23.319,23.319,0,0,0,5.351-.431l-.112-.735a21.39,21.39,0,0,1-5.239.431Zm-5.862-6.757v-.735h-2.22v-2.38H-1385v8.61h.847v-2.508h2.22v-.719h-2.22v-2.268Zm-6.693,6.006c-2.843,0-4.584.91-4.584,2.508,0,1.613,1.741,2.524,4.584,2.524,2.859,0,4.584-.91,4.584-2.524,0-1.6-1.725-2.508-4.584-2.508m0,4.345c-2.284,0-3.754-.7-3.754-1.837,0-1.118,1.47-1.821,3.754-1.821s3.754.7,3.754,1.821c0,1.134-1.47,1.837-3.754,1.837m2.012-7.044a37.579,37.579,0,0,1-6.725.5h-.223V-70.25h5.447v-3.61h-6.325v.719h5.51v2.2h-5.462v3.818h1.054a40.234,40.234,0,0,0,6.821-.479Zm-12.858.751V-69.77a2.322,2.322,0,0,0,1.805-2.124c0-1.645-1.869-2.572-4.92-2.572-3.035,0-4.888.926-4.888,2.572a2.341,2.341,0,0,0,1.821,2.14v2.172h-3.322v.719h12.81v-.719Zm-7.14-4.313c0-1.166,1.581-1.885,4.025-1.885,2.476,0,4.057.719,4.057,1.885s-1.581,1.9-4.057,1.9c-2.444,0-4.025-.735-4.025-1.9m1.8,2.38a11.41,11.41,0,0,0,2.22.208,11.982,11.982,0,0,0,2.284-.208v1.933h-4.5Zm2.236,3.945c-3.019,0-4.824.879-4.824,2.476s1.8,2.492,4.824,2.492,4.824-.895,4.824-2.492-1.8-2.476-4.824-2.476m0,4.281c-2.428,0-3.977-.671-3.977-1.8,0-1.118,1.55-1.8,3.977-1.8s3.977.687,3.977,1.8c0,1.134-1.549,1.8-3.977,1.8m-9.169-13.465v5.83h-2.444V-74.4H-1415v13.05h.814v-6.852h2.444v7.619h.831V-74.754Zm-9.727,9.76v-7.268h4.456V-73h-5.287v8.737h.879a23.046,23.046,0,0,0,5.383-.447l-.112-.735a21.091,21.091,0,0,1-5.287.447Zm-8.863-.719h3.927v-.78h-3.927Z" transform="translate(1886.413 303.823)"/><path d="M-1407.376-79.006v-2.875h-.846v2.875h-5.559v.719h12.794v-.719Zm-.048,2.252c-3,0-4.888.958-4.888,2.572s1.885,2.556,4.888,2.556,4.888-.942,4.888-2.556-1.885-2.572-4.888-2.572m0,4.441c-2.411,0-4.041-.735-4.041-1.869s1.63-1.885,4.041-1.885,4.057.751,4.057,1.885-1.645,1.869-4.057,1.869m3.93-11.453a12.637,12.637,0,0,1-.383,3.61l.815.112a13.324,13.324,0,0,0,.383-3.722V-85h-9.552v.719h8.737Zm-13.066,12.188h.831V-85.763h-.831Zm-2.844-8.961h-2.635v.735h2.635v7.443h.815V-85.38h-.815Zm-4.344-2.715h2.827v-.719h-6.581v.719h2.939v1.645a7.652,7.652,0,0,1-3.258,6.437l.559.639a7.777,7.777,0,0,0,3.115-4.824,7.333,7.333,0,0,0,3.035,4.488l.543-.639a7.219,7.219,0,0,1-3.179-6.1Z" transform="translate(1889.633 289.731)"/><path d="M-1319.211-96.77v5.559h-3.259v.735h3.259v7.923h.847V-96.77Zm-9.2,9.951v-3.85h5.016v-.719h-5.016v-3.29h5.7v-.735h-6.549V-86.1h1.054a32.313,32.313,0,0,0,6.581-.479l-.08-.719a30.315,30.315,0,0,1-6.5.479Zm-10.478-8.035c1.581,0,2.7,1.693,2.7,4.121s-1.118,4.137-2.7,4.137c-1.6,0-2.715-1.709-2.715-4.137s1.118-4.121,2.715-4.121m0-.751c-2.077,0-3.53,1.917-3.53,4.872,0,2.971,1.454,4.872,3.53,4.872,2.06,0,3.514-1.9,3.514-4.872,0-2.955-1.454-4.872-3.514-4.872m6.533,13.034h.847V-96.754h-.847Zm-12.619,0h.831V-96.754h-.831Zm-2.811-8.641h-3.4v.719h3.4v7.14h.815V-96.371h-.815Zm-6.884,4.329v-7.332h4.44v-.719h-5.287v8.785h.879a23.32,23.32,0,0,0,5.351-.431l-.112-.735a21.392,21.392,0,0,1-5.239.431Zm-1.725-2.779h-2.22a22.782,22.782,0,0,0,.415-4.9V-95.78h-9.328v.7h8.5v.511a20.408,20.408,0,0,1-.463,4.9h-9.728v.719h5.99v6.389h.846v-6.389h5.99Zm-22.378,6.022v-3.674h-.846v4.393h9.3v-.719Zm7.172-6.661v4.089h.846V-96.754h-.846v2.348h-3.9a3.654,3.654,0,0,0-2.971-1.406,3.4,3.4,0,0,0-3.594,3.466,3.4,3.4,0,0,0,3.594,3.482,3.58,3.58,0,0,0,2.987-1.438Zm0-3.386v2.668h-3.5a3.914,3.914,0,0,0,.224-1.326,4.008,4.008,0,0,0-.24-1.342Zm-9.648,1.342a2.689,2.689,0,0,1,2.779-2.715,2.689,2.689,0,0,1,2.78,2.715,2.7,2.7,0,0,1-2.78,2.747,2.7,2.7,0,0,1-2.779-2.747m-6.5,9.792h.846V-96.77h-.846Zm-5.479-6.773a3.255,3.255,0,0,0,3.306-3.227c0-1.933-1.533-3.243-3.738-3.243s-3.738,1.31-3.738,3.243a3.269,3.269,0,0,0,3.323,3.227v2.747c-1.485.048-2.907.048-4.121.048l.144.735a53.655,53.655,0,0,0,9.376-.591l-.08-.655a37.22,37.22,0,0,1-4.472.415Zm-3.354-3.227a2.648,2.648,0,0,1,2.923-2.508,2.648,2.648,0,0,1,2.923,2.508,2.648,2.648,0,0,1-2.923,2.508,2.648,2.648,0,0,1-2.923-2.508m-3.658-4.217v5.958h-2.46v-5.607h-.815v13.082h.815v-6.725h2.46v7.491h.815v-14.2Zm-9.5,1.8h-.846v8.594h.846a25.178,25.178,0,0,0,5.191-.5l-.112-.751a23.974,23.974,0,0,1-5.079.479Zm-1.853,4.808v-.719h-2.156a18.469,18.469,0,0,0,.383-4.2v-.974h-9.44v.719h8.625v.256a16.612,16.612,0,0,1-.431,4.2h-9.871v.719h6.006V-87.2h-4.632v.719h9.041v3.913h.847V-87.2h-4.409v-2.955Zm-18.734,2.444h3.927v-.78h-3.927Z" transform="translate(1886.413 275.621)"/><path d="M-1286.83-67.671h-2.22a22.776,22.776,0,0,0,.415-4.9v-1.214h-9.328v.7h8.5v.511a20.424,20.424,0,0,1-.463,4.9h-9.728v.719h5.99v6.389h.846v-6.389h5.99Zm-19.887,4.472V-67.24h4.473v-.719h-8.737V-72.83h8.594v-.719h-9.44v6.309h4.265V-63.2h-5.99v.719h12.874V-63.2Zm-13.4,2.636h.847v-14.2h-.847ZM-1329.1-64.8v-3.786h5.59v-4.808h-6.485v.735h5.655V-69.3h-5.607v5.223h1.134a43.612,43.612,0,0,0,7.236-.527l-.08-.719a44.576,44.576,0,0,1-7.156.527Zm-4.584-9.967v5.814h-3.386v.735h3.386v7.635h.847V-74.763Zm-6.038,3.259h3.338v-.719h-3.322v-2.332h-.847v2.332h-3.386v.719h3.4v1.422a7.058,7.058,0,0,1-3.738,6.022l.511.671a7.8,7.8,0,0,0,3.642-4.744,7.431,7.431,0,0,0,3.674,4.457l.511-.655a6.749,6.749,0,0,1-3.786-5.75Zm-14.7,9.855v-3.626h-.847v4.345h9.3v-.719Zm4.712-5.686c-1.932-.7-3.578-2.492-3.578-4.425v-1.022h3.323V-73.5h-7.54v.719h3.386v1.038a5.5,5.5,0,0,1-3.705,4.776l.447.687a6.418,6.418,0,0,0,3.69-3.85,6.188,6.188,0,0,0,3.546,3.482Zm-.751-3.37v.719h3.21v5.67h.847V-74.763h-.847v4.057Z" transform="translate(1979.373 303.832)"/><path d="M-1279.4-72.64v-3.211h-.847v3.929h9.44v-.719Zm5.91-5.639c-1.31.16-2.763.256-4.185.319v-2.268h3.019v-.719h-5.926v-3.147h5.83v-.7h-6.661v4.568h2.891v2.316c-1.485.048-2.939.08-4.233.08l.16.751a68.689,68.689,0,0,0,9.153-.559Zm2.156-7.475h-.847V-75.18h.847Zm-11.852,6.182h-2.46v-6.182h-.846v14.168h.846v-7.252h2.46Zm-8.434,2.508c1.725-.144,2.859-1.1,2.859-2.572,0-1.6-1.326-2.6-3.274-2.6-1.965,0-3.259,1.006-3.259,2.6,0,1.47,1.118,2.428,2.827,2.572v1.773c-1.47.064-2.875.064-4.089.064l.159.735a55.615,55.615,0,0,0,9.025-.559l-.064-.655c-1.326.208-2.763.3-4.185.383Zm-2.891-2.572c0-1.134.99-1.917,2.476-1.917,1.469,0,2.476.783,2.476,1.917,0,1.118-1.006,1.917-2.476,1.917-1.485,0-2.476-.8-2.476-1.917m6.741-4.313h-3.85V-85.77h-.846v1.821h-3.85v.719h8.546Zm-22.187,6.469h12.811V-78.2h-12.811Zm1.422,2.348h8.833v3.562h.847v-4.265h-9.679Zm9.807-5.383h-8.641V-82.3h8.178v-.687h-8.178v-1.661h8.578v-.687h-9.424v5.527h9.488Zm-24.694,7.875v-3.738h-.847v4.457h9.392v-.719Zm4.121-8.657a3.379,3.379,0,0,0-3.594-3.418,3.379,3.379,0,0,0-3.594,3.418,3.4,3.4,0,0,0,3.594,3.45,3.4,3.4,0,0,0,3.594-3.45m-6.373,0a2.669,2.669,0,0,1,2.779-2.668,2.669,2.669,0,0,1,2.779,2.668,2.685,2.685,0,0,1-2.779,2.7,2.685,2.685,0,0,1-2.779-2.7m10.319-4.441h-.846v10.462h.846ZM-1329.3-71.57h.815V-85.754h-.815Zm-2.779-8.737h-2.524v-3.706h-5.287v8.482h5.287v-4.057h2.524v7.268h.814V-85.4h-.814Zm-3.323,4.073h-3.69v-7.092h3.69Zm-11.82,2.045v-4.041h4.472v-.719h-8.737v-4.872h8.594v-.719h-9.44v6.309h4.265v4.041h-5.99v.719h12.874v-.719Zm-13.639-2.524h3.927v-.78h-3.927Z" transform="translate(1975.471 289.722)"/><path d="M-1263.76-89.671h-2.22a22.776,22.776,0,0,0,.415-4.9v-1.214h-9.328v.7h8.5v.511a20.424,20.424,0,0,1-.463,4.9h-9.728v.719h5.99v6.389h.847v-6.389h5.99Zm-19.886,4.472V-89.24h4.472v-.719h-8.737V-94.83h8.594v-.719h-9.44v6.309h4.265V-85.2h-5.99v.719h12.874V-85.2Zm-13.258,2.62h.831V-96.763h-.831Zm-2.843-8.961h-2.636v.735h2.636v7.443h.815V-96.38h-.815Zm-4.345-2.715h2.827v-.719h-6.581v.719h2.939v1.645a7.652,7.652,0,0,1-3.258,6.437l.559.639a7.778,7.778,0,0,0,3.115-4.824,7.333,7.333,0,0,0,3.035,4.488l.543-.639a7.22,7.22,0,0,1-3.179-6.1Zm-10.878,6.469c-2.891,0-4.648.926-4.648,2.588s1.757,2.588,4.648,2.588c2.875,0,4.648-.926,4.648-2.588s-1.773-2.588-4.648-2.588m0,4.488c-2.316,0-3.8-.719-3.8-1.9s1.485-1.9,3.8-1.9,3.818.719,3.818,1.9-1.5,1.9-3.818,1.9m1.278-6.309c-1.933-.7-3.578-2.492-3.578-4.425v-.879h3.323v-.719h-7.539v.719h3.386v.894a5.544,5.544,0,0,1-3.69,4.824l.431.687a6.41,6.41,0,0,0,3.705-3.881,6.065,6.065,0,0,0,3.53,3.45Zm-.735-3.322v.719h3.195v3.9h.847v-8.45h-.847v3.834Zm-18.241,4.041V-90.6h4.281v-5.591h-.846v2.029h-7.7v-2.029h-.847V-90.6h4.265v1.709h-6.006v.719h12.827v-.719Zm-4.265-4.568h7.7v2.172h-7.7Zm-.016,6.629h-.846v3.9h9.7v-.719h-8.849Zm-5.766,4.249h.846V-96.763h-.846Zm-9.824-12.619v.719h5.67c-.224,3.5-2.38,6.517-6.277,8.4l.463.7c4.568-2.252,6.661-5.862,6.661-9.823Zm-8.32,7.475h3.927v-.78h-3.927Z" transform="translate(1975.471 275.63)"/><path d="M-1238.641-57.006v-2.875h-.847v2.875h-5.558v.719h12.794v-.719Zm-.048,2.252c-3,0-4.888.958-4.888,2.572s1.885,2.556,4.888,2.556,4.888-.942,4.888-2.556-1.885-2.572-4.888-2.572m0,4.441c-2.412,0-4.042-.735-4.042-1.869s1.63-1.885,4.042-1.885,4.057.751,4.057,1.885-1.646,1.869-4.057,1.869m3.929-11.453a12.637,12.637,0,0,1-.383,3.61l.814.112a13.32,13.32,0,0,0,.384-3.722V-63h-9.552v.719h8.737Zm-12.746,12.187h.83V-63.763h-.83Zm-2.844-8.961h-2.635v.735h2.635v7.443h.815V-63.38h-.815Zm-4.345-2.715h2.827v-.719h-6.581v.719h2.939v1.645a7.651,7.651,0,0,1-3.258,6.437l.559.639a7.776,7.776,0,0,0,3.115-4.824,7.333,7.333,0,0,0,3.035,4.488l.543-.639a7.22,7.22,0,0,1-3.178-6.1Zm-8.067,4.584h-2.22a22.776,22.776,0,0,0,.415-4.9v-1.214h-9.328v.7h8.5v.511a20.408,20.408,0,0,1-.463,4.9h-9.728v.719h5.99v6.389h.846v-6.389h5.99Zm-19.567,4.472V-56.24h4.472v-.719h-8.737V-61.83H-1278v-.719h-9.44v6.309h4.265V-52.2h-5.99v.719h12.874V-52.2Z" transform="translate(2067.375 317.932)"/><path d="M-1183.961-68.572h-2.46v-6.182h-.847v14.168h.847v-7.252h2.46Zm-8.434,2.508c1.725-.144,2.859-1.1,2.859-2.572,0-1.6-1.326-2.6-3.275-2.6-1.965,0-3.259,1.006-3.259,2.6,0,1.47,1.118,2.428,2.827,2.572v1.773c-1.47.064-2.875.064-4.089.064l.16.735a55.614,55.614,0,0,0,9.025-.559l-.064-.655c-1.325.208-2.763.3-4.185.383Zm-2.891-2.572c0-1.134.99-1.917,2.476-1.917,1.47,0,2.476.783,2.476,1.917,0,1.118-1.006,1.917-2.476,1.917-1.486,0-2.476-.8-2.476-1.917m6.741-4.313h-3.849V-74.77h-.847v1.821h-3.85v.719h8.546Zm-11.533,12.4h.847v-14.2h-.847ZM-1206-73.444h-.831v2.827a7.859,7.859,0,0,1-3.913,6.309l.527.687A8.614,8.614,0,0,0-1206.4-68.6a8.439,8.439,0,0,0,3.817,4.76l.527-.687A7.465,7.465,0,0,1-1206-70.617Zm-5.063,4.632h-2.46v-5.942h-.846V-60.57h.846v-7.507h2.46Zm-12.443-4.377v.719h5.559c-.224,3.45-2.316,6.485-6.15,8.386l.479.671c4.5-2.252,6.5-5.91,6.5-9.776Zm-4.537,4.488h-2.492v-6.07h-.846v14.2h.846v-7.364h2.492Zm-9.249-.367h-.831v4.457c-1.166.032-2.284.032-3.29.032l.144.751a66.555,66.555,0,0,0,8.961-.527l-.064-.639a48.48,48.48,0,0,1-4.92.351Zm3.355,2.22a35.5,35.5,0,0,0,.431-5.75v-.527h-7.092v.7h6.262a33.6,33.6,0,0,1-.448,5.495Zm-17.443,5.431v-2.092h8.114V-66.72h-8.993V-66h8.162v1.8h-8.115v3.482h9.52v-.7Zm7.268-10.415v1.981h-4.057v.7h4.057v1.709h.847v-7.316h-.847v2.22h-3.61a5.885,5.885,0,0,0,.175-1.422h-6.325v.719h5.415c-.191,2.6-2.524,4.5-6.086,5.4l.319.7c3.131-.8,5.431-2.412,6.293-4.7Zm-16.931-2.939v3.163h-3.386v.719h3.386v4.472h.846V-74.77Zm-8.514,9.935h8.514v4.265h.846v-4.968h-9.361Zm5.974-2.971a5.389,5.389,0,0,1-3.626-4.648v-1.613h-.815v1.581a5.582,5.582,0,0,1-3.641,5.032l.447.687a6.354,6.354,0,0,0,3.642-3.929,6.322,6.322,0,0,0,3.53,3.578Zm-21.771.687v.7h6.07v3.051h.846v-3.051h5.974v-.7Zm2.556,2.38h-.831v3.818h9.728v-.719h-8.9Zm8.594-9.584h-.846v2.013h-7.7v-2.013h-.847v5.591h9.392Zm-.846,4.872h-7.7v-2.156h7.7Zm-17.089,3.738h3.927v-.78h-3.927Z" transform="translate(2063.554 303.823)"/><path d="M-1228.827-72.649v-3.37h-.831v4.089h9.712v-.719Zm1.342-2.875h.846v-2.891a39.432,39.432,0,0,0,4.137-.415l-.08-.623a78.116,78.116,0,0,1-9.232.415l.128.735c1.246,0,2.668,0,4.2-.064Zm.319-4.744c2.076,0,3.45-.942,3.45-2.444,0-1.486-1.374-2.428-3.45-2.428s-3.466.942-3.466,2.428c0,1.5,1.39,2.444,3.466,2.444m0-4.217c1.565,0,2.651.735,2.651,1.773,0,1.07-1.086,1.789-2.651,1.789s-2.652-.719-2.652-1.789c0-1.038,1.086-1.773,2.652-1.773m2.987,7.188v.671h3.019v1.677h.846v-10.8h-.846v8.45Zm-10.462,5.718h.847V-85.763h-.847Zm-5.862-11.948h3.578v-.735h-7.923v.735h3.514v2.4a7.791,7.791,0,0,1-3.914,6.1l.527.687a8.716,8.716,0,0,0,3.8-4.92,8.031,8.031,0,0,0,3.881,4.568l.511-.671a7.045,7.045,0,0,1-3.977-5.766Zm-8.45,3.578h-2.492v-5.814h-.846v14.2h.846V-79.23h2.492Zm-11.868,4.153v-3.754h5.463v-4.84h-6.342v.735h5.511v3.37h-5.463v5.207h1.086a35.138,35.138,0,0,0,6.948-.527l-.08-.735a33.08,33.08,0,0,1-6.868.543Zm-15,2.284h12.89v-.719h-12.89Zm3.594-4.664h-2.364v.719h10.351v-.719h-2.364v-5.335h2.364v-.719h-10.366v.719h2.38Zm4.776,0h-3.945v-5.335h3.945Zm-18.465,5.527v-3.738h-.847v4.457h9.393v-.719Zm4.121-8.657a3.379,3.379,0,0,0-3.594-3.418,3.379,3.379,0,0,0-3.594,3.418,3.4,3.4,0,0,0,3.594,3.45,3.4,3.4,0,0,0,3.594-3.45m-6.373,0a2.669,2.669,0,0,1,2.779-2.668,2.669,2.669,0,0,1,2.779,2.668,2.685,2.685,0,0,1-2.779,2.7,2.685,2.685,0,0,1-2.779-2.7m10.319-4.441h-.846v10.462h.846Z" transform="translate(2067.609 289.731)"/><path d="M-1176.23-96.77v3.163h-3.386v.719h3.386v4.472h.847V-96.77Zm-8.513,9.935h8.513v4.265h.847v-4.968h-9.36Zm5.974-2.971a5.388,5.388,0,0,1-3.626-4.648v-1.613h-.815v1.581a5.581,5.581,0,0,1-3.642,5.032l.447.687a6.354,6.354,0,0,0,3.642-3.929,6.322,6.322,0,0,0,3.53,3.578Zm-21.771.687v.7h6.07v3.051h.846v-3.051h5.974v-.7Zm2.556,2.38h-.831v3.818h9.727v-.719h-8.9Zm8.594-9.584h-.847v2.013h-7.7v-2.013h-.846v5.591h9.392Zm-.847,4.872h-7.7v-2.156h7.7Zm-16.277-.831v-4.472h-.847v10.4h.847v-5.207h2.22v-.719Zm-7.811,4.952h-.847v4.409h9.36v-.719h-8.513Zm3.993-8.4h-.831v2.572h-4.744v-2.572h-.847v6.916h6.421Zm-.831,6.2h-4.744v-2.923h4.744Zm-9.168,6.964h.846V-96.754h-.846Zm-9.824-12.619v.719h5.67c-.224,3.5-2.38,6.517-6.277,8.4l.463.7c4.568-2.252,6.661-5.862,6.661-9.823Zm-14.456,10.558h12.874v-.719h-12.874Zm11.309-5.159h-8.753v-4.856h8.609v-.719h-9.44v6.293h9.584Zm-12.011,1.262h-12.875v.719h5.974v5.223h.846v-5.223h6.054Zm-6.469-1.486c2.923,0,4.872-1.2,4.872-3.083,0-1.869-1.949-3.051-4.872-3.051-2.907,0-4.856,1.182-4.856,3.051,0,1.885,1.949,3.083,4.856,3.083m0-5.431c2.364,0,4.009.958,4.009,2.348,0,1.406-1.645,2.38-4.009,2.38-2.348,0-3.993-.974-3.993-2.38,0-1.39,1.646-2.348,3.993-2.348m-6.693,4.5h-2.492v-5.814h-.846v14.2h.846v-7.667h2.492Zm-11.868,4.153V-90.54h5.463v-4.84h-6.341v.735h5.51v3.37h-5.463v5.207h1.086a35.14,35.14,0,0,0,6.949-.527l-.08-.735a33.084,33.084,0,0,1-6.869.543Zm-4.233-3.977a20.513,20.513,0,0,0,.352-4.249v-.974h-9.44v.719h8.625v.256c0,.431,0,.91-.032,1.422l-8.913.351.128.687,8.753-.383a16.8,16.8,0,0,1-.351,2.172h-9.871v.719h12.81v-.719Zm-8.322,5.415h8.8V-88.4h-9.68v.7h8.849v1.661h-8.8v3.243h10.143v-.7h-9.312Zm-9.246-2.364h3.927v-.78h-3.927Z" transform="translate(2063.554 275.621)"/><path d="M-1161.812-51.639h12.874v-.719h-12.874ZM-1150.5-56.8h-8.753v-4.856h8.609v-.719h-9.44v6.293h9.584Zm-17.73,4.632v-2.987h4.7v-.719h-9.009V-58.6h8.673v-4.025h-9.552v.7h8.721v2.62h-8.673v4.153h4.3v2.987h-5.99v.735h12.891v-.735Zm-9.376-11.6v3.514h-3.29a3.313,3.313,0,0,0-3.578-2.827c-2.109,0-3.594,1.294-3.594,3.227,0,1.917,1.485,3.227,3.594,3.227a3.3,3.3,0,0,0,3.578-2.891h3.29v3.354h.847v-7.6Zm-6.868,6.421a2.584,2.584,0,0,1-2.779-2.508,2.565,2.565,0,0,1,2.779-2.508,2.565,2.565,0,0,1,2.779,2.508,2.584,2.584,0,0,1-2.779,2.508m6.868,3.993h-7.172v-2.061h-.846V-49.8h8.865v-5.607h-.847Zm0,2.843h-7.172v-2.14h7.172Zm-20.174-6.006v-2.364h-.847v2.364h-5.99v.719h12.906v-.719Zm-5.4,3.051h8.945v3.881h.847v-4.6h-9.792Zm10.558-5.4c-2.125-.319-5.144-1.9-5.144-3.961v-.751h-.862v.751c0,2.092-3,3.642-5.143,3.961l.336.687c1.981-.367,4.408-1.533,5.239-3.306.863,1.741,3.29,2.939,5.239,3.306Zm-19.152,6.389v-5.191h-.831v5.191h-5.255v.719h12.827v-.719Zm4.169-8.306a30.356,30.356,0,0,1-.511,6.293l.862.128a33.041,33.041,0,0,0,.5-6.421V-62.2h-9.712v.7h8.865Z" transform="translate(2158.776 317.932)"/><path d="M-1134.365-74.77v5.559h-3.258v.735h3.258v7.923h.847V-74.77Zm-9.2,9.951v-3.85h5.016v-.719h-5.016v-3.29h5.7v-.735h-6.549V-64.1h1.054a32.31,32.31,0,0,0,6.581-.479l-.08-.719a30.313,30.313,0,0,1-6.5.479Zm-10.638-8.034c1.581,0,2.7,1.693,2.7,4.121s-1.118,4.137-2.7,4.137c-1.6,0-2.716-1.709-2.716-4.137s1.118-4.121,2.716-4.121m0-.751c-2.077,0-3.53,1.917-3.53,4.872,0,2.971,1.453,4.872,3.53,4.872,2.06,0,3.514-1.9,3.514-4.872,0-2.955-1.453-4.872-3.514-4.872m6.533,13.034h.847V-74.754h-.847Zm-12.778,0h.831V-74.754h-.831Zm-2.811-8.641h-3.4v.719h3.4v7.14h.814V-74.371h-.814Zm-6.885,4.329v-7.332h4.441v-.719h-5.287v8.785h.879a23.318,23.318,0,0,0,5.351-.431l-.111-.735a21.393,21.393,0,0,1-5.239.431Zm-4.584-6.757v-.735h-2.22v-2.38h-.846v8.61h.846v-2.508h2.22v-.719h-2.22v-2.268Zm-6.693,6.006c-2.843,0-4.584.91-4.584,2.508,0,1.613,1.741,2.524,4.584,2.524,2.859,0,4.584-.91,4.584-2.524,0-1.6-1.725-2.508-4.584-2.508m0,4.345c-2.284,0-3.754-.7-3.754-1.837,0-1.118,1.469-1.821,3.754-1.821s3.754.7,3.754,1.821c0,1.134-1.469,1.837-3.754,1.837m2.013-7.044a37.577,37.577,0,0,1-6.725.5h-.224V-70.25h5.447v-3.61h-6.326v.719h5.511v2.2h-5.463v3.818h1.054a40.23,40.23,0,0,0,6.82-.479Zm-12.219.751V-69.77a2.321,2.321,0,0,0,1.8-2.124c0-1.645-1.869-2.572-4.92-2.572-3.035,0-4.888.926-4.888,2.572a2.341,2.341,0,0,0,1.821,2.14v2.172h-3.323v.719h12.811v-.719Zm-7.14-4.313c0-1.166,1.581-1.885,4.025-1.885,2.476,0,4.057.719,4.057,1.885s-1.581,1.9-4.057,1.9c-2.444,0-4.025-.735-4.025-1.9m1.8,2.38a11.412,11.412,0,0,0,2.22.208,11.983,11.983,0,0,0,2.284-.208v1.933h-4.5Zm2.236,3.945c-3.019,0-4.824.879-4.824,2.476s1.8,2.492,4.824,2.492,4.824-.895,4.824-2.492-1.8-2.476-4.824-2.476m0,4.281c-2.428,0-3.977-.671-3.977-1.8,0-1.118,1.549-1.8,3.977-1.8s3.977.687,3.977,1.8c0,1.134-1.55,1.8-3.977,1.8m-8.53-13.465v5.83h-2.444V-74.4h-.815v13.05h.815v-6.852h2.444v7.619h.831V-74.754Zm-9.727,9.76v-7.268h4.456V-73h-5.287v8.737h.879a23.044,23.044,0,0,0,5.383-.447l-.112-.735a21.09,21.09,0,0,1-5.287.447Zm-7.585-.719h3.927v-.78h-3.927Z" transform="translate(2155.305 303.823)"/><path d="M-1167.982-76.857c-2.891,0-4.648.942-4.648,2.62s1.757,2.62,4.648,2.62c2.875,0,4.648-.942,4.648-2.62s-1.773-2.62-4.648-2.62m0,4.552c-2.316,0-3.8-.751-3.8-1.933s1.486-1.933,3.8-1.933,3.818.751,3.818,1.933-1.5,1.933-3.818,1.933m1.246-6.453a5.281,5.281,0,0,1-3.642-4.616v-1.549h-.831v1.565a5.485,5.485,0,0,1-3.674,4.984l.447.687a6.307,6.307,0,0,0,3.674-3.9,6.159,6.159,0,0,0,3.53,3.482Zm2.492,1.438h.847v-8.45h-.847V-82.5h-3.386v.719h3.386Zm-16.66.767c-2.891,0-4.648.895-4.648,2.476s1.757,2.46,4.648,2.46,4.648-.879,4.648-2.46-1.757-2.476-4.648-2.476m0,4.265c-2.316,0-3.818-.687-3.818-1.789,0-1.118,1.5-1.789,3.818-1.789,2.332,0,3.818.671,3.818,1.789,0,1.1-1.485,1.789-3.818,1.789m-.24-6.581a4.568,4.568,0,0,1-3.035-3.929v-2.076h-.815V-82.8a5.2,5.2,0,0,1-3.1,4.281l.479.655a5.987,5.987,0,0,0,3.035-3.37,5.308,5.308,0,0,0,2.987,3Zm1.757-2.156h2.236v4.073h.815v-8.8h-.815v4.009h-2.236v-3.738h-.815v8.066h.815Zm-18.305,2.444v-1.9h4.488V-81.2h-8.817V-84.38h8.705V-85.1h-9.536v4.616h4.329v1.9h-5.974v.719h12.826v-.719Zm-.4,1.933c-3,0-4.824.91-4.824,2.524,0,1.629,1.821,2.524,4.824,2.524s4.824-.895,4.824-2.524c0-1.613-1.821-2.524-4.824-2.524m0,4.361c-2.428,0-3.977-.687-3.977-1.837s1.549-1.837,3.977-1.837,3.977.687,3.977,1.837-1.55,1.837-3.977,1.837m-6.389-7.555h-2.492v-5.91h-.847V-71.57h.847v-7.555h2.492Zm-8.753-3.674h3.338v-.735h-7.571v.735h3.4v2.38a7.785,7.785,0,0,1-3.882,6.1l.527.7a8.764,8.764,0,0,0,3.77-4.952,8.252,8.252,0,0,0,3.69,4.6l.5-.687a7.216,7.216,0,0,1-3.769-5.766Z" transform="translate(2158.668 289.722)"/><path d="M-1150.658-96.77v5.559h-3.259v.735h3.259v7.923h.846V-96.77Zm-9.2,9.951v-3.85h5.016v-.719h-5.016v-3.29h5.7v-.735h-6.549V-86.1h1.054a32.312,32.312,0,0,0,6.581-.479l-.08-.719a30.315,30.315,0,0,1-6.5.479Zm-10.638-8.035c1.581,0,2.7,1.693,2.7,4.121s-1.118,4.137-2.7,4.137c-1.6,0-2.716-1.709-2.716-4.137s1.118-4.121,2.716-4.121m0-.751c-2.076,0-3.53,1.917-3.53,4.872,0,2.971,1.454,4.872,3.53,4.872,2.06,0,3.514-1.9,3.514-4.872,0-2.955-1.454-4.872-3.514-4.872m6.533,13.034h.846V-96.754h-.846Zm-12.779,0h.831V-96.754h-.831Zm-2.811-8.641h-3.4v.719h3.4v7.14h.814V-96.371h-.814Zm-6.885,4.329v-7.332H-1182v-.719h-5.287v8.785h.879a23.319,23.319,0,0,0,5.351-.431l-.112-.735a21.392,21.392,0,0,1-5.239.431Zm-1.421-3.993h-2.492V-96.77h-.847v14.2h.847v-7.587h2.492Zm-11.788,4.041v-3.85h5.351V-91.4h-5.351v-3.29h5.735v-.719h-6.581v9.3h1.07a35.314,35.314,0,0,0,6.8-.5l-.112-.719a33.828,33.828,0,0,1-6.693.5Zm-3.578,4.265h.815V-96.754h-.815ZM-1206-91.307h-2.524v-3.706h-5.287v8.482h5.287v-4.057H-1206v7.268h.815V-96.4H-1206Zm-3.322,4.073h-3.69v-7.092h3.69Zm-11.243-.479h3.927v-.78h-3.927Z" transform="translate(2155.305 275.621)"/><path class="b" d="M-1261.594-99.162H-1260V-116.6h-1.591Zm-10.086-9.582h6.419v-6.227h-8.069v1.3h6.46v3.626h-6.4v6.672h1.435a50.369,50.369,0,0,0,8.767-.639l-.155-1.3a51.022,51.022,0,0,1-8.457.621Zm-5.956-7.857v7h-3.763v1.3h3.763v9.155h1.59V-116.6Zm-6.729,4.306h3.859v-1.28h-3.859v-2.695h-1.59v2.695h-3.918v1.28h3.936v1.339a8.214,8.214,0,0,1-4.422,7.195l.892,1.223a8.86,8.86,0,0,0,4.326-5.413,8.593,8.593,0,0,0,4.363,5.082l.874-1.221a7.794,7.794,0,0,1-4.461-6.866Zm-17.3,11.425v-4.073h-1.611v5.372h11.62v-1.3Zm5.449-6.809a5.972,5.972,0,0,1-4.228-5.333v-.853h3.822v-1.3h-9.292v1.3h3.879v.872a6.342,6.342,0,0,1-4.383,5.7l.835,1.239a7.43,7.43,0,0,0,4.384-4.324,7.172,7.172,0,0,0,4.189,3.936Zm-1.027-4.091v1.3h3.491v6.654h1.609v-12.744h-1.609v4.792Zm-16.275-4.831v6.576h-3.587v1.319h3.587v9.543h1.591V-116.6Zm-10.357,7.779h5.7v-1.28h-5.7v-3.589h6.46v-1.319h-8.051v11.658h1.34a42.4,42.4,0,0,0,7.952-.543l-.176-1.3a39.29,39.29,0,0,1-7.525.543Zm-13.422-4.986c1.688,0,2.891,1.823,2.891,4.637,0,2.832-1.2,4.655-2.891,4.655-1.707,0-2.909-1.823-2.909-4.655,0-2.814,1.2-4.637,2.909-4.637m0-1.435c-2.579,0-4.422,2.366-4.422,6.072s1.844,6.07,4.422,6.07,4.422-2.366,4.422-6.07-1.842-6.072-4.422-6.072m7.585,16.1h1.59v-17.436h-1.59Zm-15.5-.039h1.513v-17.4h-1.513Zm-3.491-10.764h-3.742v1.319h3.742v8.573h1.495v-16.1h-1.495Zm-7.544-3.22h4.966v-1.28h-6.537v11.074h1.125a28.393,28.393,0,0,0,6.44-.5l-.153-1.3a27.1,27.1,0,0,1-5.839.484Z" transform="translate(1979.368 250.202)"/><path class="b" d="M-1201.242-116.561v3.628h-3.784v1.3h3.784v5.335h1.609v-10.262Zm-10.047,12.512h10.047v4.888h1.609v-6.168h-11.656Zm7.487-4.249a6.084,6.084,0,0,1-4.249-5.508v-1.9h-1.591v1.844a6.319,6.319,0,0,1-4.306,5.935l.835,1.28a7.424,7.424,0,0,0,4.306-4.4,7.346,7.346,0,0,0,4.151,4.016Zm-27.077.913v1.28h7.234v3.375h1.59v-3.375h6.983v-1.28Zm3.587,3.083h-1.57v4.733h12.026v-1.3h-10.456Zm10.125-11.715h-1.57v2.211h-8.457v-2.211h-1.572v6.944h11.6Zm-1.57,5.684h-8.457v-2.25h8.457Zm-20.7-6.266v6.576h-3.587v1.319h3.587v9.543h1.591V-116.6Zm-10.357,7.779h5.7v-1.28h-5.7v-3.589h6.46v-1.319h-8.05v11.658h1.339a42.4,42.4,0,0,0,7.952-.543l-.176-1.3a39.292,39.292,0,0,1-7.526.543Zm-14.2-4.986c1.689,0,2.891,1.823,2.891,4.637,0,2.832-1.2,4.655-2.891,4.655-1.707,0-2.909-1.823-2.909-4.655,0-2.814,1.2-4.637,2.909-4.637m0-1.435c-2.578,0-4.422,2.366-4.422,6.072s1.844,6.07,4.422,6.07,4.422-2.366,4.422-6.07-1.842-6.072-4.422-6.072m7.585,16.1h1.591v-17.436h-1.591Zm-16.274-.039h1.513v-17.4h-1.513Zm-3.491-10.764h-3.742v1.319h3.742v8.573h1.495v-16.1h-1.495Zm-7.544-3.22h4.966v-1.28h-6.538v11.074h1.125a28.393,28.393,0,0,0,6.439-.5l-.155-1.3a27.069,27.069,0,0,1-5.837.484Z" transform="translate(2072.347 250.202)"/><path class="b" d="M-1493.712-104.88h1.59V-116.5h-1.59Zm-10.068,2.077h10.068v3.665h1.59v-4.927h-11.658Zm8.69-4.422c-1.513.212-3.121.329-4.733.406v-1.125c2.056-.194,3.357-1.143,3.357-2.56,0-1.59-1.649-2.6-4.151-2.6-2.464,0-4.112,1.009-4.112,2.6,0,1.4,1.281,2.348,3.316,2.56v1.2c-1.725.059-3.414.059-4.867.059l.233,1.26a70.584,70.584,0,0,0,11.056-.678Zm-8.146-3.279c0-.91,1.047-1.474,2.62-1.474,1.609,0,2.638.564,2.638,1.474,0,.892-1.029,1.474-2.638,1.474-1.572,0-2.62-.582-2.62-1.474m7.719-4.441h-4.306v-1.689h-1.591v1.689h-4.285v1.2h10.181Zm-15.031,15.807h1.59v-17.4h-1.59Zm-11.658-15.517v1.28h6.537c-.331,4.132-2.658,7.469-7.332,9.7l.854,1.3c5.78-2.832,8.087-7.254,8.087-12.279Zm-6.613,6.732h-2.581a28.656,28.656,0,0,0,.486-5.974v-1.513h-11.676v1.28h10.124v.233a25.711,25.711,0,0,1-.543,5.974h-11.542v1.3h7.021v7.507h1.611v-7.507h7.1Zm-27.814,7.1V-105h-1.611v5.47h11.619v-1.3Zm7.913-7.526v4.673h1.609v-12.84h-1.609v2.715h-4.422a4.458,4.458,0,0,0-3.551-1.629,4.291,4.291,0,0,0-4.479,4.365,4.291,4.291,0,0,0,4.479,4.363,4.455,4.455,0,0,0,3.569-1.648Zm0-4.171v2.891h-3.744a4.375,4.375,0,0,0,.233-1.435,4.41,4.41,0,0,0-.233-1.456Zm-10.939,1.456a2.873,2.873,0,0,1,2.966-2.969,2.868,2.868,0,0,1,2.948,2.969,2.867,2.867,0,0,1-2.948,2.966,2.871,2.871,0,0,1-2.966-2.966" transform="translate(1718.696 250.158)"/><path class="b" d="M-1135.423-107.018v-1.823h5.431v-1.239h-10.533v-1.826h10.163v-4.228h-11.772v1.241h10.2v1.8h-10.164v4.247h5.061v1.823h-7.1v1.3h15.788v-1.3Zm-6.944,3.939h10.513v3.745h1.59v-5.045h-12.1Zm-18.62-3.9h15.75V-108.3h-15.75Zm7.854,1.495c-3.7,0-5.953,1.125-5.953,3.142s2.25,3.142,5.953,3.142,5.956-1.125,5.956-3.142-2.25-3.142-5.956-3.142m0,5.043c-2.734,0-4.345-.68-4.345-1.9s1.611-1.9,4.345-1.9,4.345.678,4.345,1.9-1.629,1.9-4.345,1.9m6.052-10.8h-10.337V-114.6h10.221v-1.28h-11.811v5.915h11.927Zm-22.5-5.353v6.576h-3.587v1.319h3.587v9.543h1.59V-116.6Zm-10.357,7.779h5.7v-1.28h-5.7v-3.589h6.46v-1.319h-8.051v11.658h1.34a42.4,42.4,0,0,0,7.952-.543l-.176-1.3a39.291,39.291,0,0,1-7.526.543Zm-14.2-4.986c1.689,0,2.891,1.823,2.891,4.637,0,2.832-1.2,4.655-2.891,4.655-1.707,0-2.907-1.823-2.907-4.655,0-2.814,1.2-4.637,2.907-4.637m0-1.435c-2.578,0-4.422,2.366-4.422,6.072s1.844,6.07,4.422,6.07,4.425-2.366,4.425-6.07-1.844-6.072-4.425-6.072m7.585,16.1h1.59v-17.436h-1.59Zm-16.272-.039h1.513v-17.4h-1.513Zm-3.491-10.764h-3.745v1.319h3.745v8.573h1.492v-16.1h-1.492Zm-7.546-3.22h4.965v-1.28h-6.535v11.074h1.125a28.407,28.407,0,0,0,6.44-.5l-.155-1.3a27.073,27.073,0,0,1-5.839.484Z" transform="translate(2161.893 250.202)"/><path class="b" d="M-1340.992-107.153h1.59v-9.426h-1.59Zm.018,2.948h-8.069v-2.113h-1.57v6.9h11.211v-6.9h-1.572Zm0,3.491h-8.069v-2.25h8.069Zm-2.056-7.934c-2.56-.794-4.383-2.83-4.383-5.121v-.388h3.938v-1.3h-9.543v1.3h3.975v.388a5.919,5.919,0,0,1-4.422,5.394l.815,1.26a7.264,7.264,0,0,0,4.443-4.151,7.125,7.125,0,0,0,4.4,3.84Zm-11.793,1.862h-15.711v1.319h7.021v6.3h1.59v-6.3h7.12Zm-.755-3.16c-3.163-.466-6.266-2.617-6.266-5.043v-.97h-1.668v.97c0,2.483-3.065,4.577-6.225,5.043l.639,1.28c2.715-.465,5.335-1.96,6.421-4.073,1.125,2.095,3.742,3.608,6.439,4.073Zm-23.567-6.654v6.576h-3.587v1.319h3.587v9.543h1.59V-116.6Zm-10.357,7.779h5.7v-1.28h-5.7v-3.589h6.46v-1.317h-8.051v11.656h1.34a42.4,42.4,0,0,0,7.952-.543l-.176-1.3a39.288,39.288,0,0,1-7.525.543Zm-14.2-4.986c1.689,0,2.891,1.823,2.891,4.637,0,2.832-1.2,4.655-2.891,4.655-1.707,0-2.91-1.823-2.91-4.655,0-2.814,1.2-4.637,2.91-4.637m0-1.435c-2.578,0-4.422,2.369-4.422,6.072s1.844,6.07,4.422,6.07,4.422-2.366,4.422-6.07-1.841-6.072-4.422-6.072m7.585,16.1h1.59v-17.436h-1.59Zm-16.275-.039h1.513v-17.4h-1.513Zm-3.491-10.764h-3.742v1.319h3.742v8.573h1.494v-16.1h-1.494Zm-7.544-3.22h4.966v-1.28H-1425v11.074h1.127a28.53,28.53,0,0,0,6.437-.5l-.153-1.3a27.1,27.1,0,0,1-5.839.484Z" transform="translate(1893.254 250.202)"/><path class="b" d="M-1410.381-116.561v4.52h-2.211v-4.228h-1.513v10.1h1.513v-4.577h2.211v4.694h1.531v-10.513Zm-10.164,12.744h10.1v4.634h1.59V-105.1h-11.695Zm5.721-4.518a5.375,5.375,0,0,1-3.53-4.87v-2.348h-1.531v2.348a6.131,6.131,0,0,1-3.628,5.294l.853,1.223a6.9,6.9,0,0,0,3.55-3.879,6.34,6.34,0,0,0,3.432,3.432Zm-12.859-8.244v4.479h-3.783v1.3h3.783v4.151h1.591v-9.931Zm-9.641,17.146h11.231v-6.478h-11.231Zm1.572-5.219h8.108v3.939h-8.108Zm-3.589-10.823v1.3h6.168c-.329,2.948-2.91,5.216-7.04,6.4l.659,1.241c4.984-1.417,8.069-4.539,8.069-8.943ZM-1449-116.6v6.576h-3.587v1.319H-1449v9.543h1.591V-116.6Zm-10.357,7.779h5.7v-1.28h-5.7v-3.589h6.46v-1.319h-8.051v11.658h1.339a42.4,42.4,0,0,0,7.952-.543l-.176-1.3a39.292,39.292,0,0,1-7.526.543Zm-14.2-4.986c1.689,0,2.891,1.823,2.891,4.637,0,2.832-1.2,4.655-2.891,4.655-1.707,0-2.909-1.823-2.909-4.655,0-2.814,1.2-4.637,2.909-4.637m0-1.435c-2.579,0-4.422,2.366-4.422,6.072s1.844,6.07,4.422,6.07,4.422-2.366,4.422-6.07-1.841-6.072-4.422-6.072m7.585,16.1h1.59v-17.436h-1.59Zm-16.274-.039h1.513v-17.4h-1.513Zm-3.491-10.764h-3.742v1.319h3.742v8.573h1.495v-16.1h-1.495Zm-7.544-3.22h4.965v-1.28h-6.538v11.074h1.125a28.4,28.4,0,0,0,6.44-.5l-.153-1.3a27.1,27.1,0,0,1-5.839.484Z" transform="translate(1803.708 250.202)"/><path class="d" d="M-1601.925-120.829s-19.405,0-19.405,19.405V134.141s0,19.405,19.405,19.405h43.415s19.406,0,19.406-19.405V-101.424s0-19.405-19.406-19.405Z" transform="translate(1641.579 244.781)"/><g class="h" transform="translate(0 90.35)"><g class="l"><line class="m" x2="1036.593" transform="translate(20.536 16.258)"/></g></g><g class="h" transform="translate(2.332 399.414)"><g transform="translate(0 0)"><g class="l"><line class="m" x2="1036.593" transform="translate(20.537 16.258)"/></g></g></g><g class="h" transform="translate(587.656 428.206)"><g transform="translate(0 0)"><g class="n"><line class="o" y2="97.025" transform="translate(2.567 20.537)"/></g></g></g><path class="p" d="M-1505.265-109.11l-7.462-5.83v11.66Z" transform="translate(1780.794 252.329)"/><path class="p" d="M-1435.4-109.11l-7.462-5.83v11.66Z" transform="translate(1870.358 252.329)"/><path class="p" d="M-1365.527-109.11l-7.462-5.83v11.66Z" transform="translate(1959.922 252.329)"/><path class="p" d="M-1295.657-109.11l-7.462-5.83v11.66Z" transform="translate(2049.487 252.329)"/><path class="p" d="M-1225.788-109.11l-7.462-5.83v11.66Z" transform="translate(2139.051 252.329)"/><text class="q" transform="translate(60.999 225.037)"><tspan x="-16.91" y="0"></tspan><tspan x="-25.08" y="24"></tspan><tspan x="-16.91" y="48"></tspan><tspan x="-25.08" y="72"></tspan></text></g><text class="q" transform="translate(464 689)"><tspan x="0" y="0"></tspan><tspan x="0" y="24"></tspan></text><text class="q" transform="translate(466 1142)"><tspan x="0" y="0"></tspan><tspan x="0" y="24"></tspan></text><text class="r" transform="translate(670 1142)"><tspan x="0" y="0">  </tspan><tspan x="0" y="24"> </tspan></text><text class="r" transform="translate(1148 1142)"><tspan x="0" y="0">    </tspan><tspan x="0" y="24">  </tspan></text><g transform="translate(1185 927)"><path class="s" d="M237.9,78.286v7.286a1.619,1.619,0,0,1-1.619,1.619H213.619A1.619,1.619,0,0,1,212,85.571V55.619A1.619,1.619,0,0,1,213.619,54h1.619" transform="translate(0 -0.952)"/><path class="s" d="M240,54h1.619a1.619,1.619,0,0,1,1.619,1.619V62.9" transform="translate(-5.627 -0.952)"/><path class="s" d="M231.762,52.238h-2.429a3.238,3.238,0,0,0-6.476,0h-2.429A2.428,2.428,0,0,0,218,54.667V57.1h16.19V54.667A2.428,2.428,0,0,0,231.762,52.238Z" transform="translate(-1.143)"/><line class="s" y2="1.619" transform="translate(224.801 51.429)"/><path class="s" d="M249.457,65.517a2.627,2.627,0,0,1,.935,2.1L237.9,80.11a7.025,7.025,0,0,1-4.894,1.8,7.024,7.024,0,0,1,1.8-4.892l12.5-12.494a2.63,2.63,0,0,1,2.1.935Z" transform="translate(-4.403 -2.955)"/><line class="s" x2="3.092" y2="3.092" transform="translate(241.16 63.248)"/><line class="s" x2="3.238" y2="3.238" transform="translate(230.378 74.095)"/><line class="t" x2="7.286" transform="translate(224.76 61.143)"/><path class="t" d="M223.857,63l-3.238,4.048L219,64.619" transform="translate(-1.411 -2.667)"/><line class="t" x2="7.286" transform="translate(224.76 68.429)"/><line class="t" x2="5.667" transform="translate(224.771 64.381)"/><line class="t" x2="4.857" transform="translate(224.776 71.667)"/><path class="t" d="M223.857,72l-3.238,4.048L219,73.619" transform="translate(-1.411 -4.381)"/><path class="t" d="M223.857,81l-3.238,4.048L219,82.619" transform="translate(-1.411 -6.095)"/></g><g transform="translate(309.502 59.011)"><path class="u" d="M321.8,946.6a8.856,8.856,0,1,0-13.943,0l-.005,0,.018.014a8.891,8.891,0,0,0,1.712,1.657,6.2,6.2,0,0,1,1.813,3.661v3.494h6.868v-3.494a6.2,6.2,0,0,1,1.813-3.661,8.9,8.9,0,0,0,1.712-1.657l.017-.014Z" transform="translate(-8.968 -7.242)"/><line class="u" x2="6.868" transform="translate(302.431 951.742)"/><line class="u" x2="3.374" transform="translate(303.877 955.236)"/><line class="u" y1="2.571" transform="translate(305.563 918.989)"/><line class="u" x1="1.818" y1="1.818" transform="translate(294.203 923.694)"/><line class="u" x1="2.571" transform="translate(289.498 935.054)"/><line class="u" y1="1.818" x2="1.818" transform="translate(315.106 923.694)"/><line class="u" x2="2.571" transform="translate(319.058 935.054)"/><line class="u" y1="10.161" transform="translate(305.865 938.026)"/><path class="u" d="M324.978,954.237v2.812h-5.784v-2.812" transform="translate(-16.162 -19.183)"/></g><g transform="translate(-19.319 54.482)"><circle class="u" cx="4.385" cy="4.385" r="4.385" transform="translate(788.542 935.609)"/><path class="u" d="M803.231,942.1a10.6,10.6,0,0,0,0-4.218l.021.036,4.283-3.576-2.411-4.177-5.239,1.921.027.047a10.5,10.5,0,0,0-3.665-2.12h.048l-.956-5.5h-4.823l-.956,5.5h.048a10.5,10.5,0,0,0-3.665,2.12l.027-.047-5.239-1.921-2.412,4.177,4.283,3.576.021-.036a10.6,10.6,0,0,0,0,4.218l-.021-.036-4.283,3.576,2.412,4.176,5.239-1.92-.027-.047a10.494,10.494,0,0,0,3.665,2.12h-.048l.956,5.5h4.823l.956-5.5h-.048a10.5,10.5,0,0,0,3.665-2.12l-.027.047,5.239,1.92,2.411-4.176-4.283-3.576Z" transform="translate(0 0)"/></g><g transform="translate(789.185 590.266)"><line class="u" y2="34.729" transform="translate(304.776 387.734)"/><rect class="v" width="28.238" height="22.395" transform="translate(290.657 390.006)"/><path class="u" d="M323.867,449.71l-5.112-8.4-5.112,8.4" transform="translate(-13.98 -28.91)"/><line class="u" x2="34.08" transform="translate(287.736 390.006)"/><g transform="translate(296.313 395.808)"><rect class="u" width="3.846" height="7.033" transform="translate(0 4.286)"/><rect class="u" width="3.846" height="11.319" transform="translate(6.539 0)"/><rect class="u" width="3.846" height="5.019" transform="translate(13.078 6.301)"/></g></g><g transform="translate(957.243 230.698)"><g transform="translate(276.441 743.302)"><circle class="u" cx="15.49" cy="15.49" r="15.49" transform="translate(0 12.237) rotate(-23.265)"/><circle class="u" cx="7.771" cy="7.771" r="7.771" transform="matrix(0.869, -0.495, 0.495, 0.869, 9.749, 17.448)"/><path class="u" d="M318.706,784.3a1.27,1.27,0,1,1-1.27-1.27A1.27,1.27,0,0,1,318.706,784.3Z" transform="translate(-297.087 -763.948)"/></g><line class="u" y1="15.38" x2="16.87" transform="translate(296.791 748.272)"/><path class="u" d="M344.928,752.485l-.6-4.529,4.571-3.908.045,4.611Z" transform="translate(-35.28 -0.387)"/><path class="u" d="M353.915,754.687l-4.322-1.038-4.013,3.658,4.305.884Z" transform="translate(-35.932 -5.377)"/></g><g transform="translate(302.348 50.855)"><rect class="u" width="10.461" height="29.217" transform="translate(615.652 929.145)"/><rect class="w" width="3.058" height="9.425" transform="translate(619.354 933.646)"/><ellipse class="w" cx="1.569" cy="1.656" rx="1.569" ry="1.656" transform="translate(619.313 949.678)"/><rect class="u" width="10.461" height="29.217" transform="translate(626.113 929.145)"/><rect class="w" width="3.058" height="9.425" transform="translate(629.814 933.646)"/><ellipse class="w" cx="1.569" cy="1.656" rx="1.569" ry="1.656" transform="translate(629.774 949.678)"/><rect class="u" width="10.461" height="29.217" transform="translate(636.573 929.145)"/><rect class="w" width="3.058" height="9.425" transform="translate(640.275 933.646)"/><ellipse class="w" cx="1.569" cy="1.656" rx="1.569" ry="1.656" transform="translate(640.235 949.678)"/></g><text class="x" transform="translate(601 1161)"><tspan x="0" y="0">01</tspan></text><text class="x" transform="translate(1075 1161)"><tspan x="0" y="0">02</tspan></text></g></svg>