<svg xmlns="http://www.w3.org/2000/svg" xmlns:xlink="http://www.w3.org/1999/xlink" width="1082.406" height="579" viewBox="0 0 1082.406 579"><defs><style>.a,.f,.h,.m,.r,.s{fill:none;}.b{fill:#235188;}.c{fill:#133c71;}.d{mix-blend-mode:multiply;isolation:isolate;}.e{clip-path:url(#a);}.f{stroke:#234d83;stroke-dasharray:0.75 0.5;}.f,.h{stroke-width:0.25px;}.g,.j,.l,.q{fill:#fff;}.g{stroke:#596c9b;}.g,.l{stroke-width:0.4px;}.h{stroke:#9fb8d8;}.i{fill:#234d83;}.k{fill:#626478;}.l{stroke:#707070;}.m{stroke:#106adc;stroke-width:10px;}.n{fill:#fafafa;}.o{fill:#106adc;opacity:0.2;}.p{fill:#111;font-size:28px;}.p,.q{font-family:NotoSansKR-Medium, Noto Sans KR;font-weight:500;letter-spacing:-0.06em;}.q{font-size:20px;}.r,.s{stroke:#58585b;stroke-linecap:round;stroke-linejoin:round;}.r{stroke-width:3px;}.s{stroke-width:2px;}.t{stroke:none;}</style><clipPath id="a"><rect class="a" width="1082.406" height="19.265"/></clipPath></defs><g transform="translate(-420 -2208)"><path d="M2784.3,708.326a1.31,1.31,0,0,0,1.307-1.368,1.312,1.312,0,1,0-2.617,0,1.311,1.311,0,0,0,1.31,1.368m-1.945-9.565h-2.938v-7.027h-1.628v17.843h1.628V700.11h2.938Zm-14.252-3.97h6.648v-1.35h-8.276v11.693h1.408a42.179,42.179,0,0,0,8.416-.638l-.178-1.35a43.174,43.174,0,0,1-8.019.6Zm-6.293,14.728h1.627V691.734h-1.627Zm-10.221-16.057h-1.627v11.471h1.469a42.3,42.3,0,0,0,8.733-.831l-.179-1.392a42.056,42.056,0,0,1-8.4.834Zm-19.632,7.7h16.117v-1.31h-16.117Zm12.407,3.316h-8.755v-2.085H2734v6.91h11.968v-6.91h-1.607Zm0,3.515h-8.752v-2.263h8.752Zm2.8-10.7c-3.155-.4-6.291-2.363-6.291-4.565v-.794H2739.2v.794c0,2.263-3.118,4.168-6.312,4.565l.6,1.31c2.779-.437,5.439-1.826,6.55-3.811,1.13,1.985,3.771,3.374,6.529,3.811Zm-19.431,5.4h-1.588v.953a5.256,5.256,0,0,1-2.562,4.229,4.951,4.951,0,0,1-2.461-4.229v-.953h-1.566v.953a5.052,5.052,0,0,1-3.573,4.425l.813,1.233a6.258,6.258,0,0,0,3.515-3.3,5.674,5.674,0,0,0,3.313,3.454,6.188,6.188,0,0,0,3.295-3.512,5.939,5.939,0,0,0,3.573,3.356l.815-1.233a4.845,4.845,0,0,1-3.573-4.425Zm-7.583-1.609c2.7,0,4.663-1.686,4.663-4.147s-1.964-4.15-4.663-4.15c-2.681,0-4.626,1.688-4.626,4.15s1.945,4.147,4.626,4.147m0-6.945a2.81,2.81,0,1,1,0,5.6,2.807,2.807,0,1,1,0-5.6m9.568-2.384h-1.628v10.163h1.628Zm-19.553,10h-16.078v1.35h7.185v6.452h1.628v-6.452h7.286Zm-.773-3.234c-3.236-.477-6.412-2.678-6.412-5.161v-.992h-1.707v.992c0,2.541-3.136,4.684-6.371,5.161l.654,1.31c2.778-.476,5.46-2.006,6.571-4.168,1.152,2.144,3.83,3.692,6.59,4.168Zm-22.549-2.562v-4.285h-1.628v9.845h1.628v-4.208h2.638V695.96Zm-9.667,10.422h9.667v-3.951h-11.314v1.212h9.7v1.548h-9.647v4.15h11.91V708.09h-10.321Zm5.42-8.059c0-1.807-1.688-2.919-4.269-2.919-2.559,0-4.248,1.112-4.248,2.919s1.689,2.919,4.248,2.919c2.581,0,4.269-1.112,4.269-2.919m-6.968,0c0-1.072,1.053-1.707,2.7-1.707s2.721.635,2.721,1.707-1.072,1.707-2.721,1.707-2.7-.635-2.7-1.707m7.96-4.962h-4.446v-1.807h-1.628v1.807h-4.427v1.249h10.5Zm-11.314,8.514h-16.118v1.331h4.148v6.331h1.649v-6.331h4.465v6.331h1.649v-6.331h4.208Zm-8.1-1.667c3.71,0,6.232-1.506,6.232-3.89s-2.522-3.869-6.232-3.869c-3.692,0-6.214,1.487-6.214,3.869s2.522,3.89,6.214,3.89m0-6.45c2.718,0,4.565.992,4.565,2.559s-1.847,2.58-4.565,2.58c-2.7,0-4.547-1.011-4.547-2.58s1.847-2.559,4.547-2.559m-16.655,6.272v-3.414h-1.627v3.414h-6.57v1.329h16.017v-1.329Zm-.256,2.959c-3.793,0-6.193,1.21-6.193,3.274,0,2.025,2.4,3.255,6.193,3.255s6.211-1.231,6.211-3.255c0-2.064-2.421-3.274-6.211-3.274m0,5.259c-2.779,0-4.566-.754-4.566-1.985,0-1.27,1.787-2.025,4.566-2.025,2.8,0,4.584.754,4.584,2.025,0,1.231-1.786,1.985-4.584,1.985m4.465-14.093a16.107,16.107,0,0,1-.476,4.526l1.588.177a16.46,16.46,0,0,0,.5-4.7v-1.509H2641.2v1.31h10.52Zm-16.991,5.021H2631.9v-7.442h-1.627v17.8h1.627v-8.99h2.838Zm-11.293-.416h-1.609v5.478c-1.329.04-2.639.058-3.771.058l.179,1.35a72.564,72.564,0,0,0,11.036-.675l-.1-1.191c-1.8.241-3.79.339-5.735.418Zm4.089,2.956a44.4,44.4,0,0,0,.495-7.066v-.971h-8.99v1.329h7.4a37.87,37.87,0,0,1-.535,6.552Zm-26.162-1.228h16.118v-1.331h-16.118Zm3.573,5.735H2615.4v-4.189h-12.108v1.27h10.5v1.707h-10.44v4.308h12.584v-1.27h-11Zm10.619-9.805h-10.42v-2.779h10.242v-1.31h-11.87v5.4h12.048Zm-14.429,2.5h-2.937v-7.167h-1.628v17.785h1.628v-9.25h2.938Zm-10.639-4.009h3.952v-1.35h-9.628v1.35h4.07v2.263a9.308,9.308,0,0,1-4.684,7.662l.951,1.289a10.039,10.039,0,0,0,4.546-5.894,9.617,9.617,0,0,0,4.465,5.457l.934-1.308a8.567,8.567,0,0,1-4.6-7.206Zm-6.749,5.637H2581.1a29.422,29.422,0,0,0,.5-6.114v-1.548h-11.95v1.31h10.362v.238a26.32,26.32,0,0,1-.556,6.114h-11.809v1.329h7.186v7.683h1.646v-7.683h7.265Zm-28.067,7.265v-4.269h-1.646v5.6h11.889v-1.329Zm8.1-7.7v4.782h1.649v-13.14h-1.649v2.779h-4.525a4.563,4.563,0,0,0-3.632-1.667,4.468,4.468,0,1,0,0,8.932,4.563,4.563,0,0,0,3.653-1.686Zm0-4.266V698.8h-3.83a4.7,4.7,0,0,0,0-2.956Zm-11.195,1.487a3.027,3.027,0,1,1,3.037,3.036,2.943,2.943,0,0,1-3.037-3.036m-22.906,3.515v1.308h7.405v3.594h1.628v-3.594h7.146v-1.308Zm3.692,3.216h-1.628v5.079h12.307v-1.329h-10.679Zm10.382-11.494h-11.968v6.254h11.968Zm-1.609,4.941h-8.773v-3.631h8.773Zm-24.375,10.3v-4.168h-1.646v5.5h11.888v-1.329Zm5.579-6.966a6.114,6.114,0,0,1-4.327-5.46v-.873h3.908v-1.331h-9.506v1.331h3.969v.892a6.494,6.494,0,0,1-4.486,5.838l.852,1.268a7.589,7.589,0,0,0,4.487-4.425,7.348,7.348,0,0,0,4.287,4.028Zm-1.053-4.189v1.331h3.573v6.807h1.649V691.752h-1.649v4.9Zm-25.664,11.354v-1.887h9.824V701.9h-11.473v1.289h9.866v1.707h-9.826V709.3h12.108V708.01Zm4.089-9.229h4.108v2.26h1.628v-9.289h-1.628v2.522h-4.108v-1.688h-1.609v2.522h-4.8v-2.541H2492.7v7.76h8.019Zm-1.609.236h-4.8v-2.639h4.8Zm5.716-1.508h-4.108v-1.964h4.108Zm-13.357.061v-1.35h-2.84v-4.467H2487v17.785h1.627v-6.669h2.84v-1.347h-2.84v-3.951Zm-11.791-4.465c-2.62,0-4.486,2.422-4.486,6.191,0,3.811,1.866,6.233,4.486,6.233s4.465-2.422,4.465-6.233c0-3.769-1.845-6.191-4.465-6.191m0,10.976c-1.728,0-2.937-1.887-2.937-4.785,0-2.858,1.209-4.724,2.937-4.724,1.708,0,2.917,1.866,2.917,4.724,0,2.9-1.209,4.785-2.917,4.785m-21.657-2.938v1.31h7.406v3.454h1.627v-3.454h7.146v-1.31Zm3.673,3.155h-1.609v4.843h12.307v-1.329h-10.7Zm10.362-11.987h-1.609v2.261h-8.655v-2.261h-1.607v7.106h11.87Zm-1.609,5.815h-8.655v-2.3h8.655Zm-33.426,3.118h16.138v-1.231h-16.138Zm3.573,5.24h10.56v-3.792h-12.206v1.17h10.6v1.49h-10.56V709.3h12.722v-1.172H2440.59Zm8.892-11.632h-10.4v3.811h12.327V697.49H2440.69v-1.53h10.4V692.25h-12.05V693.4h10.441Zm-12.841,4.325H2433.8v-7.442h-1.628v17.8h1.628v-8.99h2.839Zm-11.3-.416h-1.607v5.478c-1.331.04-2.641.058-3.771.058l.177,1.35a72.556,72.556,0,0,0,11.037-.675l-.1-1.191c-1.807.241-3.792.339-5.738.418Zm4.089,2.956a44.142,44.142,0,0,0,.5-7.066v-.971h-8.993v1.329h7.4a37.671,37.671,0,0,1-.537,6.552Zm-21.318,6.352V706h9.827v-4.367H2406.47v1.312h9.845v1.826h-9.805v4.584h12.028v-1.291Zm8.178-12.484v2.125h-4.645v1.268h4.645v1.847h1.648v-9.091h-1.648v2.58h-4.029a8.014,8.014,0,0,0,.178-1.707h-7.959v1.329h6.193c-.3,2.819-2.779,4.944-7.127,5.955l.6,1.331c3.93-.934,6.65-2.837,7.762-5.637Zm-33.744,10.083a63.637,63.637,0,0,0,11.533-.775l-.14-1.21a80.146,80.146,0,0,1-11.591.614Zm12.565,3.909h1.627V691.734h-1.627Zm-7.106-15.144a2.821,2.821,0,1,1-3.176,2.8,2.878,2.878,0,0,1,3.176-2.8m0-1.389c-2.76,0-4.764,1.686-4.764,4.187,0,2.482,2,4.189,4.764,4.189,2.779,0,4.764-1.707,4.764-4.189,0-2.5-1.985-4.187-4.764-4.187m-13.775,7.484v-2.067h5.359v-1.31h-10.581v-3.295h10.462v-1.31h-12.089v5.915h5.222v2.067h-7.246v1.308h16.118v-1.308Zm-.815,2.578c-3.81,0-6.113,1.151-6.113,3.216s2.3,3.216,6.113,3.216c3.772,0,6.074-1.151,6.074-3.216s-2.3-3.216-6.074-3.216m0,5.161c-2.819,0-4.465-.693-4.465-1.945s1.646-1.943,4.465-1.943c2.78,0,4.428.693,4.428,1.943s-1.648,1.945-4.428,1.945m-11.134-11.987v-4.547h-1.628v10.52h1.628v-4.6h2.619V696.28Zm-9.885,10.38h9.885v-3.631h-11.534v1.149h9.925v1.389h-9.864v3.774h12.147v-1.172H2352.4Zm7.2-6.569c-1.527.217-3.195.336-4.822.416v-1.032c2.043-.18,3.335-1.013,3.335-2.324,0-1.469-1.649-2.342-4.149-2.342-2.541,0-4.168.873-4.168,2.342,0,1.331,1.291,2.165,3.356,2.324v1.091c-1.707.061-3.356.061-4.745.061l.18,1.21a65.445,65.445,0,0,0,11.116-.694Zm-8.257-2.94c0-.794,1.014-1.268,2.62-1.268,1.588,0,2.6.474,2.6,1.268s-1.014,1.292-2.6,1.292c-1.606,0-2.62-.5-2.62-1.292m7.722-4.068h-4.287v-1.529h-1.627v1.529h-4.309v1.17h10.223Zm-15.164,3.573h-2.642v-4.9h-1.627v11.116h1.627v-4.862h2.642Zm-14.193,8.514h9.925v4.388h1.627v-5.717h-11.552Zm7.3-6.093c0-1.966-1.726-3.234-4.267-3.234-2.522,0-4.247,1.268-4.247,3.213,0,1.966,1.725,3.218,4.247,3.218,2.541,0,4.267-1.252,4.267-3.2m-6.967,0c0-1.191,1.073-1.966,2.7-1.966s2.718.775,2.718,1.945c0,1.191-1.091,1.966-2.718,1.966s-2.7-.754-2.7-1.945m7.959-5.46h-4.446v-1.983h-1.627v1.983h-4.426v1.31h10.5Zm-10.936,5.558h-2.84v-7.442h-1.628v17.8h1.628v-8.99h2.84Zm-11.3-.416h-1.607v5.478c-1.331.04-2.642.058-3.772.058l.177,1.35a72.559,72.559,0,0,0,11.037-.675l-.1-1.191c-1.808.241-3.792.339-5.737.418Zm4.089,2.956a44.184,44.184,0,0,0,.5-7.066v-.971h-8.992v1.329h7.4a37.733,37.733,0,0,1-.537,6.552Zm-17.288-9.983v3.989h-4.565a4.01,4.01,0,0,0-3.713-2.618c-2.6,0-4.446,2.422-4.446,6.212s1.847,6.212,4.446,6.212a4.127,4.127,0,0,0,3.832-2.856h4.446v6.905h1.628V691.734ZM2294.3,704.08c-1.707,0-2.9-1.866-2.9-4.764,0-2.879,1.191-4.745,2.9-4.745,1.688,0,2.9,1.866,2.9,4.745,0,2.9-1.209,4.764-2.9,4.764m4.229-2.739a10.6,10.6,0,0,0,.2-2.025,10.091,10.091,0,0,0-.259-2.263h4.11v4.287Zm-9.231-2.284h-2.917v-7.3h-1.628v17.785h1.628v-9.11h2.917Zm-10.618-7.106h-1.628v2.641h-4.486v1.31h10.5v-1.31h-4.386Zm-.794,5.42a4.105,4.105,0,1,0,4.346,4.108,4.059,4.059,0,0,0-4.346-4.108m0,6.847a2.749,2.749,0,1,1,2.8-2.739,2.669,2.669,0,0,1-2.8,2.739m-9.965-3.671v-2.52a2.94,2.94,0,0,0,2.163-2.662c0-2.083-2.382-3.314-6.251-3.314-3.851,0-6.253,1.231-6.253,3.314,0,1.212.775,2.1,2.183,2.681v2.5h-3.989v1.31h16.118v-1.31Zm-8.675-5.182c0-1.289,1.749-2.043,4.586-2.043s4.584.754,4.584,2.043c0,1.273-1.747,2.046-4.584,2.046s-4.586-.773-4.586-2.046m2.125,3.1a15.3,15.3,0,0,0,4.941,0v2.085h-4.941Zm2.461,4.724c-3.81,0-6.095,1.133-6.095,3.176s2.284,3.157,6.095,3.157c3.83,0,6.093-1.112,6.093-3.157s-2.262-3.176-6.093-3.176m0,5.081c-2.8,0-4.446-.693-4.446-1.905s1.646-1.906,4.446-1.906c2.78,0,4.446.7,4.446,1.906s-1.667,1.905-4.446,1.905m-11.115-11.987v-4.547h-1.628v10.52h1.628v-4.6h2.62V696.28Zm-9.885,10.38h9.885v-3.631h-11.534v1.149h9.925v1.389h-9.864v3.774h12.148v-1.172h-10.56Zm7.2-6.569c-1.527.217-3.194.336-4.822.416v-1.032c2.046-.18,3.335-1.013,3.335-2.324,0-1.469-1.646-2.342-4.147-2.342-2.541,0-4.168.873-4.168,2.342,0,1.331,1.289,2.165,3.354,2.324v1.091c-1.707.061-3.354.061-4.743.061l.177,1.21a65.443,65.443,0,0,0,11.116-.694Zm-8.257-2.94c0-.794,1.014-1.268,2.622-1.268,1.586,0,2.6.474,2.6,1.268s-1.014,1.292-2.6,1.292c-1.609,0-2.622-.5-2.622-1.292m7.722-4.068h-4.287v-1.529h-1.628v1.529h-4.309v1.17H2249.5Zm-31.618,8.159h16.139v-1.231h-16.139Zm3.573,5.24h10.56v-3.792h-12.208v1.17h10.6v1.49h-10.559V709.3h12.724v-1.172h-11.116Zm8.893-11.632h-10.4v3.811h12.326V697.49h-10.719v-1.53h10.4V692.25h-12.047V693.4h10.441Zm-29.337,12.3h16.138v-1.35h-16.138Zm15.342-6.471c-3.115-.593-6.489-3.3-6.489-6.331v-1.371h-1.707v1.371c0,3.036-3.355,5.717-6.47,6.331l.733,1.35a9.774,9.774,0,0,0,6.59-5.14,9.66,9.66,0,0,0,6.611,5.14Zm-29.594-1.448h5.161v4.684h-5.161Zm-1.609-5.994V705.25h8.376V693.242h-1.607v4.705h-5.161v-4.705Zm11.93,16.316h1.628V691.734h-1.628Zm-16.773-17.825v6.034h-4.129V699.1h4.129v10.459h1.628V691.734Zm-6.808,1.527h-1.627v3.2a9.406,9.406,0,0,1-4.605,8.019l.993,1.291a9.887,9.887,0,0,0,4.425-5.955,9.547,9.547,0,0,0,4.468,5.637l.953-1.291a8.877,8.877,0,0,1-4.605-7.7Zm-14.291,16.258h1.628V691.734h-1.628Zm-10.242-9.866h6.371v-1.31h-6.371v-3.671h7.027V693.34h-8.635v11.91h1.41a47.086,47.086,0,0,0,8.554-.6l-.159-1.329a43.546,43.546,0,0,1-8.2.6Zm-6.651,9.866h1.628V691.734h-1.628Zm-10.221-16.057h-1.628v11.471h1.469a42.3,42.3,0,0,0,8.733-.831l-.179-1.392a42.054,42.054,0,0,1-8.4.834Zm-3.475,8.573h-16.157v1.331h4.11v6.291h1.627v-6.291h4.7v6.291h1.628v-6.291h4.089Zm-2.064-9.327h-12.028v6.926h12.028Zm-1.606,5.616h-8.834V694h8.834Zm-16.317-6.571v7.127h-4.11v1.329h4.11v9.329h1.628V691.752Zm-12.05,1.826v1.331h6.392a12.6,12.6,0,0,1-.575,3.136l-6.73.437.3,1.408,5.934-.556a12.62,12.62,0,0,1-6.291,5.995l.913,1.291c6.251-3.176,8.059-7.879,8.059-13.042Zm-8.2,4.031v-5.857h-1.627v13.341h1.627v-6.116h2.639v-1.368Zm-9.448,6.431h-1.628v5.1h11.87v-1.329h-10.242Zm5.2-4.526c0-1.985-1.747-3.3-4.269-3.3s-4.248,1.31-4.248,3.3c0,2.006,1.728,3.314,4.248,3.314s4.269-1.308,4.269-3.314m-6.968,0c0-1.231,1.072-2.025,2.7-2.025,1.609,0,2.721.794,2.721,2.025,0,1.249-1.112,2.046-2.721,2.046-1.628,0-2.7-.8-2.7-2.046m7.96-5.6h-4.446v-2.165h-1.627v2.165h-4.427v1.31h10.5Zm-27.413,7.482h16.1v-1.331h-16.1Zm8.019,1.59c-3.79,0-6.093,1.17-6.093,3.253,0,2.067,2.3,3.237,6.093,3.237s6.095-1.17,6.095-3.237c0-2.083-2.3-3.253-6.095-3.253m0,5.219c-2.8,0-4.446-.736-4.446-1.966,0-1.27,1.649-1.985,4.446-1.985s4.446.715,4.446,1.985c0,1.231-1.667,1.966-4.446,1.966m6.233-11.513h-10.459V692.11h-1.627v5.9h12.087Zm-14.588,2.263h-2.859v-7.225H2052.9v17.8h1.627v-9.229h2.859Zm-15.6-5.319v1.35h6.529c-.376,4.208-2.818,7.622-7.363,9.9l.892,1.273c5.757-2.879,8.08-7.463,8.08-12.526Zm-5.9,8.355v-1.31h-16.1v1.31h7.243v2.046h-5.457v1.289h10.7v4.15h1.628V704.04h-5.24v-2.046Zm-14.628-2.3c2.917-.3,5.519-1.368,6.59-3.155,1.072,1.786,3.652,2.858,6.569,3.155l.516-1.231c-3.374-.336-6.073-1.707-6.211-3.692h5.518v-1.289h-5.579v-1.845h-1.628v1.845h-5.576v1.289h5.5c-.138,1.985-2.837,3.356-6.193,3.692Zm-2.223.855h-2.641a29.323,29.323,0,0,0,.5-6.114v-1.548h-11.949v1.31H2015.3v.238a26.309,26.309,0,0,1-.556,6.114h-11.811v1.329h7.185v7.683h1.649v-7.683h7.265ZM1990.747,706v-3.353h5.7v-1.31h-10.957v-2.879h10.539v-5.418H1983.84v1.329h10.6v2.779h-10.56v5.5h5.222V706h-7.247v1.331h16.179V706Zm-20.921,2.006v-1.887h9.827V701.9H1968.18v1.289h9.864v1.707h-9.824V709.3h12.109V708.01Zm4.089-9.229h4.11v2.26h1.628v-9.289h-1.628v2.522h-4.11v-1.688h-1.607v2.522h-4.8v-2.541H1965.9v7.76h8.02Zm-1.607.236h-4.8v-2.639h4.8Zm5.717-1.508h-4.11v-1.964h4.11Zm-13.36.061v-1.35h-2.837v-4.467H1960.2v17.785h1.628v-6.669h2.837v-1.347h-2.837v-3.951Zm-11.79-4.465c-2.62,0-4.486,2.422-4.486,6.191,0,3.811,1.866,6.233,4.486,6.233s4.467-2.422,4.467-6.233c0-3.769-1.847-6.191-4.467-6.191m0,10.976c-1.726,0-2.938-1.887-2.938-4.785,0-2.858,1.212-4.724,2.938-4.724,1.707,0,2.919,1.866,2.919,4.724,0,2.9-1.212,4.785-2.919,4.785m-21.655-2.938v1.31h7.4v3.454h1.628v-3.454h7.146v-1.31Zm3.671,3.155h-1.606v4.843h12.306v-1.329h-10.7Zm10.362-11.987h-1.607v2.261h-8.654v-2.261h-1.609v7.106h11.87Zm-1.607,5.815h-8.654v-2.3h8.654Zm-33.466,2.721v1.308h7.4v3.594h1.628v-3.594h7.146v-1.308Zm3.692,3.216h-1.628v5.079h12.306v-1.329h-10.679Zm10.38-11.494h-11.968v6.254h11.968Zm-1.607,4.941h-8.773v-3.631h8.773Zm-24.375,10.3v-4.168h-1.646v5.5h11.888v-1.329Zm5.579-6.966a6.114,6.114,0,0,1-4.327-5.46v-.873h3.909v-1.331h-9.506v1.331h3.97v.892a6.494,6.494,0,0,1-4.489,5.838l.855,1.268a7.6,7.6,0,0,0,4.486-4.425,7.349,7.349,0,0,0,4.288,4.028Zm-1.053-4.189v1.331h3.573v6.807h1.649V691.752h-1.649v4.9Z" transform="translate(-1332.25 1572.019)"/><path class="b" d="M1890.635,700.317a2.675,2.675,0,1,0-2.48-2.657,2.537,2.537,0,0,0,2.48,2.657" transform="translate(-1339.263 1576.594)"/><path d="M2783.181,692.324a1.31,1.31,0,0,0,1.308-1.368,1.312,1.312,0,1,0-2.618,0,1.311,1.311,0,0,0,1.31,1.368m-1.945-9.565H2778.3v-7.027h-1.627v17.843h1.627v-9.467h2.938Zm-14.251-3.97h6.648v-1.35h-8.277v11.692h1.408a42.013,42.013,0,0,0,8.416-.638l-.177-1.35a43.18,43.18,0,0,1-8.019.6Zm-6.293,14.728h1.628V675.732h-1.628Zm-10.222-16.059h-1.627v11.475h1.469a42.311,42.311,0,0,0,8.734-.836l-.18-1.389a42.064,42.064,0,0,1-8.4.836Zm-19.632,7.7h16.118v-1.31h-16.118Zm12.407,3.316h-8.754V686.39h-1.607v6.91h11.968v-6.91h-1.607Zm0,3.515h-8.754v-2.263h8.754Zm2.8-10.7c-3.155-.4-6.291-2.363-6.291-4.565v-.794h-1.668v.794c0,2.263-3.117,4.168-6.311,4.565l.595,1.31c2.779-.437,5.439-1.826,6.551-3.811,1.13,1.985,3.771,3.374,6.529,3.811Zm-19.431,5.4h-1.588v.953a5.257,5.257,0,0,1-2.561,4.229,4.949,4.949,0,0,1-2.461-4.229v-.953h-1.567v.953a5.051,5.051,0,0,1-3.573,4.425l.813,1.233a6.255,6.255,0,0,0,3.514-3.3,5.674,5.674,0,0,0,3.314,3.454,6.192,6.192,0,0,0,3.294-3.512,5.94,5.94,0,0,0,3.573,3.356l.815-1.233a4.847,4.847,0,0,1-3.573-4.425Zm-7.582-1.609c2.7,0,4.664-1.686,4.664-4.147s-1.964-4.15-4.664-4.15c-2.681,0-4.626,1.688-4.626,4.15s1.945,4.147,4.626,4.147m0-6.947a2.811,2.811,0,1,1,0,5.6,2.808,2.808,0,1,1,0-5.6m9.567-2.382h-1.628v10.163h1.628Zm-19.553,10h-16.078v1.35h7.186v6.452h1.627V687.1h7.285Zm-.773-3.234c-3.237-.477-6.413-2.679-6.413-5.161v-.993h-1.707v.993c0,2.541-3.136,4.684-6.371,5.161l.654,1.31c2.779-.476,5.459-2,6.572-4.168,1.151,2.144,3.829,3.692,6.59,4.168Zm-22.549-2.559v-4.287h-1.628v9.845h1.628v-4.208h2.639v-1.35Zm-9.668,10.42h9.668V686.43h-11.314v1.212h9.705v1.548h-9.647v4.15h11.91v-1.252h-10.322Zm5.42-8.059c0-1.805-1.688-2.919-4.268-2.919-2.56,0-4.248,1.114-4.248,2.919s1.688,2.917,4.248,2.917c2.58,0,4.268-1.109,4.268-2.917m-6.968,0c0-1.072,1.053-1.707,2.7-1.707s2.72.635,2.72,1.707-1.072,1.707-2.72,1.707-2.7-.635-2.7-1.707m7.96-4.962h-4.446v-1.805h-1.628v1.805h-4.428v1.249h10.5Zm-14.45,16.2h1.627V675.711h-1.627Zm-10.322-9.806h6.569v-6.373h-8.258v1.331h6.611v3.711h-6.55v6.828h1.469a51.548,51.548,0,0,0,8.972-.654l-.159-1.331a52.2,52.2,0,0,1-8.654.635Zm-5.677-2.223v-5.8h-1.627v13.418h1.627v-6.272h2.559v-1.35Zm-9.628,6.392h-1.628v5.222h11.831V691.81h-10.2Zm6.81-3.515c-1.808.259-3.832.4-5.777.479v-3.792h-1.607v3.851c-1.35.019-2.641.04-3.771.04l.159,1.331a71.484,71.484,0,0,0,11.115-.714Zm-1.688-1.069a25.708,25.708,0,0,0,.458-5.282v-.932h-8.853v1.331h7.264a22.707,22.707,0,0,1-.476,4.7Zm-21.517,6.609v-4.565h5.42v-1.31h-10.621v-5.576h10.441v-1.331h-12.068v8.218h5.181v4.565H2617.1v1.35h16.178v-1.35Zm-12.7-14.231v6.728h-3.671v1.35h3.671v9.766h1.627V675.714Zm-10.6,7.958h5.836v-1.31h-5.836v-3.673h6.611v-1.35h-8.239V689.27h1.372a43.194,43.194,0,0,0,8.137-.556l-.179-1.331a40.19,40.19,0,0,1-7.7.556Zm-14.133-5.1c1.728,0,2.959,1.868,2.959,4.745,0,2.9-1.231,4.764-2.959,4.764-1.744,0-2.975-1.866-2.975-4.764,0-2.877,1.231-4.745,2.975-4.745m0-1.466c-2.639,0-4.526,2.419-4.526,6.212s1.887,6.212,4.526,6.212,4.525-2.422,4.525-6.212-1.884-6.212-4.525-6.212m7.762,16.472h1.628V675.73h-1.628Zm-16.257-.04h1.549V675.73h-1.549Zm-3.571-11.015h-3.832v1.35h3.832v8.773h1.528V676.169h-1.528Zm-7.722-3.3h5.082v-1.31h-6.69v11.333h1.153a28.932,28.932,0,0,0,6.59-.516l-.159-1.329a27.708,27.708,0,0,1-5.976.495Zm-9.009,16.613a4.42,4.42,0,0,0,2.9-4.15c0-1.347-.577-2.16-1.527-2.16a1.289,1.289,0,0,0-1.369,1.268,1.248,1.248,0,0,0,1.329,1.289.878.878,0,0,0,.22-.019,2.981,2.981,0,0,1-1.986,2.7Zm-9.411-6.132v-6.37h-1.627v6.37h-6.251v1.331h16.1v-1.331Zm4.666-10.422a38.018,38.018,0,0,1-.675,8.059l1.628.18a40.152,40.152,0,0,0,.675-8.239v-1.765h-12.486v1.329h10.859Zm-12.8,3.771h-2.917v-7.3h-1.628v17.785h1.628v-9.11h2.917Zm-10.618-7.106h-1.627v2.641h-4.486v1.31h10.5v-1.31h-4.386Zm-.793,5.42a4.105,4.105,0,1,0,4.345,4.11,4.06,4.06,0,0,0-4.345-4.11m0,6.849a2.75,2.75,0,1,1,2.8-2.739,2.671,2.671,0,0,1-2.8,2.739m-5.955-1.866h-16.157v1.31h4.208v5.894h1.627v-5.894h4.486v5.894h1.627v-5.894h4.208Zm-3.594-6.571h-10.579v4.724H2523.3V683.2h-11v-2.183h10.6v-4.584h-12.287v1.31h10.639Zm-19.452,9.925v-5.9h-1.607v5.9h-2.8v-5.9h-1.607v5.9h-3.951v1.331h16.1v-1.331Zm2.619-10.224a37.125,37.125,0,0,1-.614,7.722l1.607.2a38.106,38.106,0,0,0,.635-7.921v-1.964H2493.5v1.329h10.916Zm-33.625,5.756h16.139v-1.231h-16.139Zm3.573,5.243h10.559v-3.792h-12.206v1.17h10.6v1.49h-10.56V693.3h12.722v-1.172h-11.115Zm8.892-11.634h-10.4v3.813h12.328v-1.172h-10.719v-1.527h10.4v-3.713h-12.05V677.4h10.44ZM2462.8,689.924v-3.83h5.32V677h-1.588v3.176h-9.091V677h-1.609v9.091h5.319v3.83h-7.225v1.331h16.139v-1.331Zm-5.36-8.416h9.091v3.274h-9.091Zm-11.592,5.4c-3.652,0-5.936,1.21-5.936,3.314s2.284,3.314,5.936,3.314,5.915-1.21,5.915-3.314-2.263-3.314-5.915-3.314m0,5.357c-2.681,0-4.309-.754-4.309-2.043s1.627-2.064,4.309-2.064,4.306.775,4.306,2.064-1.627,2.043-4.306,2.043m1.707-7.86a6.125,6.125,0,0,1-4.327-5.436v-.617h3.909v-1.31h-9.507v1.31h3.97v.617a6.561,6.561,0,0,1-4.487,5.934l.853,1.292a7.706,7.706,0,0,0,4.486-4.528,7.31,7.31,0,0,0,4.287,4.01Zm-.992-4.049v1.331h3.512v4.666h1.649v-10.6h-1.649v4.605Zm-14.432,4.189h-2.639a29.449,29.449,0,0,0,.5-6.114v-1.548h-11.949v1.31H2428.4v.238a26.319,26.319,0,0,1-.556,6.114h-11.809v1.329h7.185v7.683h1.646v-7.683h7.264Zm-28.067,7.265v-4.266h-1.646v5.6H2414.3V691.81Zm8.1-7.7v4.785h1.648V675.751h-1.648v2.781h-4.525a4.555,4.555,0,0,0-3.632-1.667,4.466,4.466,0,1,0,0,8.93,4.56,4.56,0,0,0,3.652-1.686Zm0-4.266V682.8h-3.83a4.7,4.7,0,0,0,0-2.956Zm-11.2,1.488a3.027,3.027,0,1,1,3.038,3.036,2.94,2.94,0,0,1-3.038-3.036m-9.051-.177v-5.4h-1.628v13h1.628V682.5h2.641v-1.35Zm-9.467,6.27h-1.628v5.719h11.87V691.81h-10.242Zm-3.594-10.3v1.331h6.551c-.336,3.134-3.076,5.656-7.265,6.966l.656,1.289c5.121-1.607,8.355-4.981,8.355-9.586Zm-21.794,7.363h16.118v-1.329h-16.118Zm3.573,5.738h10.462v-4.189h-12.107v1.27h10.5v1.709h-10.44v4.306h12.584v-1.27h-11Zm10.621-9.805h-10.422v-2.779h10.242v-1.31H2359.2v5.4h12.05Zm-14.431,2.5h-2.937v-7.167h-1.628v17.785h1.628v-9.25h2.938Zm-10.639-4.01h3.952v-1.35H2340.5v1.35h4.07v2.263a9.308,9.308,0,0,1-4.684,7.662l.953,1.289a10.04,10.04,0,0,0,4.545-5.894,9.623,9.623,0,0,0,4.467,5.46l.932-1.31a8.564,8.564,0,0,1-4.6-7.206Zm-6.41,1.747h-2.641v-4.9H2335.5v11.118h1.627V682h2.641Zm-14.193,8.516h9.925v4.385h1.627v-5.717h-11.552Zm7.3-6.095c0-1.964-1.725-3.234-4.266-3.234-2.522,0-4.248,1.27-4.248,3.213,0,1.966,1.726,3.218,4.248,3.218,2.541,0,4.266-1.252,4.266-3.2m-6.966,0c0-1.191,1.072-1.964,2.7-1.964s2.718.773,2.718,1.943c0,1.191-1.091,1.966-2.718,1.966s-2.7-.754-2.7-1.945m7.958-5.457h-4.447v-1.985H2327.8v1.985h-4.425v1.308h10.5Zm-10.936,5.555H2320.1v-7.442h-1.628v17.8h1.628v-8.99h2.839Zm-11.3-.416h-1.607v5.478c-1.331.04-2.641.061-3.771.061l.178,1.35a72.851,72.851,0,0,0,11.036-.675l-.1-1.193c-1.807.238-3.792.339-5.738.418Zm4.089,2.956a44.123,44.123,0,0,0,.5-7.066v-.971h-8.993v1.331h7.405a37.7,37.7,0,0,1-.537,6.55Zm-21.376,5.915v-4.306h-1.628v5.616h11.989v-1.31Zm4.464-14.35H2290.5v8.276h8.318Zm-1.588,6.966h-5.139v-5.658h5.139Zm6.948-8.5h-1.628v12.783h1.628Zm-18.54,17.825h1.628V675.73h-1.628Zm-6.629-16.295H2277.4v3.2a9.357,9.357,0,0,1-4.785,8.038l.993,1.331a9.9,9.9,0,0,0,4.6-5.976,9.675,9.675,0,0,0,4.586,5.637l.971-1.31a8.859,8.859,0,0,1-4.763-7.72Zm-14.31-1.548v3.991h-4.566a4.009,4.009,0,0,0-3.711-2.62c-2.6,0-4.446,2.419-4.446,6.212s1.845,6.212,4.446,6.212a4.128,4.128,0,0,0,3.83-2.858h4.446v6.907h1.627V675.732Zm-8.277,12.346c-1.709,0-2.9-1.866-2.9-4.764,0-2.877,1.191-4.745,2.9-4.745,1.687,0,2.9,1.868,2.9,4.745,0,2.9-1.209,4.764-2.9,4.764m4.227-2.739a10.585,10.585,0,0,0,.2-2.025,10.121,10.121,0,0,0-.259-2.263h4.11v4.287Zm-9.231-2.284H2248.5v-7.3h-1.627v17.785h1.627v-9.11h2.917ZM2240.8,675.95h-1.627v2.641h-4.486v1.31h10.5v-1.31H2240.8Zm-.794,5.42a4.105,4.105,0,1,0,4.346,4.11,4.058,4.058,0,0,0-4.346-4.11m0,6.849a2.75,2.75,0,1,1,2.8-2.739,2.67,2.67,0,0,1-2.8,2.739m-9.964-3.673v-2.52a2.941,2.941,0,0,0,2.165-2.662c0-2.083-2.382-3.314-6.254-3.314-3.85,0-6.251,1.231-6.251,3.314,0,1.212.773,2.1,2.184,2.681v2.5H2217.9v1.31h16.117v-1.31Zm-8.673-5.182c0-1.289,1.746-2.043,4.583-2.043s4.586.754,4.586,2.043c0,1.273-1.746,2.046-4.586,2.046s-4.583-.773-4.583-2.046m2.122,3.1a15.312,15.312,0,0,0,4.944,0v2.085h-4.944Zm2.461,4.724c-3.811,0-6.092,1.133-6.092,3.178s2.281,3.155,6.092,3.155c3.832,0,6.1-1.112,6.1-3.155s-2.263-3.178-6.1-3.178m0,5.081c-2.8,0-4.446-.694-4.446-1.9s1.648-1.905,4.446-1.905c2.779,0,4.447.693,4.447,1.905s-1.667,1.9-4.447,1.9m-11.115-11.989v-4.544h-1.628v10.52h1.628v-4.6h2.62v-1.371Zm-9.885,10.382h9.885v-3.631h-11.531v1.149h9.925v1.389h-9.866v3.774h12.148v-1.172h-10.559Zm7.206-6.569c-1.53.217-3.2.336-4.825.416v-1.032c2.046-.177,3.335-1.013,3.335-2.321,0-1.469-1.646-2.345-4.147-2.345-2.54,0-4.168.876-4.168,2.345,0,1.329,1.289,2.162,3.354,2.321v1.091c-1.707.061-3.354.061-4.743.061l.177,1.209a65.421,65.421,0,0,0,11.116-.693Zm-8.257-2.938c0-.8,1.011-1.27,2.62-1.27,1.588,0,2.6.474,2.6,1.27s-1.011,1.289-2.6,1.289c-1.609,0-2.62-.5-2.62-1.289m7.72-4.07h-4.287v-1.527h-1.627v1.527H2201.4v1.17h10.221ZM2180,685.239h16.139v-1.231H2180Zm3.573,5.243h10.56v-3.792h-12.208v1.17h10.6v1.49h-10.559V693.3h12.724v-1.172h-11.116Zm8.893-11.634h-10.4v3.813h12.325v-1.172h-10.719v-1.527h10.4v-3.713H2182.03V677.4h10.44Zm-29.337,12.309h16.139v-1.35h-16.139Zm15.343-6.471c-3.115-.6-6.49-3.3-6.49-6.333v-1.368h-1.707v1.368c0,3.036-3.356,5.717-6.471,6.333l.733,1.347a9.762,9.762,0,0,0,6.59-5.14,9.66,9.66,0,0,0,6.611,5.14Zm-29.594-1.45h5.161v4.684h-5.161Zm-1.609-5.995v12.008h8.377V677.241h-1.607v4.706h-5.161v-4.706Zm11.931,16.316h1.628V675.732H2159.2Zm-16.773-17.825v6.034H2138.3V683.1h4.129v10.462h1.627V675.732Zm-6.807,1.527h-1.628v3.2a9.406,9.406,0,0,1-4.6,8.019l.992,1.291a9.881,9.881,0,0,0,4.425-5.957,9.536,9.536,0,0,0,4.468,5.637l.952-1.289a8.877,8.877,0,0,1-4.6-7.7Zm-14.292,16.258h1.628V675.732h-1.628Zm-10.242-9.866h6.371v-1.31h-6.371V678.67h7.027v-1.331h-8.635v11.91h1.41a47.089,47.089,0,0,0,8.554-.6l-.159-1.329a43.544,43.544,0,0,1-8.2.6Zm-6.65,9.866h1.627V675.732h-1.627Zm-10.221-16.059h-1.628v11.475h1.469a42.318,42.318,0,0,0,8.734-.836l-.18-1.389a42.07,42.07,0,0,1-8.4.836Zm-3.475,8.575h-16.157v1.331h4.11v6.291h1.628v-6.291h4.7v6.291h1.628v-6.291h4.089Zm-2.064-9.329h-12.029v6.929h12.029Zm-1.607,5.619h-8.831V678h8.831Zm-16.316-6.571v7.127h-4.11v1.331h4.11v9.327h1.628V675.751Zm-12.049,1.829v1.329h6.392a12.608,12.608,0,0,1-.575,3.136l-6.73.437.3,1.408,5.934-.553a12.628,12.628,0,0,1-6.292,5.992l.913,1.291c6.251-3.176,8.059-7.879,8.059-13.04Zm-8.2,4.028v-5.857h-1.628v13.341h1.628v-6.116h2.639v-1.368Zm-9.448,6.431h-1.627v5.1h11.87V691.81H2041.06Zm5.2-4.526c0-1.985-1.747-3.3-4.269-3.3s-4.247,1.31-4.247,3.3c0,2.006,1.728,3.316,4.247,3.316s4.269-1.31,4.269-3.316m-6.968,0c0-1.231,1.072-2.025,2.7-2.025,1.609,0,2.721.794,2.721,2.025,0,1.252-1.112,2.046-2.721,2.046-1.627,0-2.7-.794-2.7-2.046m7.961-5.6h-4.446v-2.165h-1.628v2.165h-4.427v1.31h10.5ZM2019.84,685.4h16.1v-1.331h-16.1Zm8.019,1.588c-3.79,0-6.092,1.17-6.092,3.253,0,2.064,2.3,3.237,6.092,3.237s6.095-1.172,6.095-3.237c0-2.083-2.3-3.253-6.095-3.253m0,5.219c-2.8,0-4.446-.735-4.446-1.966,0-1.268,1.649-1.983,4.446-1.983s4.446.715,4.446,1.983c0,1.231-1.667,1.966-4.446,1.966m6.232-11.513h-10.459v-4.586h-1.628V682h12.087Zm-14.588,2.263h-2.858v-7.225h-1.628v17.8h1.628v-9.229h2.858Zm-15.6-5.319v1.35h6.529c-.376,4.208-2.819,7.622-7.363,9.906l.892,1.268c5.756-2.877,8.08-7.461,8.08-12.524Zm-5.9,8.355v-1.308h-16.1v1.308h7.244v2.046H1983.7v1.289h10.7v4.15h1.628v-5.439h-5.24v-2.046Zm-14.628-2.3c2.917-.3,5.518-1.368,6.59-3.155,1.072,1.786,3.652,2.858,6.569,3.155l.516-1.231c-3.375-.336-6.074-1.707-6.212-3.692h5.518v-1.289h-5.579v-1.845h-1.627v1.845h-5.577v1.289h5.5c-.138,1.985-2.838,3.355-6.193,3.692Zm-2.223.855h-2.641a29.329,29.329,0,0,0,.5-6.114v-1.548h-11.949v1.31h10.361v.238a26.314,26.314,0,0,1-.556,6.114h-11.812v1.329h7.185v7.683h1.649v-7.683h7.265ZM1952.869,690V686.65h5.7v-1.31H1947.61V682.46h10.539v-5.418h-12.187v1.331h10.6v2.779H1946v5.5h5.221V690h-7.246v1.331h16.178V690Zm-20.921,2.006v-1.887h9.827V685.9H1930.3v1.289h9.864v1.709h-9.825V693.3h12.108v-1.291Zm4.089-9.229h4.11v2.26h1.628v-9.289h-1.628v2.522h-4.11v-1.688h-1.607v2.522h-4.8v-2.541h-1.609v7.76h8.019Zm-1.607.236h-4.8v-2.639h4.8Zm5.717-1.509h-4.11v-1.964h4.11Zm-16.872-5.756v2.6h-4.486a4.683,4.683,0,0,0-3.692-1.627,4.3,4.3,0,1,0,0,8.575,4.639,4.639,0,0,0,3.671-1.628h4.507v2.562h1.646v-10.5Zm-8.178,8.159a2.9,2.9,0,1,1,3.035-2.919,2.873,2.873,0,0,1-3.035,2.919m4.385-1.569a4.608,4.608,0,0,0,0-2.678h3.793v2.678Zm-6.471,6.193h10.263v5.023h1.646v-6.352h-11.909Zm-6.688,5h1.628V675.751h-1.628Zm-6.59-14.628h4.189v-1.35h-9.945v1.35h4.129v2.263a9.1,9.1,0,0,1-4.724,7.641l.953,1.31a9.971,9.971,0,0,0,4.584-5.875,9.418,9.418,0,0,0,4.665,5.441l.913-1.31a8.294,8.294,0,0,1-4.764-7.206Z" transform="translate(-1332.283 1552.657)"/><path class="b" d="M1890.635,684.317a2.675,2.675,0,1,0-2.48-2.657,2.537,2.537,0,0,0,2.48,2.657" transform="translate(-1339.263 1557.231)"/><path class="c" d="M1861.693,667.328s-19.859,0-19.859,19.859v51.631s0,19.859,19.859,19.859h41.118s19.859,0,19.859-19.859V687.187s0-19.859-19.859-19.859Z" transform="translate(-1401.11 1540.672)"/><g class="d" transform="translate(420 2300.46)"><g class="e"><path class="f" d="M0,0H1040.04" transform="translate(21.178 16.638)"/></g></g><path class="g" d="M1855.182,721.6s-13.238,0-13.238,13.238V866.291s0,13.241,13.238,13.241h104.977s13.238,0,13.238-13.241V734.835s0-13.238-13.238-13.238Z" transform="translate(-1400.963 1613.132)"/><path d="M1930.3,782.642h-2.921a29.968,29.968,0,0,0,.546-6.452v-1.6H1915.65v.925h11.181v.672a26.861,26.861,0,0,1-.609,6.452h-12.8v.946h7.881v8.407h1.114v-8.407h7.881Zm-30.5,7.923v-4.834h-1.114v5.78h12.232v-.946Zm9.437-8.764v5.38h1.114V773.311h-1.114V776.4h-5.128a4.807,4.807,0,0,0-3.909-1.849,4.574,4.574,0,1,0,0,9.142,4.709,4.709,0,0,0,3.93-1.891Zm0-4.456v3.51h-4.6a5.156,5.156,0,0,0,.294-1.745,5.28,5.28,0,0,0-.315-1.765Zm-12.695,1.765a3.657,3.657,0,1,1,3.657,3.615,3.538,3.538,0,0,1-3.657-3.615m-19.861,11.454v-4.539h-1.114v5.485H1887.8v-.946Zm6.284-7c-2.606-.883-4.876-3.089-4.876-5.78V776.9h4.393v-.925h-4.371V773.4H1877v2.585h-4.434v.925H1877v.883a6.86,6.86,0,0,1-4.792,6.137l.567.883a7.9,7.9,0,0,0,4.792-4.792,8.042,8.042,0,0,0,4.813,4.435Zm-1.114-4.329v.946h4.266v7.125h1.114v-14h-1.114v5.927Zm-10.634,1.976h-3.279V773.29h-1.114v18.663h1.114v-9.794h3.279Zm-11.391-7.734h-1.114V776.4h-5.086v.946h11.1V776.4h-4.9Zm-.525,5.717a4.2,4.2,0,1,0,4.434,4.2,4.159,4.159,0,0,0-4.434-4.2m0,7.44a3.24,3.24,0,1,1,3.384-3.237,3.223,3.223,0,0,1-3.384,3.237" transform="translate(-1385.362 1682.153)"/><path class="g" d="M1855.182,845.827s-13.238,0-13.238,13.238V990.521s0,13.241,13.238,13.241h104.977s13.238,0,13.238-13.241V859.065s0-13.238-13.238-13.238Z" transform="translate(-1400.963 1779.005)"/><path d="M1930.25,906.9h-2.921a29.972,29.972,0,0,0,.546-6.452v-1.6H1915.6v.925h11.181v.673a26.863,26.863,0,0,1-.609,6.452h-12.8v.945h7.881v8.407h1.114v-8.407h7.881Zm-30.5,7.923v-4.834h-1.114v5.78h12.232v-.945Zm9.437-8.764v5.38h1.114V897.565h-1.114v3.089h-5.128a4.807,4.807,0,0,0-3.909-1.85,4.574,4.574,0,1,0,0,9.142,4.709,4.709,0,0,0,3.93-1.892Zm0-4.456v3.51h-4.6a5.154,5.154,0,0,0,.294-1.745,5.276,5.276,0,0,0-.315-1.765Zm-12.695,1.765a3.657,3.657,0,1,1,3.657,3.615,3.538,3.538,0,0,1-3.657-3.615m-15.3,5.843c-3.783,0-6.116,1.282-6.116,3.447,0,2.206,2.332,3.489,6.116,3.489,3.741,0,6.074-1.282,6.074-3.489,0-2.165-2.333-3.447-6.074-3.447m0,6.032c-3.047,0-5.023-1.009-5.023-2.585,0-1.556,1.976-2.543,5.023-2.543,3.005,0,5,.988,5,2.543,0,1.576-2,2.585-5,2.585m4.876-13.01v2.964h-5.38v.945h5.38V909h1.114V897.586h-1.114v3.7h-4.813a8.527,8.527,0,0,0,.294-2.228h-8.344v.925h7.146c-.294,3.657-3.51,6.431-8.07,7.86l.5.925c3.909-1.24,6.894-3.489,8.133-6.536Zm-18.116,2.081v-6.746h-1.114v14.607h1.114v-6.914h2.963v-.946Zm-10.3,6.893h-1.114v4.561h12.106v-.945h-10.992Zm7.9-3.005c-1.724.252-3.615.42-5.464.5v-1.576c2.228-.147,3.657-1.2,3.657-2.858,0-1.766-1.681-2.837-4.224-2.837-2.564,0-4.245,1.072-4.245,2.837,0,1.681,1.45,2.711,3.7,2.858v1.639c-1.912.063-3.762.084-5.317.084l.169.967a72.555,72.555,0,0,0,11.811-.8Zm-9.227-3.93c0-1.2,1.282-2,3.195-2s3.194.8,3.194,2c0,1.219-1.282,2.038-3.194,2.038s-3.195-.82-3.195-2.038m8.617-4.687H1860.1V897.5h-1.114v2.081h-4.855v.883h10.824Z" transform="translate(-1385.313 1848.001)"/><line class="h" x2="95.321" transform="translate(459.046 2729.751)"/><path class="g" d="M1987.084,845.827s-13.238,0-13.238,13.238V990.521s0,13.241,13.238,13.241h104.977s13.24,0,13.24-13.241V859.065s0-13.238-13.24-13.238Z" transform="translate(-1224.847 1779.005)"/><path d="M2084.173,906.873h-2.921a29.972,29.972,0,0,0,.546-6.452v-1.6h-12.274v.925H2080.7v.673a26.868,26.868,0,0,1-.609,6.452h-12.8v.945h7.881v8.407h1.114v-8.407h7.881Zm-30.5,7.923v-4.834h-1.114v5.78H2064.8V914.8Zm9.437-8.764v5.38h1.114V897.541h-1.114v3.089h-5.128a4.809,4.809,0,0,0-3.909-1.85,4.574,4.574,0,1,0,0,9.142,4.71,4.71,0,0,0,3.93-1.892Zm0-4.456v3.51h-4.6a5.148,5.148,0,0,0,.294-1.745,5.264,5.264,0,0,0-.316-1.765Zm-12.694,1.765a3.657,3.657,0,1,1,3.657,3.615,3.538,3.538,0,0,1-3.657-3.615m-7.65,3.279V905.7h-16.877v.925h7.881v2.207h-5.759v.9h11.433v2.081h-11.391v4.119h13.093v-.925h-12v-2.333h11.391v-3.846h-5.653V906.62Zm-2.207-8.428h-12.4v5.569h12.4Zm-1.093,4.645h-10.235V899.1h10.235Zm-17.78,5.99h1.114V897.52h-1.114Zm-11.2,1.954h11.2v5.4h1.114v-6.347h-12.316Zm8.281-4.1c-2.585-.988-4.9-3.51-4.9-6.431V898.4h-1.093v1.85a7.666,7.666,0,0,1-4.854,6.789l.588.9a8.8,8.8,0,0,0,4.833-5.318,8.4,8.4,0,0,0,4.855,4.939Zm-16.841,1.569a1.044,1.044,0,0,0,1.03-1.07,1.023,1.023,0,1,0-2.041,0,1.04,1.04,0,0,0,1.012,1.07m-13.395-1.275v-2.5h5.906v-.946h-11.6v-4.182h11.454V898.4h-12.547v6.074h5.7v2.5h-7.86v.946h16.876v-.946Zm-.526,2.543c-3.951,0-6.347,1.2-6.347,3.321,0,2.144,2.4,3.321,6.347,3.321s6.347-1.177,6.347-3.321c0-2.123-2.4-3.321-6.347-3.321m0,5.738c-3.195,0-5.233-.9-5.233-2.417s2.039-2.417,5.233-2.417,5.233.9,5.233,2.417-2.039,2.417-5.233,2.417" transform="translate(-1217.193 1848.025)"/><line class="h" x2="95.321" transform="translate(767.064 2729.751)"/><path class="g" d="M1987.084,721.6s-13.238,0-13.238,13.238V866.291s0,13.241,13.238,13.241h104.977s13.24,0,13.24-13.241V734.835s0-13.238-13.24-13.238Z" transform="translate(-1224.847 1613.132)"/><path d="M2062.032,782.63h-2.921a29.969,29.969,0,0,0,.546-6.452v-1.6h-12.274v.925h11.181v.672a26.845,26.845,0,0,1-.61,6.452h-12.8v.946h7.881v8.407h1.114v-8.407h7.881Zm-30.5,7.923V785.72h-1.114v5.78h12.232v-.946Zm9.437-8.764v5.38h1.114V773.3h-1.114v3.089h-5.128a4.808,4.808,0,0,0-3.909-1.849,4.574,4.574,0,1,0,0,9.142,4.709,4.709,0,0,0,3.93-1.891Zm0-4.456v3.51h-4.6a5.153,5.153,0,0,0,.294-1.745,5.276,5.276,0,0,0-.315-1.765Zm-12.694,1.765a3.657,3.657,0,1,1,3.657,3.615,3.537,3.537,0,0,1-3.657-3.615m-24.548,3.909v.946h7.986v4.161h1.114v-4.161h7.86v-.946Zm3.383,3.174H2006V791.5h12.8v-.946h-11.685Zm11.328-11.959H2005.98v6.305h12.463Zm-1.072,5.38h-10.3v-4.456h10.3Zm-27.238,10.95v-4.539h-1.114V791.5h12.232v-.946Zm6.284-7c-2.606-.883-4.876-3.089-4.876-5.78v-.883h4.393v-.925h-4.371v-2.585h-1.114v2.585h-4.434v.925h4.434v.883a6.86,6.86,0,0,1-4.792,6.137l.567.883a7.9,7.9,0,0,0,4.792-4.792,8.039,8.039,0,0,0,4.813,4.435Zm-1.114-4.329v.946h4.266V787.3h1.114v-14h-1.114v5.927Z" transform="translate(-1209.078 1682.165)"/><line class="h" x2="95.321" transform="translate(767.064 2439.65)"/><line class="h" x2="95.321" transform="translate(456.064 2439.65)"/><path class="i" d="M1972.835,919.408a64.954,64.954,0,1,0-64.954-64.954,64.953,64.953,0,0,0,64.954,64.954" transform="translate(-1312.924 1703.798)"/><path class="j" d="M1988.653,838.813h2.165v-19.02h-2.165Zm-10.214-10.3h6.474v-1.744h-6.474V823.24h7.209v-1.786h-9.374v12.9h1.576a53.306,53.306,0,0,0,9.079-.588l-.21-1.744a51.447,51.447,0,0,1-8.281.567Zm-8.049,10.277h2.165V819.814h-2.165Zm-10.257-17.129h-2.144V834h1.618a45.331,45.331,0,0,0,9.269-.9l-.232-1.807a43.959,43.959,0,0,1-8.512.862Zm-4.35,8.953h-17.213v1.744h4.2V838.9h2.165v-6.536h4.54V838.9h2.144v-6.536h4.161Zm-2.144-9.836h-12.968v7.5h12.968Zm-2.144,5.78h-8.68V822.5h8.68Zm-17.654-6.746v7.461h-3.993v1.786h3.993v9.752h2.186v-19Zm-12.526,1.892v1.765h6.431a14.979,14.979,0,0,1-.5,2.984l-6.914.42.315,1.85,5.927-.546a13.186,13.186,0,0,1-6.326,5.948l1.177,1.681c6.746-3.447,8.491-8.449,8.491-14.1Z" transform="translate(-1296.418 1744.244)"/><path class="j" d="M1966.33,823.859V822.24h10.193v-4.75h-12.358v1.7h10.214v1.45h-10.193v4.918h12.968v-1.7Zm4.077-9.352h3.93v2.144h2.186v-9.836h-2.186v2.564h-3.93v-1.723h-2.123v2.48h-4.477v-2.48h-2.144V816h8.743Zm-2.123-.231h-4.477v-2.48h4.477Zm6.053-1.45h-3.93v-1.786h3.93Zm-18.264-6.011v2.669h-4.5a5.086,5.086,0,0,0-3.867-1.639,4.634,4.634,0,1,0,0,9.247,4.944,4.944,0,0,0,3.867-1.639h4.5v2.585h2.165V806.793Zm-8.364,8.428a2.786,2.786,0,1,1,2.879-2.774,2.721,2.721,0,0,1-2.879,2.774m4.77-1.555a4.6,4.6,0,0,0,.169-1.219,5.537,5.537,0,0,0-.147-1.219h3.572v2.438Zm-7.04,7.041h10.634v5.086h2.165v-6.831h-12.8Zm-7.776,5.065h2.186V806.814h-2.186Zm-6.431-15.3h4.225v-1.786h-10.635v1.786h4.224V812.3a9.281,9.281,0,0,1-4.9,8.155l1.24,1.723a9.789,9.789,0,0,0,4.77-5.969,9.3,9.3,0,0,0,4.792,5.485l1.2-1.7a8.563,8.563,0,0,1-4.918-7.692Z" transform="translate(-1291.203 1726.886)"/><path class="k" d="M1978,793.045l-12.078-1.861,13.939,13.939Z" transform="translate(-1235.433 1706.044)"/><path class="k" d="M1964.438,806.4l12.078,1.861-13.939-13.939Z" transform="translate(-1239.895 1710.24)"/><rect class="k" width="14.061" height="10.513" transform="translate(724.566 2509.187) rotate(-44.999)"/><path class="k" d="M1914.925,837.191l-12.078-1.861,13.939,13.939Z" transform="translate(-1319.646 1764.989)"/><path class="k" d="M1901.367,850.55l12.078,1.861-13.939-13.939Z" transform="translate(-1324.107 1769.184)"/><rect class="k" width="14.061" height="10.513" transform="translate(577.282 2612.278) rotate(-44.999)"/><path class="k" d="M1914.721,806.608l1.861-12.078-13.939,13.939Z" transform="translate(-1319.919 1710.513)"/><path class="k" d="M1901.362,793.05l-1.861,12.078,13.939-13.939Z" transform="translate(-1324.114 1706.051)"/><rect class="k" width="10.513" height="14.061" transform="translate(577.271 2506.557) rotate(-45.001)"/><path class="k" d="M1978,850.545l1.861-12.078-13.939,13.939Z" transform="translate(-1235.426 1769.178)"/><path class="k" d="M1964.642,836.987l-1.861,12.078,13.939-13.939Z" transform="translate(-1239.621 1764.716)"/><rect class="k" width="10.513" height="14.061" transform="translate(725.043 2609.159) rotate(-45.001)"/><g transform="translate(-1391.197 1539.943)"><path class="l" d="M2071.5,721.6s-13.238,0-13.238,13.238v85.118s0,13.238,13.238,13.238h91.314s13.238,0,13.238-13.238V734.835s0-13.238-13.238-13.238Z" transform="translate(300.832 72.46)"/><path class="l" d="M2240.359,721.6s-13.238,0-13.238,13.238v85.118s0,13.238,13.238,13.238h91.314s13.238,0,13.238-13.238V734.836s0-13.238-13.238-13.238Z" transform="translate(526.286 72.462)"/><path class="l" d="M2184.233,721.6s-13.238,0-13.238,13.238v85.118s0,13.238,13.238,13.238h91.314s13.238,0,13.238-13.238V734.835s0-13.238-13.238-13.238Z" transform="translate(451.347 72.46)"/><path class="l" d="M2128.2,721.6s-13.238,0-13.238,13.238v85.118s0,13.238,13.238,13.238h91.314s13.238,0,13.238-13.238V734.835s0-13.238-13.238-13.238Z" transform="translate(376.528 72.46)"/></g><path class="i" d="M2205.135,919.266a64.954,64.954,0,1,0-64.954-64.954,64.953,64.953,0,0,0,64.954,64.954" transform="translate(-979.756 1703.608)"/><path class="j" d="M2220.953,838.671h2.165v-19.02h-2.165Zm-10.214-10.3h6.473v-1.745h-6.473V823.1h7.209v-1.786h-9.373v12.9h1.575a53.282,53.282,0,0,0,9.08-.589l-.21-1.744a51.435,51.435,0,0,1-8.281.568Zm-8.049,10.277h2.165V819.672h-2.165Zm-10.257-17.129h-2.144v12.337h1.618a45.337,45.337,0,0,0,9.268-.9l-.23-1.808a43.942,43.942,0,0,1-8.512.862Zm-4.35,8.953H2170.87v1.744h4.2v6.536h2.165v-6.536h4.54v6.536h2.144v-6.536h4.161Zm-2.144-9.836h-12.967v7.5h12.967Zm-2.144,5.78h-8.68v-4.056h8.68Zm-17.654-6.746v7.461h-3.993v1.787h3.993v9.752h2.186v-19Zm-12.526,1.891v1.766h6.431a15.017,15.017,0,0,1-.5,2.984l-6.915.42.316,1.849,5.926-.546a13.185,13.185,0,0,1-6.326,5.948l1.177,1.681c6.746-3.447,8.491-8.449,8.491-14.1Z" transform="translate(-963.25 1744.054)"/><path class="j" d="M2198.594,823.7v-1.618h10.193v-4.75h-12.358v1.7h10.214v1.45H2196.45v4.918h12.967v-1.7Zm4.078-9.353h3.93V816.5h2.186V806.66H2206.6v2.564h-3.93V807.5h-2.123v2.48h-4.477V807.5h-2.144v8.344h8.743Zm-2.123-.231h-4.477v-2.48h4.477Zm6.052-1.45h-3.93v-1.786h3.93Zm-14.27.4v-1.786h-2.859V806.66h-2.165v19h2.165v-6.978h2.859V816.9h-2.859V813.07Zm-12.505-5.023c-2.838,0-4.876,2.606-4.876,6.683,0,4.119,2.039,6.7,4.876,6.7s4.876-2.585,4.876-6.7c0-4.077-2.039-6.683-4.876-6.683m0,11.454c-1.661,0-2.8-1.786-2.8-4.771,0-2.943,1.135-4.729,2.8-4.729,1.639,0,2.8,1.786,2.8,4.729,0,2.984-1.156,4.771-2.8,4.771m-23.35-2.963v1.744h7.692v3.384h2.165v-3.384h7.355v-1.744Zm4.266,3.552h-2.165v5.191h13.2v-1.765h-11.034Zm10.7-12.841H2169.3v2.207h-8.449v-2.207H2158.7v7.692h12.736Zm-2.144,5.99h-8.449v-2.123h8.449Z" transform="translate(-957.999 1726.709)"/><path class="k" d="M2173.7,775.895l-9.857,7.223h19.713Z" transform="translate(-948.16 1685.631)"/><path class="k" d="M2173.561,790.8l9.857-7.223H2163.7Z" transform="translate(-948.348 1695.883)"/><rect class="k" width="10.513" height="14.06" transform="translate(1219.957 2467.332)"/><path class="k" d="M2173.7,847.977l-9.857,7.223h19.713Z" transform="translate(-948.16 1781.876)"/><path class="k" d="M2173.561,862.879l9.857-7.223H2163.7Z" transform="translate(-948.348 1792.128)"/><rect class="k" width="10.513" height="14.06" transform="translate(1219.957 2635.658)"/><g class="m" transform="translate(1108 2687)"><rect class="t" width="234" height="64"/><rect class="a" x="5" y="5" width="224" height="54"/></g><rect class="n" width="194" height="116" transform="translate(1128 2671)"/><rect class="o" width="122" height="12" transform="translate(1164 2719)"/><text class="p" transform="translate(1164 2724)"><tspan x="0" y="0">시민과학자</tspan></text><text class="q" transform="translate(464 2250)"><tspan x="0" y="0">기대</tspan><tspan x="0" y="25">효과</tspan></text><g transform="translate(248.076 1729.101)"><path class="r" d="M255.093,683.257a20.77,20.77,0,0,1-.6-40.8"/><path class="r" d="M264.09,642.747a20.771,20.771,0,0,1-1.965,40.538"/><path class="r" d="M253.807,646.618l3.359-4.887-5.8-1.832"/><path class="r" d="M263.667,678.526l-3.811,4.543,5.6,2.379"/><path class="r" d="M266.427,664.351h.022a4.881,4.881,0,0,0-.3-1.259l0,0c-.052-.167-.125-.354-.2-.557-.039-.1-.074-.192-.117-.289a21.9,21.9,0,0,0-.992-2.07c-1.66-3.1-6.922-10.378-6.922-10.378s-5.469,7.613-7.4,12.319a8.345,8.345,0,0,0-.454,1.259c-.029.1-.048.186-.072.277-.039.164-.074.327-.1.5-.008.048-.029.106-.034.155h.008a8.384,8.384,0,1,0,16.562.049Z"/><path class="s" d="M261.064,661.038s2.808,4.492.336,6.85"/><path class="s" d="M260,669.909a.393.393,0,1,1-.393-.393A.394.394,0,0,1,260,669.909Z"/></g><g transform="translate(769.076 1727.101)"><path class="r" d="M255.093,683.257a20.77,20.77,0,0,1-.6-40.8"/><path class="r" d="M264.09,642.747a20.771,20.771,0,0,1-1.965,40.538"/><path class="r" d="M253.807,646.618l3.359-4.887-5.8-1.832"/><path class="r" d="M263.667,678.526l-3.811,4.543,5.6,2.379"/><path class="r" d="M266.427,664.351h.022a4.881,4.881,0,0,0-.3-1.259l0,0c-.052-.167-.125-.354-.2-.557-.039-.1-.074-.192-.117-.289a21.9,21.9,0,0,0-.992-2.07c-1.66-3.1-6.922-10.378-6.922-10.378s-5.469,7.613-7.4,12.319a8.345,8.345,0,0,0-.454,1.259c-.029.1-.048.186-.072.277-.039.164-.074.327-.1.5-.008.048-.029.106-.034.155h.008a8.384,8.384,0,1,0,16.562.049Z"/><path class="s" d="M261.064,661.038s2.808,4.492.336,6.85"/><path class="s" d="M260,669.909a.393.393,0,1,1-.393-.393A.394.394,0,0,1,260,669.909Z"/></g><g transform="translate(337.018 2029.517)"><circle class="r" cx="9.849" cy="9.849" r="9.849" transform="translate(465.719 369.726) rotate(-76.038)"/><line class="r" y1="6.303" transform="translate(477.65 340.483)"/><line class="r" x1="4.457" y1="4.457" transform="translate(462.33 346.829)"/><line class="r" x1="6.305" transform="translate(455.982 362.149)"/><line class="r" x1="4.457" y2="4.456" transform="translate(462.33 373.014)"/><line class="r" x1="0.001" y2="6.303" transform="translate(477.649 377.513)"/><line class="r" x2="4.456" y2="4.456" transform="translate(488.514 373.014)"/><line class="r" x2="6.303" y2="0.001" transform="translate(493.014 362.149)"/><line class="r" y1="4.456" x2="4.458" transform="translate(488.514 346.83)"/></g><g transform="translate(686.018 2027.517)"><circle class="r" cx="9.849" cy="9.849" r="9.849" transform="translate(465.719 369.726) rotate(-76.038)"/><line class="r" y1="6.303" transform="translate(477.65 340.483)"/><line class="r" x1="4.457" y1="4.457" transform="translate(462.33 346.829)"/><line class="r" x1="6.305" transform="translate(455.982 362.149)"/><line class="r" x1="4.457" y2="4.456" transform="translate(462.33 373.014)"/><line class="r" x1="0.001" y2="6.303" transform="translate(477.649 377.513)"/><line class="r" x2="4.456" y2="4.456" transform="translate(488.514 373.014)"/><line class="r" x2="6.303" y2="0.001" transform="translate(493.014 362.149)"/><line class="r" y1="4.456" x2="4.458" transform="translate(488.514 346.83)"/></g><g transform="translate(368.803 2120.185)"><path class="r" d="M147.416,549.482l-10,34h22Z"/><line class="r" y2="15" transform="translate(148.416 573.816)"/><path class="r" d="M123.816,559.982l-6.9,23.463H132.1Z"/><line class="r" y2="10.352" transform="translate(124.507 578.465)"/><path class="r" d="M131.254,546.1h-.727c.006-.1.016-.2.016-.3a4.98,4.98,0,1,0-9.959,0c0,.1.01.2.016.3h-.728a4.676,4.676,0,0,0-4.676,4.675c0,2.582,2.094,4.16,4.676,4.16h11.382c2.582,0,4.676-1.578,4.676-4.16A4.676,4.676,0,0,0,131.254,546.1Z"/></g><g transform="translate(1155.804 1825.185)"><path class="r" d="M147.416,549.482l-10,34h22Z"/><line class="r" y2="15" transform="translate(148.416 573.816)"/><path class="r" d="M123.816,559.982l-6.9,23.463H132.1Z"/><line class="r" y2="10.352" transform="translate(124.507 578.465)"/><path class="r" d="M131.254,546.1h-.727c.006-.1.016-.2.016-.3a4.98,4.98,0,1,0-9.959,0c0,.1.01.2.016.3h-.728a4.676,4.676,0,0,0-4.676,4.675c0,2.582,2.094,4.16,4.676,4.16h11.382c2.582,0,4.676-1.578,4.676-4.16A4.676,4.676,0,0,0,131.254,546.1Z"/></g><g transform="translate(560.595 2506.821)"><path class="r" d="M234.912,181.685s-4.093-10.233,7.548-15.127c10.169-4.276,12.784,3.374,20.456,2.5,9.75-1.116,12.541-4.875,12.541-4.875s.281,18.982-18.9,25.6C238.477,196.014,234.912,181.685,234.912,181.685Z"/><path class="r" d="M233.977,190.3s-3.838-5.789.48-9.458"/><path class="r" d="M234.465,180.529s7.15-6.964,15.191-4.389"/></g><g transform="translate(1171.595 2211.821)"><path class="r" d="M234.912,181.685s-4.093-10.233,7.548-15.127c10.169-4.276,12.784,3.374,20.456,2.5,9.75-1.116,12.541-4.875,12.541-4.875s.281,18.982-18.9,25.6C238.477,196.014,234.912,181.685,234.912,181.685Z"/><path class="r" d="M233.977,190.3s-3.838-5.789.48-9.458"/><path class="r" d="M234.465,180.529s7.15-6.964,15.191-4.389"/></g></g></svg>