<svg xmlns="http://www.w3.org/2000/svg" width="296.157" height="68.125" viewBox="0 0 296.157 68.125"><defs><style>.a{fill:#0092e5;}.b{fill:#1a1311;}</style></defs><g transform="translate(0 -7)"><ellipse class="a" cx="10.461" cy="11.111" rx="10.461" ry="11.111" transform="translate(211.469 38.154)"/><g transform="translate(0 7)"><path class="b" d="M192.913,360V383.4a25.662,25.662,0,0,0-6.046-5,17.6,17.6,0,0,0-9.171-2.168,20.019,20.019,0,0,0-8.328,1.779,21.216,21.216,0,0,0-6.958,5.156,24.2,24.2,0,0,0-4.768,8.168,31.866,31.866,0,0,0-1.733,10.882v.183a30.578,30.578,0,0,0,1.779,10.746,25.075,25.075,0,0,0,4.768,8.076,21.243,21.243,0,0,0,6.981,5.111,20.512,20.512,0,0,0,8.419,1.779,16.282,16.282,0,0,0,9.08-2.3A27.043,27.043,0,0,0,193,420.409l-.091,6.617h17.522V360Zm.274,42.23a13.178,13.178,0,0,1-.775,4.541,11.02,11.02,0,0,1-2.145,3.581,9.589,9.589,0,0,1-14.282,0,11.983,11.983,0,0,1-2.19-3.581,12.183,12.183,0,0,1-.821-4.541v-.183a12.092,12.092,0,0,1,.821-4.54,11.469,11.469,0,0,1,2.19-3.537,10.033,10.033,0,0,1,3.217-2.3,9.589,9.589,0,0,1,11.065,2.35,11.293,11.293,0,0,1,2.145,3.537,12.721,12.721,0,0,1,.775,4.494Z" transform="translate(-155.908 -359.996)"/><path class="b" d="M262.033,388.624a15.665,15.665,0,0,0-4.084-6.661,19.042,19.042,0,0,0-7.574-4.495,35.6,35.6,0,0,0-11.339-1.574,52.984,52.984,0,0,0-11.157,1.05,54.794,54.794,0,0,0-8.966,2.806l3.583,12.32a44.531,44.531,0,0,1,6.525-2.031,32.985,32.985,0,0,1,7.164-.73c3.354,0,5.863.707,7.483,2.1a7.505,7.505,0,0,1,2.442,5.977v.821a37.916,37.916,0,0,0-5.293-1.324,36.761,36.761,0,0,0-6.663-.592,29.084,29.084,0,0,0-7.984,1,17.448,17.448,0,0,0-6.092,2.943,13.061,13.061,0,0,0-3.947,4.86,15.283,15.283,0,0,0-1.437,6.8v.183a15.861,15.861,0,0,0,1.3,6.616,13.243,13.243,0,0,0,3.537,4.768,15.608,15.608,0,0,0,5.27,2.943,21.185,21.185,0,0,0,6.617,1,18.661,18.661,0,0,0,14.6-6.251v5.156h17.247V397.75A30.363,30.363,0,0,0,262.033,388.624Zm-15.742,19.689a7.67,7.67,0,0,1-2.4,5.955,8.8,8.8,0,0,1-6.251,2.213,6.792,6.792,0,0,1-4.4-1.415,4.867,4.867,0,0,1-1.734-3.992v-.183a5.53,5.53,0,0,1,2.054-4.472,9.23,9.23,0,0,1,5.931-1.688,17.993,17.993,0,0,1,3.719.366,17.19,17.19,0,0,1,3.08.912Z" transform="translate(-153.276 -359.284)"/><path class="b" d="M301.967,391.185V377.131H290.4V364.56H272.855v12.571h-5.863v14.054h5.863V411.4q0,8.9,4.449,12.663,4.415,3.764,12.366,3.764a27.881,27.881,0,0,0,6.707-.776,23.6,23.6,0,0,0,5.407-2.076V411.285a19.376,19.376,0,0,1-3.217,1.209,12.989,12.989,0,0,1-3.4.457,4.973,4.973,0,0,1-3.559-1.141A5.119,5.119,0,0,1,290.4,408V391.185Z" transform="translate(-150.934 -359.792)"/><path class="b" d="M362.516,426.314a22.076,22.076,0,0,1-2.442-.844,26.9,26.9,0,0,1-8.67-5.544,24.883,24.883,0,0,1-7.711-18.229v-.183a24.678,24.678,0,0,1,2.076-10.061,25.683,25.683,0,0,1,4.677-7.186,14.483,14.483,0,0,0-1.985-2.3,18.723,18.723,0,0,0-7.575-4.495,35.506,35.506,0,0,0-11.339-1.574,53.129,53.129,0,0,0-11.156,1.05,54.526,54.526,0,0,0-8.943,2.806l3.582,12.32a44.538,44.538,0,0,1,6.525-2.031,32.827,32.827,0,0,1,7.164-.73c3.354,0,5.84.707,7.483,2.1a7.491,7.491,0,0,1,2.419,5.977v.821a37.526,37.526,0,0,0-5.271-1.324,36.928,36.928,0,0,0-6.661-.592,28.981,28.981,0,0,0-7.985,1,17.559,17.559,0,0,0-6.114,2.943,13.276,13.276,0,0,0-3.947,4.86,15.6,15.6,0,0,0-1.415,6.8v.183a16.216,16.216,0,0,0,1.278,6.616,13.513,13.513,0,0,0,3.537,4.768,15.942,15.942,0,0,0,5.293,2.943,21.037,21.037,0,0,0,6.594,1,19.454,19.454,0,0,0,8.51-1.711,19.012,19.012,0,0,0,6.091-4.54v5.156Zm-28.085-12.046a8.8,8.8,0,0,1-6.252,2.213,6.789,6.789,0,0,1-4.4-1.415,4.884,4.884,0,0,1-1.757-3.992v-.183a5.552,5.552,0,0,1,2.076-4.472A9.164,9.164,0,0,1,330,404.731a18.2,18.2,0,0,1,3.741.366,16.314,16.314,0,0,1,3.057.912v2.3A7.733,7.733,0,0,1,334.432,414.268Z" transform="translate(-149.222 -359.284)"/><path class="a" d="M437.728,380.4q-4.482-4.86-12.525-4.859a15.774,15.774,0,0,0-4.791.684,17.206,17.206,0,0,0-3.992,1.8,16.4,16.4,0,0,0-3.263,2.579,29.43,29.43,0,0,0-2.646,3.011v-6.981H376.22a23.989,23.989,0,0,1,2.806.958,28.262,28.262,0,0,1,8.693,5.567,24.611,24.611,0,0,1,5.68,8.168,25.04,25.04,0,0,1,2.031,10.015v.183a24.6,24.6,0,0,1-2.077,10.061,25.428,25.428,0,0,1-5.726,8.259,27.437,27.437,0,0,1-8.737,5.59,23.19,23.19,0,0,1-2.51.89h34.131v-26.9c0-2.76.684-4.836,2.053-6.251a6.861,6.861,0,0,1,5.2-2.122,6.417,6.417,0,0,1,5,2.122c1.255,1.415,1.894,3.491,1.894,6.251v26.9H442.2V393.818C442.2,388.115,440.694,383.643,437.728,380.4Z" transform="translate(-146.043 -359.3)"/></g></g></svg>