<svg xmlns="http://www.w3.org/2000/svg" xmlns:xlink="http://www.w3.org/1999/xlink" width="20" height="20" viewBox="0 0 20 20"><defs><style>.a{fill:#333;stroke:#333;stroke-width:0.5px;}.b{clip-path:url(#a);}</style><clipPath id="a"><rect class="a" width="20" height="20"/></clipPath></defs><g transform="translate(3.217 3.217)"><g class="b" transform="translate(-3.217 -3.217)"><path class="a" d="M28.017,0a2.8,2.8,0,0,0-2,.827L23.827,3.022a2.807,2.807,0,0,0-.809,2.306.314.314,0,1,0,.623-.069,2.179,2.179,0,0,1,.629-1.793L26.465,1.27a2.2,2.2,0,0,1,3.1,3.1L27.374,6.569a2.179,2.179,0,0,1-1.793.629.318.318,0,0,0-.346.277.313.313,0,0,0,.277.346,2.807,2.807,0,0,0,2.306-.809l2.195-2.195a2.822,2.822,0,0,0-2-4.818" transform="translate(-13.314 2.474)"/><path class="a" d="M7.475,25.235a.314.314,0,0,0-.277.346,2.114,2.114,0,0,1,.014.241,2.182,2.182,0,0,1-.643,1.552L4.374,29.569a2.2,2.2,0,0,1-3.1-3.1L3.465,24.27a2.179,2.179,0,0,1,1.793-.629.314.314,0,1,0,.069-.623,2.807,2.807,0,0,0-2.306.809L.827,26.022a2.822,2.822,0,0,0,3.991,3.991l2.195-2.195a2.8,2.8,0,0,0,.827-2,2.741,2.741,0,0,0-.018-.31.316.316,0,0,0-.346-.277" transform="translate(2.474 -13.314)"/><path class="a" d="M14.092,20.179a.313.313,0,0,0,.443,0l5.644-5.644a.314.314,0,1,0-.443-.443l-5.644,5.644a.313.313,0,0,0,0,.443" transform="translate(-7.135 -7.135)"/></g></g></svg>