<?xml version="1.0" encoding="UTF-8" standalone="no"?>
<!DOCTYPE svg PUBLIC "-//W3C//DTD SVG 1.1//EN" "http://www.w3.org/Graphics/SVG/1.1/DTD/svg11.dtd">
<svg width="100%" height="100%" viewBox="0 0 50 50" version="1.1" xmlns="http://www.w3.org/2000/svg" xmlns:xlink="http://www.w3.org/1999/xlink" xml:space="preserve" style="fill-rule:evenodd;clip-rule:evenodd;stroke-linejoin:round;stroke-miterlimit:1.41421;">
    <g transform="matrix(1.5873,0,0,2.25095,-9.40738,-17.5213)">
        <rect x="5.927" y="7.784" width="31.5" height="22.213" style="fill:rgb(242,114,33);"/>
    </g>
    <path d="M26.976,19.001L30.022,19.001L29.988,28.029L26.994,28.012L26.976,19.001Z" style="fill:white;"/>
    <path d="M22.972,29.997L25.984,29.997L25.984,18.035L30.022,18.035L30.022,15.006L18.01,15.006L18.01,18.001L22.972,18.001L22.972,29.997Z" style="fill:white;"/>
    <path d="M8.999,35L12.002,35.007L12.019,22.032L18.978,22.04L18.997,35.027L40.04,35.053L39.987,25L31.003,25L30.995,28.016L36.965,28.021L36.965,32.005L21.984,32.03L21.999,19.028L8.997,19.001L8.999,35Z" style="fill:white;"/>
    <path d="M30.981,19.001L30.998,22.04L40.04,22.04L40.04,19.001L30.981,19.001Z" style="fill:white;"/>
</svg>